<mxfile host="Electron" modified="2023-08-30T15:44:59.944Z" agent="Mozilla/5.0 (Windows NT 10.0; Win64; x64) AppleWebKit/537.36 (KHTML, like Gecko) draw.io/21.6.8 Chrome/114.0.5735.289 Electron/25.5.0 Safari/537.36" etag="Y6TNiI_t1S-XiWo_h26k" version="21.6.8" type="device" pages="6">
  <diagram id="43obz_W1snOm_pnbtg8-" name="flow">
    <mxGraphModel dx="1036" dy="623" grid="1" gridSize="10" guides="1" tooltips="1" connect="1" arrows="1" fold="1" page="1" pageScale="1" pageWidth="827" pageHeight="1169" math="0" shadow="0">
      <root>
        <mxCell id="0" />
        <mxCell id="1" parent="0" />
        <mxCell id="YQauaf09ehInoLkgsP6h-1" style="edgeStyle=orthogonalEdgeStyle;rounded=0;orthogonalLoop=1;jettySize=auto;html=1;entryX=0.5;entryY=1;entryDx=0;entryDy=0;fontSize=16;exitX=0.5;exitY=0;exitDx=0;exitDy=0;" parent="1" source="YQauaf09ehInoLkgsP6h-3" target="YQauaf09ehInoLkgsP6h-5" edge="1">
          <mxGeometry relative="1" as="geometry" />
        </mxCell>
        <mxCell id="YQauaf09ehInoLkgsP6h-2" style="edgeStyle=orthogonalEdgeStyle;rounded=0;orthogonalLoop=1;jettySize=auto;html=1;entryX=0.5;entryY=0;entryDx=0;entryDy=0;fontSize=16;" parent="1" source="YQauaf09ehInoLkgsP6h-3" target="YQauaf09ehInoLkgsP6h-7" edge="1">
          <mxGeometry relative="1" as="geometry" />
        </mxCell>
        <mxCell id="YQauaf09ehInoLkgsP6h-3" value="Present Idea" style="rounded=0;whiteSpace=wrap;html=1;fontSize=16;" parent="1" vertex="1">
          <mxGeometry x="120" y="160" width="120" height="40" as="geometry" />
        </mxCell>
        <mxCell id="YQauaf09ehInoLkgsP6h-4" style="edgeStyle=orthogonalEdgeStyle;rounded=0;orthogonalLoop=1;jettySize=auto;html=1;entryX=0;entryY=0.5;entryDx=0;entryDy=0;fontSize=16;exitX=1;exitY=0.5;exitDx=0;exitDy=0;" parent="1" source="YQauaf09ehInoLkgsP6h-5" target="YQauaf09ehInoLkgsP6h-9" edge="1">
          <mxGeometry relative="1" as="geometry" />
        </mxCell>
        <mxCell id="YQauaf09ehInoLkgsP6h-5" value="Implement" style="rounded=0;whiteSpace=wrap;html=1;fontSize=16;" parent="1" vertex="1">
          <mxGeometry x="120" y="80" width="120" height="40" as="geometry" />
        </mxCell>
        <mxCell id="cmWiWIrohYal6XeCC_Is-1" style="edgeStyle=orthogonalEdgeStyle;rounded=0;orthogonalLoop=1;jettySize=auto;html=1;entryX=0;entryY=0.5;entryDx=0;entryDy=0;exitX=1;exitY=0.5;exitDx=0;exitDy=0;" parent="1" source="YQauaf09ehInoLkgsP6h-7" target="YQauaf09ehInoLkgsP6h-9" edge="1">
          <mxGeometry relative="1" as="geometry" />
        </mxCell>
        <mxCell id="YQauaf09ehInoLkgsP6h-7" value="Research" style="rounded=0;whiteSpace=wrap;html=1;fontSize=16;" parent="1" vertex="1">
          <mxGeometry x="120" y="240" width="120" height="40" as="geometry" />
        </mxCell>
        <mxCell id="YQauaf09ehInoLkgsP6h-8" style="edgeStyle=orthogonalEdgeStyle;rounded=0;orthogonalLoop=1;jettySize=auto;html=1;entryX=0;entryY=0.5;entryDx=0;entryDy=0;fontSize=16;" parent="1" source="YQauaf09ehInoLkgsP6h-9" target="bDCkwBF-Ui2BfDc-mzuL-1" edge="1">
          <mxGeometry relative="1" as="geometry" />
        </mxCell>
        <mxCell id="YQauaf09ehInoLkgsP6h-9" value="Evaluate" style="rounded=0;whiteSpace=wrap;html=1;fontSize=16;" parent="1" vertex="1">
          <mxGeometry x="280" y="160" width="80" height="40" as="geometry" />
        </mxCell>
        <mxCell id="cmWiWIrohYal6XeCC_Is-5" style="edgeStyle=orthogonalEdgeStyle;rounded=0;orthogonalLoop=1;jettySize=auto;html=1;entryX=1;entryY=0.5;entryDx=0;entryDy=0;exitX=0;exitY=0.5;exitDx=0;exitDy=0;" parent="1" source="YQauaf09ehInoLkgsP6h-11" target="YQauaf09ehInoLkgsP6h-13" edge="1">
          <mxGeometry relative="1" as="geometry">
            <mxPoint x="619.9999999999998" y="60" as="targetPoint" />
            <mxPoint x="550" y="60" as="sourcePoint" />
          </mxGeometry>
        </mxCell>
        <mxCell id="YQauaf09ehInoLkgsP6h-11" value="Implement idea" style="rounded=0;whiteSpace=wrap;html=1;fontSize=16;" parent="1" vertex="1">
          <mxGeometry x="520" y="40" width="120" height="40" as="geometry" />
        </mxCell>
        <mxCell id="YQauaf09ehInoLkgsP6h-12" style="edgeStyle=orthogonalEdgeStyle;rounded=0;orthogonalLoop=1;jettySize=auto;html=1;entryX=0.5;entryY=0;entryDx=0;entryDy=0;fontSize=16;" parent="1" source="YQauaf09ehInoLkgsP6h-13" target="YQauaf09ehInoLkgsP6h-18" edge="1">
          <mxGeometry relative="1" as="geometry" />
        </mxCell>
        <mxCell id="YQauaf09ehInoLkgsP6h-13" value="Take note" style="shape=parallelogram;perimeter=parallelogramPerimeter;whiteSpace=wrap;html=1;fixedSize=1;fontSize=16;" parent="1" vertex="1">
          <mxGeometry x="300" y="40" width="120" height="40" as="geometry" />
        </mxCell>
        <mxCell id="cmWiWIrohYal6XeCC_Is-3" value="&lt;span style=&quot;font-family: Helvetica; font-size: 16px; font-style: normal; font-variant-ligatures: normal; font-variant-caps: normal; font-weight: 400; letter-spacing: normal; orphans: 2; text-align: center; text-indent: 0px; text-transform: none; widows: 2; word-spacing: 0px; -webkit-text-stroke-width: 0px; background-color: rgb(255, 255, 255); text-decoration-thickness: initial; text-decoration-style: initial; text-decoration-color: initial; float: none; display: inline !important;&quot;&gt;yes&lt;/span&gt;" style="edgeStyle=orthogonalEdgeStyle;rounded=0;orthogonalLoop=1;jettySize=auto;html=1;entryX=1;entryY=0.5;entryDx=0;entryDy=0;exitX=1;exitY=0.5;exitDx=0;exitDy=0;fontColor=#009900;" parent="1" source="YQauaf09ehInoLkgsP6h-16" target="YQauaf09ehInoLkgsP6h-11" edge="1">
          <mxGeometry relative="1" as="geometry">
            <mxPoint as="offset" />
          </mxGeometry>
        </mxCell>
        <mxCell id="cmWiWIrohYal6XeCC_Is-6" value="&lt;span style=&quot;color: rgb(255, 0, 0); font-family: Helvetica; font-size: 16px; font-style: normal; font-variant-ligatures: normal; font-variant-caps: normal; font-weight: 400; letter-spacing: normal; orphans: 2; text-align: center; text-indent: 0px; text-transform: none; widows: 2; word-spacing: 0px; -webkit-text-stroke-width: 0px; background-color: rgb(255, 255, 255); text-decoration-thickness: initial; text-decoration-style: initial; text-decoration-color: initial; float: none; display: inline !important;&quot;&gt;no&lt;/span&gt;" style="edgeStyle=orthogonalEdgeStyle;rounded=0;orthogonalLoop=1;jettySize=auto;html=1;entryX=0.5;entryY=1;entryDx=0;entryDy=0;exitX=0.5;exitY=0;exitDx=0;exitDy=0;" parent="1" source="YQauaf09ehInoLkgsP6h-16" target="YQauaf09ehInoLkgsP6h-13" edge="1">
          <mxGeometry relative="1" as="geometry" />
        </mxCell>
        <mxCell id="YQauaf09ehInoLkgsP6h-16" value="is effective" style="rhombus;whiteSpace=wrap;html=1;fontSize=16;" parent="1" vertex="1">
          <mxGeometry x="520" y="140" width="120" height="80" as="geometry" />
        </mxCell>
        <mxCell id="YQauaf09ehInoLkgsP6h-17" style="edgeStyle=orthogonalEdgeStyle;rounded=0;orthogonalLoop=1;jettySize=auto;html=1;entryX=0;entryY=0.5;entryDx=0;entryDy=0;fontSize=16;" parent="1" source="YQauaf09ehInoLkgsP6h-18" target="YQauaf09ehInoLkgsP6h-3" edge="1">
          <mxGeometry relative="1" as="geometry" />
        </mxCell>
        <mxCell id="YQauaf09ehInoLkgsP6h-18" value="Explore" style="ellipse;whiteSpace=wrap;html=1;rounded=0;fontSize=16;" parent="1" vertex="1">
          <mxGeometry y="160" width="80" height="40" as="geometry" />
        </mxCell>
        <mxCell id="bDCkwBF-Ui2BfDc-mzuL-2" style="edgeStyle=orthogonalEdgeStyle;rounded=0;orthogonalLoop=1;jettySize=auto;html=1;entryX=0;entryY=0.5;entryDx=0;entryDy=0;fontSize=16;" parent="1" source="bDCkwBF-Ui2BfDc-mzuL-1" target="YQauaf09ehInoLkgsP6h-16" edge="1">
          <mxGeometry relative="1" as="geometry" />
        </mxCell>
        <mxCell id="bDCkwBF-Ui2BfDc-mzuL-1" value="Compare" style="rounded=0;whiteSpace=wrap;html=1;fontSize=16;" parent="1" vertex="1">
          <mxGeometry x="400" y="160" width="80" height="40" as="geometry" />
        </mxCell>
      </root>
    </mxGraphModel>
  </diagram>
  <diagram id="Uy42l2FAY-86L5ocy3oN" name="workflow">
    <mxGraphModel dx="1036" dy="623" grid="1" gridSize="10" guides="1" tooltips="1" connect="1" arrows="1" fold="1" page="1" pageScale="1" pageWidth="827" pageHeight="1169" math="0" shadow="0">
      <root>
        <mxCell id="0" />
        <mxCell id="1" parent="0" />
        <mxCell id="Ug4yPb1_3uYS3Z78Hiwg-9" style="edgeStyle=orthogonalEdgeStyle;rounded=0;orthogonalLoop=1;jettySize=auto;html=1;entryX=0;entryY=0.5;entryDx=0;entryDy=0;" parent="1" source="Ug4yPb1_3uYS3Z78Hiwg-1" target="Ug4yPb1_3uYS3Z78Hiwg-2" edge="1">
          <mxGeometry relative="1" as="geometry" />
        </mxCell>
        <mxCell id="Ug4yPb1_3uYS3Z78Hiwg-1" value="&lt;font style=&quot;font-size: 16px;&quot;&gt;Boot&lt;/font&gt;" style="ellipse;whiteSpace=wrap;html=1;" parent="1" vertex="1">
          <mxGeometry y="120" width="200" height="40" as="geometry" />
        </mxCell>
        <mxCell id="Ug4yPb1_3uYS3Z78Hiwg-18" style="edgeStyle=orthogonalEdgeStyle;rounded=0;orthogonalLoop=1;jettySize=auto;html=1;entryX=0;entryY=0.5;entryDx=0;entryDy=0;" parent="1" source="Ug4yPb1_3uYS3Z78Hiwg-2" target="Ug4yPb1_3uYS3Z78Hiwg-3" edge="1">
          <mxGeometry relative="1" as="geometry" />
        </mxCell>
        <mxCell id="Ug4yPb1_3uYS3Z78Hiwg-2" value="Scan motion" style="rounded=0;whiteSpace=wrap;html=1;fontSize=16;" parent="1" vertex="1">
          <mxGeometry x="240" y="120" width="200" height="40" as="geometry" />
        </mxCell>
        <mxCell id="Ug4yPb1_3uYS3Z78Hiwg-10" value="no" style="edgeStyle=orthogonalEdgeStyle;rounded=0;orthogonalLoop=1;jettySize=auto;html=1;entryX=0.5;entryY=0;entryDx=0;entryDy=0;exitX=0.5;exitY=0;exitDx=0;exitDy=0;fontColor=#FF0000;fontSize=16;" parent="1" source="Ug4yPb1_3uYS3Z78Hiwg-3" target="Ug4yPb1_3uYS3Z78Hiwg-2" edge="1">
          <mxGeometry relative="1" as="geometry" />
        </mxCell>
        <mxCell id="kyJswvqQ-jpGLzZFU8X6-1" value="&lt;span style=&quot;color: rgb(0, 153, 0); font-family: Helvetica; font-size: 16px; font-style: normal; font-variant-ligatures: normal; font-variant-caps: normal; font-weight: 400; letter-spacing: normal; orphans: 2; text-align: center; text-indent: 0px; text-transform: none; widows: 2; word-spacing: 0px; -webkit-text-stroke-width: 0px; background-color: rgb(255, 255, 255); text-decoration-thickness: initial; text-decoration-style: initial; text-decoration-color: initial; float: none; display: inline !important;&quot;&gt;yes&lt;/span&gt;" style="edgeStyle=orthogonalEdgeStyle;rounded=0;orthogonalLoop=1;jettySize=auto;html=1;entryX=0.5;entryY=0;entryDx=0;entryDy=0;" parent="1" source="Ug4yPb1_3uYS3Z78Hiwg-3" target="Ug4yPb1_3uYS3Z78Hiwg-4" edge="1">
          <mxGeometry relative="1" as="geometry" />
        </mxCell>
        <mxCell id="Ug4yPb1_3uYS3Z78Hiwg-3" value="Is motion detected?" style="rhombus;whiteSpace=wrap;html=1;fontSize=16;" parent="1" vertex="1">
          <mxGeometry x="480" y="110" width="240" height="60" as="geometry" />
        </mxCell>
        <mxCell id="Ug4yPb1_3uYS3Z78Hiwg-12" style="edgeStyle=orthogonalEdgeStyle;rounded=0;orthogonalLoop=1;jettySize=auto;html=1;entryX=0.5;entryY=0;entryDx=0;entryDy=0;" parent="1" source="Ug4yPb1_3uYS3Z78Hiwg-4" target="Ug4yPb1_3uYS3Z78Hiwg-5" edge="1">
          <mxGeometry relative="1" as="geometry" />
        </mxCell>
        <mxCell id="Ug4yPb1_3uYS3Z78Hiwg-4" value="Open lid" style="rounded=0;whiteSpace=wrap;html=1;fontSize=16;" parent="1" vertex="1">
          <mxGeometry x="480" y="240" width="240" height="40" as="geometry" />
        </mxCell>
        <mxCell id="Ug4yPb1_3uYS3Z78Hiwg-13" style="edgeStyle=orthogonalEdgeStyle;rounded=0;orthogonalLoop=1;jettySize=auto;html=1;entryX=1;entryY=0.5;entryDx=0;entryDy=0;exitX=0;exitY=0.5;exitDx=0;exitDy=0;" parent="1" source="Ug4yPb1_3uYS3Z78Hiwg-5" target="Ug4yPb1_3uYS3Z78Hiwg-6" edge="1">
          <mxGeometry relative="1" as="geometry" />
        </mxCell>
        <mxCell id="Ug4yPb1_3uYS3Z78Hiwg-5" value="Wait 3 seconds" style="rounded=0;whiteSpace=wrap;html=1;fontSize=16;" parent="1" vertex="1">
          <mxGeometry x="480" y="360" width="240" height="40" as="geometry" />
        </mxCell>
        <mxCell id="Ug4yPb1_3uYS3Z78Hiwg-14" value="no" style="edgeStyle=orthogonalEdgeStyle;rounded=0;orthogonalLoop=1;jettySize=auto;html=1;entryX=0.5;entryY=1;entryDx=0;entryDy=0;fontColor=#FF0000;fontSize=16;" parent="1" source="Ug4yPb1_3uYS3Z78Hiwg-6" target="Ug4yPb1_3uYS3Z78Hiwg-7" edge="1">
          <mxGeometry relative="1" as="geometry" />
        </mxCell>
        <mxCell id="Ug4yPb1_3uYS3Z78Hiwg-15" value="yes" style="edgeStyle=orthogonalEdgeStyle;rounded=0;orthogonalLoop=1;jettySize=auto;html=1;entryX=0;entryY=0.5;entryDx=0;entryDy=0;exitX=0.5;exitY=0;exitDx=0;exitDy=0;fontColor=#009900;fontSize=16;" parent="1" source="Ug4yPb1_3uYS3Z78Hiwg-6" target="Ug4yPb1_3uYS3Z78Hiwg-4" edge="1">
          <mxGeometry relative="1" as="geometry">
            <mxPoint x="680" y="189.9999999999999" as="targetPoint" />
          </mxGeometry>
        </mxCell>
        <mxCell id="Ug4yPb1_3uYS3Z78Hiwg-6" value="Is motion detected?" style="rhombus;whiteSpace=wrap;html=1;fontSize=16;" parent="1" vertex="1">
          <mxGeometry x="240" y="350" width="200" height="60" as="geometry" />
        </mxCell>
        <mxCell id="Ug4yPb1_3uYS3Z78Hiwg-16" style="edgeStyle=orthogonalEdgeStyle;rounded=0;orthogonalLoop=1;jettySize=auto;html=1;entryX=0.5;entryY=1;entryDx=0;entryDy=0;" parent="1" source="Ug4yPb1_3uYS3Z78Hiwg-7" target="Ug4yPb1_3uYS3Z78Hiwg-8" edge="1">
          <mxGeometry relative="1" as="geometry" />
        </mxCell>
        <mxCell id="Ug4yPb1_3uYS3Z78Hiwg-7" value="Close lid" style="rounded=0;whiteSpace=wrap;html=1;fontSize=16;" parent="1" vertex="1">
          <mxGeometry y="300" width="200" height="40" as="geometry" />
        </mxCell>
        <mxCell id="Ug4yPb1_3uYS3Z78Hiwg-17" style="edgeStyle=orthogonalEdgeStyle;rounded=0;orthogonalLoop=1;jettySize=auto;html=1;entryX=0.5;entryY=1;entryDx=0;entryDy=0;exitX=0.5;exitY=0;exitDx=0;exitDy=0;" parent="1" source="Ug4yPb1_3uYS3Z78Hiwg-8" target="Ug4yPb1_3uYS3Z78Hiwg-2" edge="1">
          <mxGeometry relative="1" as="geometry" />
        </mxCell>
        <mxCell id="Ug4yPb1_3uYS3Z78Hiwg-8" value="Send capactiy to the processing center" style="rounded=0;whiteSpace=wrap;html=1;fontSize=16;" parent="1" vertex="1">
          <mxGeometry y="210" width="200" height="40" as="geometry" />
        </mxCell>
      </root>
    </mxGraphModel>
  </diagram>
  <diagram name="db_schema" id="3-Kusr8PeL8G7iRzZjqA">
    <mxGraphModel dx="1050" dy="638" grid="1" gridSize="10" guides="1" tooltips="1" connect="1" arrows="1" fold="1" page="1" pageScale="1" pageWidth="827" pageHeight="1169" math="0" shadow="0">
      <root>
        <mxCell id="0" />
        <mxCell id="1" parent="0" />
        <mxCell id="TzbilVc_gsBok2wx4rR0-2" value="Device" style="swimlane;childLayout=stackLayout;horizontal=1;startSize=50;horizontalStack=0;rounded=0;fontSize=14;fontStyle=0;strokeWidth=1;resizeParent=0;resizeLast=1;shadow=0;dashed=0;align=center;arcSize=4;whiteSpace=wrap;html=1;" parent="1" vertex="1">
          <mxGeometry x="120" y="120" width="160" height="120" as="geometry" />
        </mxCell>
        <mxCell id="TzbilVc_gsBok2wx4rR0-3" value="ProductKey (PK)&lt;br&gt;SecretKey&lt;br&gt;Name&lt;br&gt;Description" style="align=left;strokeColor=none;fillColor=none;spacingLeft=4;fontSize=12;verticalAlign=top;resizable=0;rotatable=0;part=1;html=1;" parent="TzbilVc_gsBok2wx4rR0-2" vertex="1">
          <mxGeometry y="50" width="160" height="70" as="geometry" />
        </mxCell>
        <mxCell id="TzbilVc_gsBok2wx4rR0-8" value="Log" style="swimlane;childLayout=stackLayout;horizontal=1;startSize=50;horizontalStack=0;rounded=0;fontSize=14;fontStyle=0;strokeWidth=1;resizeParent=0;resizeLast=1;shadow=0;dashed=0;align=center;arcSize=4;whiteSpace=wrap;html=1;swimlaneLine=1;fillColor=default;" parent="1" vertex="1">
          <mxGeometry x="400" y="120" width="160" height="120" as="geometry" />
        </mxCell>
        <mxCell id="TzbilVc_gsBok2wx4rR0-9" value="DateTime (PK)&lt;br&gt;Height&lt;br&gt;Weight" style="align=left;strokeColor=none;fillColor=none;spacingLeft=4;fontSize=12;verticalAlign=top;resizable=0;rotatable=0;part=1;html=1;" parent="TzbilVc_gsBok2wx4rR0-8" vertex="1">
          <mxGeometry y="50" width="160" height="70" as="geometry" />
        </mxCell>
        <mxCell id="TzbilVc_gsBok2wx4rR0-17" value="PK" style="endArrow=box;html=1;rounded=0;exitX=1;exitY=0.5;exitDx=0;exitDy=0;entryX=0;entryY=0.5;entryDx=0;entryDy=0;edgeStyle=orthogonalEdgeStyle;endFill=0;endSize=19;" parent="1" source="TzbilVc_gsBok2wx4rR0-3" target="TzbilVc_gsBok2wx4rR0-9" edge="1">
          <mxGeometry x="0.8333" relative="1" as="geometry">
            <mxPoint x="280" y="165" as="sourcePoint" />
            <mxPoint x="420" y="190" as="targetPoint" />
            <mxPoint as="offset" />
          </mxGeometry>
        </mxCell>
        <mxCell id="TzbilVc_gsBok2wx4rR0-19" value="1..1" style="edgeLabel;resizable=0;html=1;align=left;verticalAlign=bottom;" parent="TzbilVc_gsBok2wx4rR0-17" connectable="0" vertex="1">
          <mxGeometry x="-1" relative="1" as="geometry" />
        </mxCell>
        <mxCell id="TzbilVc_gsBok2wx4rR0-20" value="0..N" style="edgeLabel;resizable=0;html=1;align=right;verticalAlign=bottom;" parent="TzbilVc_gsBok2wx4rR0-17" connectable="0" vertex="1">
          <mxGeometry x="1" relative="1" as="geometry">
            <mxPoint y="-15" as="offset" />
          </mxGeometry>
        </mxCell>
        <mxCell id="UIi5gd_S2QvZ32J1noL3-1" value="produces" style="edgeLabel;html=1;align=center;verticalAlign=middle;resizable=0;points=[];" parent="TzbilVc_gsBok2wx4rR0-17" vertex="1" connectable="0">
          <mxGeometry x="-0.3357" y="-1" relative="1" as="geometry">
            <mxPoint x="20" as="offset" />
          </mxGeometry>
        </mxCell>
        <mxCell id="AwA-VoJbtGPy5JBa3h_f-1" value="User" style="swimlane;childLayout=stackLayout;horizontal=1;startSize=50;horizontalStack=0;rounded=0;fontSize=14;fontStyle=0;strokeWidth=1;resizeParent=0;resizeLast=1;shadow=0;dashed=0;align=center;arcSize=4;whiteSpace=wrap;html=1;" parent="1" vertex="1">
          <mxGeometry x="120" y="280" width="160" height="120" as="geometry" />
        </mxCell>
        <mxCell id="AwA-VoJbtGPy5JBa3h_f-2" value="Username&lt;br&gt;Password&lt;br&gt;IsAdmin" style="align=left;strokeColor=none;fillColor=none;spacingLeft=4;fontSize=12;verticalAlign=top;resizable=0;rotatable=0;part=1;html=1;" parent="AwA-VoJbtGPy5JBa3h_f-1" vertex="1">
          <mxGeometry y="50" width="160" height="70" as="geometry" />
        </mxCell>
      </root>
    </mxGraphModel>
  </diagram>
  <diagram id="LflUJdKDA35UECzMb9H2" name="architecture_base">
    <mxGraphModel dx="1050" dy="638" grid="1" gridSize="10" guides="1" tooltips="1" connect="1" arrows="1" fold="1" page="1" pageScale="1" pageWidth="827" pageHeight="1169" math="0" shadow="0">
      <root>
        <mxCell id="0" />
        <mxCell id="1" parent="0" />
        <mxCell id="uLUzbNzAMRytsI049bTl-49" style="edgeStyle=orthogonalEdgeStyle;rounded=0;orthogonalLoop=1;jettySize=auto;html=1;entryX=0.25;entryY=0;entryDx=0;entryDy=0;exitX=1;exitY=0.5;exitDx=0;exitDy=0;" parent="1" source="uLUzbNzAMRytsI049bTl-24" target="uLUzbNzAMRytsI049bTl-5" edge="1">
          <mxGeometry relative="1" as="geometry" />
        </mxCell>
        <mxCell id="uLUzbNzAMRytsI049bTl-15" value="" style="rounded=0;whiteSpace=wrap;html=1;fillColor=none;container=1;collapsible=0;recursiveResize=0;" parent="1" vertex="1">
          <mxGeometry y="240" width="280" height="400" as="geometry" />
        </mxCell>
        <mxCell id="uLUzbNzAMRytsI049bTl-17" value="" style="rounded=0;whiteSpace=wrap;html=1;fillColor=none;container=1;collapsible=0;recursiveResize=0;" parent="uLUzbNzAMRytsI049bTl-15" vertex="1">
          <mxGeometry x="160" y="200" width="80" height="120" as="geometry" />
        </mxCell>
        <mxCell id="uLUzbNzAMRytsI049bTl-18" value="Sensor" style="rounded=0;whiteSpace=wrap;html=1;container=0;collapsible=0;recursiveResize=1;" parent="uLUzbNzAMRytsI049bTl-17" vertex="1">
          <mxGeometry y="80" width="80" height="40" as="geometry" />
        </mxCell>
        <mxCell id="uLUzbNzAMRytsI049bTl-19" value="" style="image;aspect=fixed;perimeter=ellipsePerimeter;html=1;align=center;shadow=0;dashed=0;fontColor=#4277BB;labelBackgroundColor=default;fontSize=12;spacingTop=3;image=img/lib/ibm/users/sensor.svg;" parent="uLUzbNzAMRytsI049bTl-17" vertex="1">
          <mxGeometry x="10" y="9.99999999999999" width="60" height="60" as="geometry" />
        </mxCell>
        <mxCell id="uLUzbNzAMRytsI049bTl-20" value="" style="rounded=0;whiteSpace=wrap;html=1;fillColor=none;container=1;collapsible=0;recursiveResize=0;" parent="uLUzbNzAMRytsI049bTl-15" vertex="1">
          <mxGeometry x="40" y="200" width="80" height="120" as="geometry" />
        </mxCell>
        <mxCell id="uLUzbNzAMRytsI049bTl-21" value="Sensor" style="rounded=0;whiteSpace=wrap;html=1;container=0;collapsible=0;recursiveResize=1;" parent="uLUzbNzAMRytsI049bTl-20" vertex="1">
          <mxGeometry y="80" width="80" height="40" as="geometry" />
        </mxCell>
        <mxCell id="uLUzbNzAMRytsI049bTl-22" value="" style="image;aspect=fixed;perimeter=ellipsePerimeter;html=1;align=center;shadow=0;dashed=0;fontColor=#4277BB;labelBackgroundColor=default;fontSize=12;spacingTop=3;image=img/lib/ibm/users/sensor.svg;" parent="uLUzbNzAMRytsI049bTl-20" vertex="1">
          <mxGeometry x="10" y="9.99999999999999" width="60" height="60" as="geometry" />
        </mxCell>
        <mxCell id="uLUzbNzAMRytsI049bTl-23" value="&lt;font style=&quot;font-size: 32px;&quot;&gt;...&lt;/font&gt;" style="text;html=1;strokeColor=none;fillColor=none;align=center;verticalAlign=middle;whiteSpace=wrap;rounded=0;" parent="uLUzbNzAMRytsI049bTl-15" vertex="1">
          <mxGeometry x="120" y="245" width="40" height="30" as="geometry" />
        </mxCell>
        <mxCell id="uLUzbNzAMRytsI049bTl-24" value="" style="rounded=0;whiteSpace=wrap;html=1;fillColor=none;container=1;collapsible=0;recursiveResize=0;" parent="uLUzbNzAMRytsI049bTl-15" vertex="1">
          <mxGeometry x="80" y="40" width="120" height="120" as="geometry" />
        </mxCell>
        <mxCell id="uLUzbNzAMRytsI049bTl-25" value="Microcontroller" style="rounded=0;whiteSpace=wrap;html=1;container=0;collapsible=0;recursiveResize=1;" parent="uLUzbNzAMRytsI049bTl-24" vertex="1">
          <mxGeometry y="80" width="120" height="40" as="geometry" />
        </mxCell>
        <mxCell id="uLUzbNzAMRytsI049bTl-26" value="" style="outlineConnect=0;dashed=0;verticalLabelPosition=bottom;verticalAlign=top;align=center;html=1;shape=mxgraph.aws3.hardware_board;fillColor=#5294CF;gradientColor=none;noLabel=0;labelPadding=-2;portConstraintRotation=0;" parent="uLUzbNzAMRytsI049bTl-24" vertex="1">
          <mxGeometry x="33.12" y="10" width="53.75" height="64.3" as="geometry" />
        </mxCell>
        <mxCell id="uLUzbNzAMRytsI049bTl-27" style="rounded=0;orthogonalLoop=1;jettySize=auto;html=1;entryX=0.5;entryY=0;entryDx=0;entryDy=0;startArrow=classic;startFill=1;endArrow=none;endFill=0;exitX=0.75;exitY=1;exitDx=0;exitDy=0;edgeStyle=orthogonalEdgeStyle;" parent="uLUzbNzAMRytsI049bTl-15" source="uLUzbNzAMRytsI049bTl-25" target="uLUzbNzAMRytsI049bTl-17" edge="1">
          <mxGeometry relative="1" as="geometry" />
        </mxCell>
        <mxCell id="uLUzbNzAMRytsI049bTl-28" style="rounded=0;orthogonalLoop=1;jettySize=auto;html=1;entryX=0.5;entryY=0;entryDx=0;entryDy=0;startArrow=classic;startFill=1;endArrow=none;endFill=0;exitX=0.25;exitY=1;exitDx=0;exitDy=0;edgeStyle=orthogonalEdgeStyle;" parent="uLUzbNzAMRytsI049bTl-15" source="uLUzbNzAMRytsI049bTl-25" target="uLUzbNzAMRytsI049bTl-20" edge="1">
          <mxGeometry relative="1" as="geometry" />
        </mxCell>
        <mxCell id="uLUzbNzAMRytsI049bTl-16" value="&lt;b&gt;Device(s)&lt;/b&gt;" style="rounded=0;whiteSpace=wrap;html=1;" parent="uLUzbNzAMRytsI049bTl-15" vertex="1">
          <mxGeometry y="360" width="280" height="40" as="geometry" />
        </mxCell>
        <mxCell id="uLUzbNzAMRytsI049bTl-48" style="edgeStyle=orthogonalEdgeStyle;rounded=0;orthogonalLoop=1;jettySize=auto;html=1;entryX=0.75;entryY=0;entryDx=0;entryDy=0;exitX=0;exitY=0.25;exitDx=0;exitDy=0;" parent="1" source="uLUzbNzAMRytsI049bTl-50" target="uLUzbNzAMRytsI049bTl-5" edge="1">
          <mxGeometry relative="1" as="geometry">
            <mxPoint x="639.9999999999998" y="439.9999999999999" as="sourcePoint" />
          </mxGeometry>
        </mxCell>
        <mxCell id="uLUzbNzAMRytsI049bTl-5" value="&lt;b&gt;Data Processing Center&lt;/b&gt;" style="rounded=0;whiteSpace=wrap;html=1;" parent="1" vertex="1">
          <mxGeometry x="320" y="600" width="280" height="40" as="geometry" />
        </mxCell>
        <mxCell id="uLUzbNzAMRytsI049bTl-46" value="" style="rounded=0;whiteSpace=wrap;html=1;fillColor=none;container=1;collapsible=0;recursiveResize=0;" parent="1" vertex="1">
          <mxGeometry x="320" y="240" width="280" height="320" as="geometry" />
        </mxCell>
        <mxCell id="uLUzbNzAMRytsI049bTl-47" value="&lt;b&gt;Network&lt;/b&gt;" style="rounded=0;whiteSpace=wrap;html=1;container=0;collapsible=0;recursiveResize=1;" parent="uLUzbNzAMRytsI049bTl-46" vertex="1">
          <mxGeometry width="280" height="40" as="geometry" />
        </mxCell>
        <mxCell id="uLUzbNzAMRytsI049bTl-50" value="" style="rounded=0;whiteSpace=wrap;html=1;fillColor=none;container=1;collapsible=0;recursiveResize=0;" parent="1" vertex="1">
          <mxGeometry x="640" y="240" width="160" height="400" as="geometry" />
        </mxCell>
        <mxCell id="uLUzbNzAMRytsI049bTl-51" value="&lt;b&gt;User Interface&lt;/b&gt;" style="rounded=0;whiteSpace=wrap;html=1;" parent="uLUzbNzAMRytsI049bTl-50" vertex="1">
          <mxGeometry y="360" width="160" height="40" as="geometry" />
        </mxCell>
        <mxCell id="uLUzbNzAMRytsI049bTl-52" value="" style="rounded=0;whiteSpace=wrap;html=1;fillColor=none;container=1;collapsible=0;recursiveResize=0;" parent="uLUzbNzAMRytsI049bTl-50" vertex="1">
          <mxGeometry x="40" y="200" width="80" height="120" as="geometry" />
        </mxCell>
        <mxCell id="uLUzbNzAMRytsI049bTl-53" value="Desktop" style="rounded=0;whiteSpace=wrap;html=1;container=0;collapsible=0;recursiveResize=1;" parent="uLUzbNzAMRytsI049bTl-52" vertex="1">
          <mxGeometry y="80" width="80" height="40" as="geometry" />
        </mxCell>
        <mxCell id="uLUzbNzAMRytsI049bTl-54" value="" style="sketch=0;outlineConnect=0;dashed=0;verticalLabelPosition=bottom;verticalAlign=top;align=center;html=1;fontSize=12;fontStyle=0;aspect=fixed;shape=mxgraph.aws4.illustration_desktop;pointerEvents=1;strokeColor=default;fillColor=#000000;" parent="uLUzbNzAMRytsI049bTl-52" vertex="1">
          <mxGeometry x="10" y="14.2" width="60" height="54.61" as="geometry" />
        </mxCell>
        <mxCell id="uLUzbNzAMRytsI049bTl-55" value="" style="rounded=0;whiteSpace=wrap;html=1;fillColor=none;container=1;collapsible=0;recursiveResize=0;" parent="uLUzbNzAMRytsI049bTl-50" vertex="1">
          <mxGeometry x="40" y="40" width="80" height="120" as="geometry" />
        </mxCell>
        <mxCell id="uLUzbNzAMRytsI049bTl-56" value="Smartphone" style="rounded=0;whiteSpace=wrap;html=1;container=0;collapsible=0;recursiveResize=1;" parent="uLUzbNzAMRytsI049bTl-55" vertex="1">
          <mxGeometry y="80" width="80" height="40" as="geometry" />
        </mxCell>
        <mxCell id="uLUzbNzAMRytsI049bTl-57" value="" style="verticalLabelPosition=bottom;verticalAlign=top;html=1;shadow=0;dashed=0;strokeWidth=1;shape=mxgraph.android.phone2;" parent="uLUzbNzAMRytsI049bTl-55" vertex="1">
          <mxGeometry x="24.1" y="9.999999999999998" width="31.8" height="62.01" as="geometry" />
        </mxCell>
      </root>
    </mxGraphModel>
  </diagram>
  <diagram id="9_5lFCj0mgIye8ATh_m7" name="architecture">
    <mxGraphModel dx="2442" dy="982" grid="1" gridSize="10" guides="1" tooltips="1" connect="1" arrows="1" fold="1" page="1" pageScale="1" pageWidth="827" pageHeight="1169" math="0" shadow="0">
      <root>
        <mxCell id="0" />
        <mxCell id="1" parent="0" />
        <mxCell id="fDyteKxTsw1w2ha29Ws7-5" value="" style="rounded=0;whiteSpace=wrap;html=1;fillColor=none;container=1;collapsible=0;recursiveResize=0;" parent="1" vertex="1">
          <mxGeometry x="320" y="320" width="440" height="400" as="geometry" />
        </mxCell>
        <mxCell id="fDyteKxTsw1w2ha29Ws7-25" style="edgeStyle=orthogonalEdgeStyle;rounded=0;orthogonalLoop=1;jettySize=auto;html=1;entryX=0.5;entryY=0;entryDx=0;entryDy=0;" parent="fDyteKxTsw1w2ha29Ws7-5" source="fDyteKxTsw1w2ha29Ws7-22" target="fDyteKxTsw1w2ha29Ws7-11" edge="1">
          <mxGeometry relative="1" as="geometry" />
        </mxCell>
        <mxCell id="fDyteKxTsw1w2ha29Ws7-22" value="" style="rounded=0;whiteSpace=wrap;html=1;recursiveResize=0;container=1;collapsible=0;" parent="fDyteKxTsw1w2ha29Ws7-5" vertex="1">
          <mxGeometry x="160" width="120" height="40" as="geometry" />
        </mxCell>
        <mxCell id="fDyteKxTsw1w2ha29Ws7-9" value="" style="shape=image;verticalLabelPosition=bottom;labelBackgroundColor=default;verticalAlign=top;aspect=fixed;imageAspect=0;image=https://upload.wikimedia.org/wikipedia/commons/thumb/c/c5/Nginx_logo.svg/2560px-Nginx_logo.svg.png;" parent="fDyteKxTsw1w2ha29Ws7-22" vertex="1">
          <mxGeometry x="25" y="12.7" width="70" height="14.59" as="geometry" />
        </mxCell>
        <mxCell id="fDyteKxTsw1w2ha29Ws7-33" value="&lt;b&gt;Server&lt;/b&gt;" style="rounded=0;whiteSpace=wrap;html=1;" parent="fDyteKxTsw1w2ha29Ws7-5" vertex="1">
          <mxGeometry y="360" width="440" height="40" as="geometry" />
        </mxCell>
        <mxCell id="fDyteKxTsw1w2ha29Ws7-11" value="" style="rounded=0;whiteSpace=wrap;html=1;fillColor=none;container=1;collapsible=0;recursiveResize=0;" parent="fDyteKxTsw1w2ha29Ws7-5" vertex="1">
          <mxGeometry x="40" y="80" width="360" height="240" as="geometry" />
        </mxCell>
        <mxCell id="kxiGyfCiiZGAV-LbY0Gb-2" value="" style="rounded=0;whiteSpace=wrap;html=1;fillColor=none;container=1;collapsible=0;recursiveResize=0;" parent="fDyteKxTsw1w2ha29Ws7-11" vertex="1">
          <mxGeometry x="40" y="40" width="120" height="120" as="geometry" />
        </mxCell>
        <mxCell id="kxiGyfCiiZGAV-LbY0Gb-3" value="Golang API" style="rounded=0;whiteSpace=wrap;html=1;container=0;collapsible=0;recursiveResize=1;" parent="kxiGyfCiiZGAV-LbY0Gb-2" vertex="1">
          <mxGeometry y="79" width="120" height="40" as="geometry" />
        </mxCell>
        <mxCell id="vr2XqwOMbLJMpUFcfifB-9" value="" style="shape=image;verticalLabelPosition=bottom;labelBackgroundColor=default;verticalAlign=top;aspect=fixed;imageAspect=0;image=data:image/png,iVBORw0KGgoAAAANSUhEUgAABQAAAAHhCAYAAAAxsxPDAAAABGdBTUEAALGPC/xhBQAAACBjSFJNAAB6JgAAgIQAAPoAAACA6AAAdTAAAOpgAAA6mAAAF3CculE8AAAABmJLR0QA/wD/AP+gvaeTAAB3iUlEQVR42uzdd3xddd3A8c/v3KS7zLJERMCSxRRwK08VRVEsNMlFAVGBB8QBiogb6t4TRHDxiICSUSgoOMC4AJEiM7kJZahl79Hd5PyeP4rK6Eiau869n/frxUuhbXLv59yc8e0ZIEmSJEmSJKlmBRNIkiQVydl3TmKj4RmwaktCsiUjTCeJU4lhEjHdGMJkkjCJGDclMAmYTGRjIBnjLtxiiMuAJ4k8+dT/X0xIHoe4jBiWkksfYzg+SC7cz2b3P8isWcMuIEmSpPrkAFCSJGl95t+8FauSF0Jue2AbYjqDJNmamG4BYQtgC2BrYHqVvoNI5AECDwD3ELifGO8H7iUmD5Cki4CFtLfe68KWJEmqPQ4AJUmSzrtpUxobdySEHQk8j8A2EHcEdiSyM9U72Cu2FcDdwAAh9EO8Y/U/DXcwZ+adhBD9sEiSJGWPA0BJklQf5saE3W/bgeHhFpLYSgwtQBvQTP0M+MbjCQILIVxPml5Pwt8ZmX4j+e2WmUaSJKm6OQCUJEm1JcZA98BOhGQ3oJlAG9DC6kHfZAMV1TAwSODvEK8H/s6yxhs4fOYTppEkSaoeDgAlSVJ29fU18ODWLSS8GOKeEPYE9gA2Mk7FpMBtwFXE2EfCH2lv/adZJEmSKscBoCRJyo7ege2BlxHDS4GXAi8GJhmm6t0J/NGBoCTVkK7+acDWhGTL1Q/ESrcghI0IYQowDeImxDAF4hRg49X/jad+jY0JJP/5WpHkqd+zLqsILCZlGYHlEJ6AuAp4nMgKEpYSWUJgBWl8kJA8RIgPkqb3E5MHIH2QLR54iFmzhl14qkcOACVJUrUeWEwgJHtDfDWBl0N4KauftKvs++9AcEJyObOb7zGJJFWJ3oFtgO1JeSEh2YoQtwS2IfLvp95v89T/ZvW2Gg9CfAjCg0QeIMS7IbmDkN5OaLiDxxvv5N07LPeDoFrjAFCSJFWHSxZMYdn0FxNGXkkIrwJeg5fy1osBIt1ELqGz+e8+bViSSqh3YBtGwgtJeCGwPYEXkj71v/BCPLM+AncDdxC4HcIdxHg7pHeQspB82yN+iJRFDgAlSVJlnLWgkU2nv5SQ7kdgP1Zf0ttgmLp3BzCfyMXMuO8vXqolSRvgkgVTWDG5CZJmiG3E0ESgFdgRB3zjFBZBvIEYbyRJbiTJXc9BL7rDv7xS1X9yTSBJksqmq7+VJPd6iPsB/8Pq+wBJa/MIhF8RuJiRkV+Tb1tsEkl6xnZ1M3K5FtK0BUIzIbZCaAa2h6fdY0+l9iRwE3ADcCMhuYGRKbeQ326ZaVQtHABKkqQSHpgsmkzuyVdCsh8xHgQ0GUUbaDmBS4j8jM3vu8wzAyXVnfmDz2NV3IvIXiS0EmkDWg1TtYYJ3EjkSmL4C3HkCi8fViU5AJQkScXVO7A9hLcSeTOwL15qpOK7CziXJHcOc3YumENSzXn6sC+wF5F9CGxlmExLgUHgL8R4JY0jfRy06yKzqFwcAEqSpPHrvXVHYnogxE7gFe5jqIwGiPEcchPOZs6LHjCHpIxuQ18B8cXAnk/9s7Fh6sIg8GcCf2BF8lsObXrIJCoVd84lSdKG6Rp6CSG2E+LBwEyDqMJWQrwMwo+5pflXzA2pSSRV37Yz5kgGmgnJK4nhVRBfzeon70opgeshXA7p5Ty09I8cu/cqs6hYHABKkqTR6+lvIyadBA7FoZ+q1x3E+ANi/KH3W5JUUZcsmMLKaS8lxlcDrwReDkw3jEbhYQK/gngRE5b+hgP3XmoSjYcDQEmStG49Q82Qvh04BB/ioWx5EjiHNJxGvnnIHJJKrqt/M3JhX2J4NatvifFioNEwGqelEH4L8SLS9BL/cksbwgGgJEl6rguv34R0Up7IEXhPP2VfBK4ghh8Qm+aRDyMmkVQUXTEHg3sQ4n6EsB+rH37lwE+lNAL0EePPWNF4EYfPfMIkGg135iVJ0lMHMf0TSMIBkLwT4gHABKOoBg1BPI00/pR822JzSBqzi27ejlW5/UnCG4D9iGxqFFXIMgK/hPhzRuKvyLetNInWxgGgJEn1bl5hZ2I4khjfDWxpENWJh4mcTky/66VUktapa9Fkck++EpL9IO5H5MUeS6v6hMcgdpEmPyPf9Bd76DmfEBNIklSHzr5zEtNWHEiIxwCvc59AdWwx8BMaw1eY3XyPOSQBMP/mrVjVeDDEg4DXAJONogy5iRDPZkXuXA5tesgcwp19SZLqzLxbW0hH3gvhcIibGET6j2XA90kbvkx+5oPmkOpQ78Lnw/ABRA4E3gg0GEUZt4LAxRB/wJyWKwghmqR+OQCUJKnWzY0JuxZeSwwnAG92+y+t0xJCOJ3lK7/CYbs9ag6pxnUN7kCI7QTagZe6jVQNu5kYz2RF47k+OKQ+uXKTJKlWzStszkg8mhCOA7Y3iDSm3eTHiOk3ifFbPixEqjFdgzuQ8FaInfike9WfJ4Gfk4Zvkm8eMkcd7dmYQJKkGnPhwp0YGT4eOBqYYhBpXHvLDxHD59n83u8xa9awQaSM6r11R9LhwwjhEKDNIBIjwEWE8C3am680Rz3s0kiSpNrQVdiLJJwA8VAgZxCpqIaI4dN0NnebQsrKdrF/M5JcHuLheKaftHYh/g34Mje3zGduSA1So4vZBJIkZdjcmLDL4MGEeDIxvMQgUsn3nv9ITD9ER9v1xpCqUF9fAw9t82aI7yRwADDRKNKoDRDil9ns/p971nst7sJIkqTsmRsT2obaCelnILQYRCqrFMJ5JA0nMedFD5hDqgI9AzMhHAm8E9jGINK4/IMYv8bUxh9zwMwV5qgNDgAlScqSrv4JhPA2QvgUMNMgUkV3pR8D5np/QKlCzr5zEtNXdBDi0URe4/GtVPTt3CJi/AIxPZt820p7ZHxpmkCSpMwc5BxLjCcTeJ5BpKpyEynvId9ytSmkMrhw4U6kI/8L8SgiMwwildy/CHyBze77iX/hlV0OACVJqmZd/RPIJe8icgqwrUGkqhUhnEsSP8SclofNIRXZ3Jiwa+FNRN4HYX8gMYpUdrcR46fpaLmAEKI5ssUBoCRJ1eisBY1sNuXthHAqsKNBpIyI3A/xZDpafubBkVQE5y7ciEnDRwPvB3YwiFQVFhDCybQ395kiOxwASpJUTebGhF2GDoX4WQ90pAyL/JrG4WM4aNdFxpA2QO/ANqThWBKOJ7KpQaSqdDlJchJzmm40RfVzAChJUvUc7OxHDF8F9jSGVBOegHAKtzSdxtyQmkMaha6hl5DEEyG2Aw0GkareCPATksZPMedFD5ijejkAlCSp0noG9wa+DPF1xpBqcpf7z5AeRUfrQltIa9E19CqS9KPAW4whZdJiIt9gasOXOGDmCnNU4d6ICSRJqtTBTv8LyCVfIXKI22SpDg6MCB+hveks7w0oPWVuTNhl8M3AJ4GXGkSqCbcS4om0t/7KFNXFgw1JksrtkgVTWD7lA4TwKWCaQaS68ltCw1G0z7zLFKpbXTFHrnAokY9DaDGIVIvifNJ4PPm2f9miOjgAlCSpbPtBMdAz1EGIXwO2N4hUt7vgjxHS42lv/ZktVFfmxoS2oXZC/BzQZBCp5i0l8jVi+kXybSvNUeG9DxNIklQGPf0vheQ0YB9jSHpqT/wXjKTvI9/2iDFU02IM9A6+BfgcsLtBpLpzEynvId9ytSkqudshSZJKZ15hc1K+BBwFJAaR9Cx3E+K7aG+93BSqSd2Ds586429XY0h1LSWGM5nAx5jd/KQ5ys8BoCRJpRBjoKfwDkL4OrCFQSSta40BnMbDS07i2L1XmUM1oXfgZRC+TGRfY0h62hbvHpJwHO3NFxujvBwASpJUbD39e0JyBvAyY0gagz+RJoeSb7rbFMruNnComZB+lkiHx5uS1irQzUj6Hm+DUc7kkiSpOLoWTSa35FRi/DDQYBBJG7B3/hAxvpOO1kuNoWxtA/u3Jsl9HuK7gJxBJI3C3YR4LO2tvzJFOXYxJEnS+M0bfCNpPAPYwRiSxikSwlfZ7N5PMWvWsDlU1c5a0Mjm094L8bPARgaRNHbhZyxdcRxH7L7EFiWsbAJJksahq38zkuRLwDHGkFTkXfU/07iqk9m73m8LVaWewoEQvwVhJ2NIGqdBSA+lo+16U5Ror8IEkiRtoO7BwwjxO8DmxpBUIv8gTQ8m33aDKVQ1evrbiMl3CbzWGJKKaAUhfow5Ld8hhGiO4nIAKEnSWM27bUvSVd8H5hhDUhksJ8Zj6Ww9xxSqqEsWTGH51JMJfByYYBBJJXI5jeGdzG6+xxTF4wBQkqSx6B7sJIlnEJlhDEll9l3S5hPJhxFTqOx6CgcCpwMvMIakMngQOIqOlktMURwOACVJGo2uhVuQG/4ekU5jSKqceBnLG9/G4TOfsIXKomdgJoTTgTcYQ1K5N3rA90innUx+u2XmGB8HgJIkrc+8gdczEv6PwPOMIakK3EKavpl8279MoZLp62vg4a1PAk4FJhlEUgXdDLGdjtaFpthwDgAlSVqbs++cxEYr5hLjR4DEIJKqRuQeQvoWn5aokpg3tDtp+iNgb2NIqhJPEnkXnS3zTLFhHABKkrTGg5+BXUjDecBuxpBUpRZDPISO1ktNoaLoWjSZsPijBD4BNBpEUpWJhPBVRpo+6f1wx84BoCRJz9itiIHeoZMgfh6fcCip+q2C8B46mn9iCo1Ld+EVBP4PmGkMSdW9v86vielh5NseMcboOQCUJOnfuhZuQRg+h8AbjSEpW3v14dO0N3/eEBqzsxY0stnUTxL4FJAziKSMbPgWEUI77U3X2mKUxUwgSRLQO/AaYjgf2NYYkjIpchodzScQQjSGRqVncDfgpxD3MIakDFpOiO+nvfXHplg/B4CSpDo/YI6B3qHjIX4N73ckKft79+ew2X1HMWvWsDG0Vn19DTyy9SeJfNJtn6Qa8D3S9ETybStNsa5dBEmS6tW827YkHT4f4uuMIamG9vB/wUNLjuDYvVcZQ8/R1f8Ckty5EF9tDEk15CpWJrM5tOkhU6xt90CSpLo8ACrsRUIvsL0xJNWcyK+I0zrJb7fMGPqPnkI7gR8S2dQYkmrQbRAPoKN1oSmeywGgJKn+dA+8lxC+hU/5lVTbLied9laHgKJr0WSSxV8GjjeGpBr3MGlyEPmmv5jimRwASpLqx9l3TmL6su9BONIYkupC5HcsnvRW3r3DcmPUqa7+PUiSLmCmMSTViWVEDqezZZ4p/isxgSSpPg6ABndg+vJrHP5JqiuB1zN9RS+XLpxojDrUPXAESXIlDv8k1ZfJBHroLsw1xdN3CSRJqnVdQ68iSXuBLY0hqS5Ffs3UhoM4YOYKY9TDdm/RZJIlp0E8yhiS6loIP2Kze49j1qzhuk/hp0GSVNN6C8cQOR1oNIakOt/1v5QpuTkOAWtcz1AzpN3ALsaQJAB+y/KGTg6f+URd7wX4OZAk1aSu/gnkku8SOdYYkvSf3f8LuKXpUOaG1BY1qHfgEGL4MTDVGJL09M1f/Bsj8U3k2x6p2wR+CiRJNef8oRlMSHuB1xhDkp7je3S0vN8MNaQr5sgNfYEYT/YYT5LWaoDG8HpmN99Tj2/ejYMkqcYOgvpfRJL8EmgyhiSt1al0tHzWDDWx3duMJPk58AZjSNJ6DdEw/HoO2nVRvb1xB4CSpNrRXXgFgYuALYwhSes9FDiBjubv2iHDegZ3g3ghsKMxJGnU/kma7ke+7bZ6etOJy12SVBN6Bw4hcAUO/yRplOK36B7stENGdQ/OhnglDv8kaay2J0n+wLxbW+rpTTsAlCRl/Pg1BnoKnyGGnwOTDCJJYzgWCPFndBX2NUXG9AyeQIjzgGnGkKQNsi3pyB/o6t+jXt6wlwBLkrKrK+ZIBr8P/K8xJGmDPULCy5nTcqspqlxfXwMPb/VdCMcZQ5KKITxGGg8g33J1zb9TF7YkKZMuWTCFFVMvAN5iDEkar3g7K3Mv49Cmh2xRpeYVNifSS8QzNiWpuJ4k8kY6W66q5TfpAFCSlD3n3bQpExsvAV5pDEkqmj+Rpq8n37bSFFXmwoU7MTJ8GTDTGJJUCuExGHktHW3X1+o79B6AkqRs6R3YnomNV+HwT5KK7TXkkjPNUGV6BvdmePhKHP5JUgnFTQjJb+nqb63Vd+gAUJKUHV39rcRwJdBsDEkqxfEP76a7cJIhqsS8gddD/D2BrYwhSSXfBs4gSX5L7601+XR1LwGWJGVD78CLieHXwBbGkKSSSonJW+hsuswUldzuFd5F5AdAozEkqaz+RYivob31n7X0pjwDUJJU/br7X00Mv8fhnySV5xghpOfSNbiDKSq13Rv4NJGf4PBPkirhBUQuo2thTR17OACUJFW3noEDCMlvgI2NIUllsxkJ8+haNNkUZRRjoLvwdUL4LF6tJUkVFFpIhi+nq3+zWnlHDgAlSdWrZzAP4SLAA1BJKru4B8mTp9uhTPr6Gpg3+H8EPmwMSaoKu5FLfklX/7RaeDMOACVJ1al34BCI5+HlT5JUQeFIegvH2KHELl04kYe3/gWRI4whSVUk8nKS0EVXzGX9rTgAlCRVn96BdxDDeUCDMSSp4gc/36VncG9DlMj8weksHb4MaDeGJFWj8CaSwjcy/y5ckJKkqtJbOJTIOUDOGJJULeLtLG98MYfPfMIWRdR1+8bkVl5G5OXGkKSq9wE6WjJ7awzPAJQkVY/egaOI/AyHf5JUZcJOTB4+zQ5FdOH1m5Cs/I3DP0nKjG/TUzgws1tyl58kqSr0DB4J8UdumySpqg8f3kFH87l2GKfzbtqUiY2/AfYxhiRlypMkyauZ03Rj5rbgLjtJUsV1F+YQuADv+SdJ1W4xCXsxp+VWU2ygroVbkAxfDuxmDEnKpLtJk5eSb7o7Sy/aS4AlSZXVU9ifwPk4/JOkLJhG5Hy6+ieYYgOsHv79Hod/kpRl25KkF3LJgilZetEOACVJlTNv8LXARcBEY0hSRkT2IiRzDTHWbV5hc5Lh3wG7GEOSMm8fVkw9hxgzc2WtlwBLkiqjp/+lkPwOmG4MScqclDTZl3zTX0wxCl23b0yy8nd4zz9Jqi2BT9De8qVsvFRJksqtZ3A3iH3AZsaQpMwaIp22J/ntlpliHc5duBGThn8LvNQYklRzUpL4Rua0/q7aX6iXAEuSyqtnYCbE3+DwT5Kyromw+HNmWIdLFkxh8vDFOPyTpFqVMBJ+xvzB51X/C5UkqVy6+l8A4XfA1saQpBoQ+BC9A68xxBpcunAiy6deQmRfY0hSTW8Lt2I4nk9fX1U/1NABoCSpPLqGtiVJ+oDtjSFJNSMhhrPp6p9miqdv82KOJcPnEnitMSSpDkT25ZFtPl/dG2xJkkp+ILRwC5KR3wE7GkOSas6OJMlnzPDvg8AYSIbOItBhDEmqq/X/yfQOHFytL8+HgEiSSqtr0WRyi68g8nJjSFLNGoF0Hzrarq/7Ej2FrwEn+ZGQpHoUHiMke9G+8x3V9so8A1CSVDpzY0Ky+FyHf5JU83KQnEVXzNV1hd7BT+HwT5LqWNyEODKPrkWTq+2VOQCUJJVO29A3gDmGkKS6sA9J4T11++67B44mRp+KLEnanbC46rYHXgIsSSrRgVDhWAJnGkKS6soTpEkr+aa76+pd9wwcAGE+0OBHQJIEpKS8lnzLH6vlBXkGoCSp+HoH3kzge4aQpLqzEcnIN+vqHfcM7g3hAhz+SZL+KyHhbOYPTq+eFyRJUjH1Du1DDF1AzhiSVI9Cnu7CG+rirV64cCdi/CUwzeUuSXqWHRiOX6uarbPLQ5JUvAOhwgsZ4Wpga2NIUj2LBR5eujvH7r2qZt/i+UMzmJBeCezs8pYkrW2DSEzeTGfTZZV+IZ4BKEkqjnMXbsQIF+PwT5JEaGHG1Np9IMjZd05iYnoxDv8kSevZIEL6I7r6N6v0C3EAKEkav7MWNDJpZB6wqzEkSU/5DOcPzai5dxVjYPryHxN5uYtYkrRegeeRhO9U+mU4AJQkjf9AaMbUH0F8nTEkSf/dPrApE9JTa+59zRv6DHCoC1iSNHrhcLoHOyv6ClwIkqRx6S58gsAXDCFJWoMRUvYk33JzbWzzBg8jxJ95HCVJ2gAPsjJp5dCmhyrxzT0DUJK04eYNvpHAZw0hSVqLHAlfq4l30l14BSH+GId/kqQNswUT0i9W6pu78ZIkbZgLCy8k5VoiM4whSVqnmO5HZ9sVmX39vQPbE8O1wBYuTEnSOKSQvoKOtmvK/Y09A1CSNHZdiyYzQq/DP0nSqITky8SYzZMPuhZNhtCLwz9J0vglkJxBV8xV4BtLkjTWrceSs4EXG0KSNEp70zs4J3OvOsZAbvFPiOzlIpQkFcmLSYaOKfshnN0lSWPSM/gRiIcYQpI0Rl+kr68hY9u8jxN5m4tOklRUIX6BebdtWc5v6QBQkjR63f2vg/hFQ0iSNsDOPLLVOzPzansK+/ugK0lSSUQ2JV35pXJ+Sx8CIkkand6B7SEs8L5/kqRxHH4s4smJO/PuHZZX9cvsGmwiidcAG7vMJEklEom8is6Wq8rxzTwDUJK0fmffOYkYehz+SZLGeayzHdOXH13VL/GcG6eSxF4c/kmSSisQOLNct8dwAChJWr+Nlp8B7G0ISVIRfJRLF06s2lc3ZcIPgDYXkySpDHbl4W3+txzfyAGgJGndegsfIPJuQ0iSiuT5LBl+V9Vu8+BQF5EkqXzip7lkwZRSfxcHgJKktesq7EXka4aQJBVV4BN09U+oqtfU0/9SIl934UiSymwbVkw9vtTfxAGgJGnNuvqnkXAeMNEYkqQiewG5pHrOtJtX2BySC4AJLhpJUvmFj9LVv1kpv4MDQEnSmuWSM4EmQ0iSSiLGT5XrxufrNDcmpJwPbO9CkSRVaKO4CSE5qZTfwQGgJOm5egeOInKYISRJpRN24pGt8xV/GW2FjwBvcHlIkiq7WeSDdA1tW6ov7wBQkvRMXf2txPBdQ0iSSi7yUWIMFfv+vUP7EMJnXRCSpCowmST9eKm+eLCvJOk/zr5zEtOX/xXY3RiSpLJIwuuY0/z7sn/frts3Jll5PbCDC0GSVCVWkWto4eCZtxf7CzfYVpL0H9OXfweHf9JoLCPyKIHHgEeJPEbC0jX+zhgnQJgKTAO2BLYApptQekrKh4HyDwCTlWfg8E+SVF0aGVk1F3hHsb+wZwBKklbrGcxDvMAQEiPAXcAdEO4gxjsg3kHM3QHD/2LahEc5YOaKcX2HSxdOZHE6gwZmMJJuBexAoIlIC4GdWf0wgpyLQnUikqa7kG8bKNt37B44mhB+aHppTNODh4jcS+RfhHg/hMcIPEGMTxB4gjR54qkf6WUkcfnT/lxgJNmEwERCnELKRhAnE8KWwDaEuBUxbAE8D/+CTAJISdNdi71ddAAoSYLeW3ckjvwd2NgYqjPDQD+EBcR4LZEFkN5Mvm1lRV/VpQsnsnh4Z3KhiTS+mIRXENkHmOIiU20OFsKPaG/+37J8r67+VpLkWn+epDX+MC6COAQMEmMB4hCRf7Jkyl28e4flZfj53AwaXkQufREwkxhfBKEV2AWY4PJR/fwocjbtLUcW90sqm+YVNicNnRAPempluDWeKSBVaHgQ/khI30F7672ZfAdnLWhkxpS/EMNLXJyqA09A7IOkb/XAb9r15LdblolX3tfXwMPb7AG8ghBfTgyvhLidi1Q1YjmNwy9k9q73l3a4sGgyyeJrgF1NLsXbCeFaItcS02uZkLuB2c1PVu3+6qaT2wi5PSHuSWAfYG+8rZlq10oaww7Mbr6nWF/QAWDWdMUcSeF4SE6BuIlBpGrZf+IbdLaclMnX3l2YS+BUF6Jq1AghXkfKbyH+lhkPXM2sWcM18+4uXLgT6aoDScOBBF4NNLrIleGN6dfoaD25pN+iZ+D7EN5ja9WhFYR4LWn4MyR/Jg5fQ77tkWwfG/dPIySvIGFfIvsC++BZgqqpzWL4Kp3NHy3Wl3MAmCVzY8Iug11AuzGkals58yU6Wz6Rudfd078nJNc4NFCNWUbglxB7CeFy5rQ8XBfv+sLrN2F44hsJ4UACbyKyqR8FZcxycrRwcMs/SrPNK7QDPWZWnVhJ4GoIl0P6J56Y/LeyXMJbSfMHpzPM/sT4FuAAVj90S8qyx1ne8AIOn/lEMb6YA8BMHagXPgOcYgipCnewiLvQ0bowU6/60oUTWTp8LV4GpZr5OeQ3xHABcWQ++bbFdV2jr6+Bh7bclyQ5gkg7MNWPiDLidDpaPlD0r9rV/wJyyQ0OxlXjBon8DvgtMf1DXW8L58aEtsGXAXMIvA3Y1o+HMinyETpbvl6ML+UAMCt6B95MDBcDiTGkqnMqHS2fzdyr7i58kcDHXXzKsBRCHyH9OcuH53HYbo+aZA3mD05nFZ2E9N2r7xvo/p+qWVhEe9P2hBCLd/AUA72DlwH721c1ZgT4KzFeQsjNp6Np0CRrMDcmtN76CpK0k8ChRGYYRRlyN2m6YzEeUOcOYBb0DmxPDNcBmxtDqjo3kab7VPyJoWNfr7yYGP6Kl/4qmx4HLiBNv0O+bcAcY9DV/wJCeDshHAvsYBBVpScnTS7qpYq9hWOInGVY1YjlEH4N9JKOXJr5+/iV29l3TmL68oMhHAfx1QZRJsT4Tjpbzxnvl3EAmIUV1EbL/0JkL2NIVWcYwsvpaF6QvR2fZX+H0OIiVMZcA3yfJyddUPP3MSq1rpgjN3QwMZ4EvNQgqiLL2fy+6UV7WM/qv0i/GZhuWmXY6jP9AucwMuEC8js9bpJibAsHm8jxbojHeHsAVblbaG/ebbxnxzsArHY9Az+GcKQhpCoUwldob/5Y9tYrha8BJ7kAlRErCZwH8XTaW/9ujhLo7n81IXwYwoF4qxFVfNvKebS3HF6UrxVjoHfodxBfZ1hl1LXE+H/kwgV180CrSpg/OJ2V8VgCJwLbGERVKSYH0Nl02fg2sarmg/T/BX5gCKkq3Uo6bQ/y2y3L1KvuKrychD8DORehqtwK4Kc0DH+eg3ZdZI4yuHDhTowMHw8cDUwxiCrgDtL0leTb7ivOvvTgcRDPMKsy5hGghzT9Pvm2G8xRzv3k/gmE8DZC+CSws0FUZX5JR8uB4/kCDgCrd+WzB0lyFTDZGFLVSYnp/9DZ9udMvepLFkxhxdQbgJkuQlWxJwnhDELDN5nzogfMUQHzbtuSOHwiMb4fnx6ssgmXkoZjyDfdXZQvd2HhhYxwMzDNtsqASKSPwBlsft/8ol0Crw3T19fAI1u9nRg+g/fLVfUYITS8kPaZd23wltaGVei8mzZlYuN1rmykqt1FO43OluMz97p7Ct8BjncBqko9AnyHFatO82m+VWLebVuSrvoY8B78C0mVaosKvyPE79Le+qvifdUY6Bn8DYHXm1hV7kng56ScTr7lZnNUmbMWNDJj6rtJ+SyBrQyiigvh07Q3f36D/7gFq8zcmLBL4ZcQ3mQMqSr9k8awK7Obn8zUq1596e9f8P5eqj7LieG7NCz7Egfv+Zg5qtD8weexkk8S4jFAg0E0TsuAPwG/JMRLaG/9Z9G/Q/fAewnhe6ZWFR/FLyLE77Cs4YccPvMJe1S5cxduxOSRk4jxw3iLDFXWP7ileSfmhnSD1jz2qzI9hc8ApxhCqkoReBMdLb/J1Kvu62vg4W2uhbiHi1BV9fMU6GEkfJR8853myICuwSaS+F3gDcbQGIwQuAHC5ZBezhOT/1LSp3h3De5AEm/Ep/6qOt1E4HtMbvgpB8xcYY6sbQeHtiWJX4L4DmOognvQ+9PZ8tsN+aMOAKvJvIHXk4bL8Ob8UpUKP6aj+ejMvezewoeJfN3lpyr6WbqCkJ7sU30zqqdwIHA68AJjaA1SYBD4CzFcTmz8LfmdHi/Ld54bE3YZvAL4HxeDqsw1ED9Le8tlhBDNkXHdhbcQ+C7eskuVEOmhs6Vzg/bArVctB+gD20NYQGSGMaSqdC8rVrVl7t5kvQufTxwewDMhVB17LAUIH8rcWbR6rq7+aSThaxCOdX/SH2xgALgCYh8rhv9YsW1lz+B7IH7fRaKqEeLfiHyGjtZLjVFr28FFk0kWnwJ8BE/gUXmtJGncbkMelucOWzU4+85JbLT8L0T2MoZUtTtwc2hvvTBzr7un0AvMcQGqwpYR+SpTG77kJU81prvwBgI/AbY1Rl25A8KVhPgXaLh0PE8kLN7B+MItyA0PEdnUxaMqcCMhfrKoD7dRle5r978Ukp8CTcZQ2UQ+QmfLmK/wcgBYFSuNwR9BPMoQUtX6OR0th2Zv3TJwAAR3PFXpPZTLCA3vp33nO2xRo7r6NyOXnEmk0xg16y4Cvyfye9K0j3zbv6pvm1c4G3iXi0pV8LPyOUaaf0w+jJijTpx95yQ2WjGXGE/CswFVHrfS3tw81lsKOACstO6Bownhh4aQqlTgIUJj24acYl3ZA/JFk0kW3wLs6EJUhdxLjB+js/UcU9SJ3sIxRE4HGo2ReQ8C1xDj6vv4dTb/varvW9Y19CqS9E8e26iC+4uPkvJFFk86vaQPuVGVH9sX/ofA+cA2xlDJxfQ1dLb9eWyrKlXOvKHdSdOrgcnGkKp1xRrfTmfrLzL3unsGPg/hky5AVUAKnM7yhk9z+MwnzFFnugr7ktAFbGmMTHmcyB8J4fek8fd0Nt+SmQcV9PU18PDWC4DdXYyqxJ4ihHNJGk7K3F8Wq0TbwYVbkAz/DNjfGCqx79HR8v6x/AEHgBVbMfRvRpJcB7zQGFLV7tJdTGfL7My97p6hZkhvBCa4EFVm/yDlXeRb/miKOrb64UPzgRcbo2qtAK566oncVzDScm1mL1fsKZwIfMNFqgr4OynvJ99ytSn0zGOIGOgpnEwIX8BLglU695E2P38s2+8Gm1VIknwch39SNesnpu/O5k5H+j2Cwz+VWaCbZPkxdOz5mDHqXPvMuzjnxtcwpbEbwpsMUjXuAC4nhstZkftNTZyhO3/weayKc120KvMG7zGIJ3NL84+ZG1J76LkfkRCBrzBv4O/EcIEPJ1KJbE0YeAUw6suAHQBW7gj9YE/AlKrWVTSGTma3PZK5V95bOJTIa12EKqP7iPwvHS2/NIX+44jdl9DVfxC58BMihxmkIm4jcAWEywmxjzktD9fcO1zFN4HpLmqV0S8JueOq4snXqn5zWn9HV/9LSJJLgGaDqOhC0sEYBoBOoCqlZ/A4iB8DtnM5SNWyAuVRYvgGm9/7FWbNGs7c61/94I9B4AUuTJXpZ6abFcl7ObTpIWNojWIM9A5+A/iQMUruAeAKQrwCuJz21n/W9LvtHdiPGH7nYleZ3EcIH6C9uccUGrPzbtqUCY09BP+SXkV3L7c0P3+0ZyM7eKq0s++cxIQni/MQkMmNCTG3cWl35FdtTJokJfwO08jF0j09MA2TIJTuoSshNhBK+DfRKQHiJiVdxknYCELp7lWRxikEJpbwHUwkMGVsn2seJcS/sayxO9OXRHUXPkHgC65YVQaPEziZ9pYfmEKjWz8NfI4QPmWIoloKXEWMqy/rHWi+vm4uR7x04USWDt8INPkxUMkFfsHyVe/lsN0eNYY22FkLGpkx7QxiPNoYKu46KryK9uYrR7c6kyRl3+onji0ENjaGSuzvpKGDfPOdptCY9A5+lhg/bYgNNkLgBgiXQ3o5kxv/zAEzV9RliZ7BT0L8vB8JldgTBD7iX3apqLoHPkoIXzaEiiaGb9PZPKorLRwASlJNHAwVTgfeZwiV2A+Y0nB83Q4dNH69hS8Q+YQhRrdLD9zMvy/rHYl/JN+2uO6rrH7wx63AVD8iKpnAHxlJjyDf9i9jqPj77YMfgfgVnMeoOCusRbQ3bf/Uw2fWs2qTJGVb12ATSbwZaDSGSmQ5MX6AztYfmULj1j34LUL8oCHW6F4CfwEuh4ZLfdDAGvQO/tBL6FRCkRC+ykjTJ8mHEXOodNvCgSMI4cf4YFYVQ4gvp731r+v7bX7YJCnrkvQrEBz+qVT+RUg66Gi61hQqio6mE5k3uBmRI9xh5yGgjxiuJI1/Id9ynR+QdejqbyXGdxlCJfIASTycOS0+XEal19l6Dt2DI4R4DpAYROOShg5gvQNAzwCUpCzrHXgNMfzRECqJyK9Yueod3vhcRXfWgkY2m3oxgTfW2Tuv3wd3FEN3YT6BtxpCxRf+TCNvY3bzPbZQWfUMHgnxRzib0fj009Gyy3rXdHaSpIyKMTCv8FdieIkxVOxPFyGcwpymL4zmfiLSBunqn0YuXFHj67Bh4Br+ex+/v5JvW+nC3wDd/a8mJH8yhErgB6TpB/zZVMX0DhxFDD/E+YzGIzRst75bh/gBk6TM7iwUDiVyniFUZCsJvJv2lvNNoZKbV9icNP4ZQksNvas7gNVn+DUs+x0H7/mYC3qcYgz0Dl4FvMwYKqJVEI6no/lMU6jiegonAt8whMbhXXS0/HRdv8EBoCRlUVf/BJIwAGEnY6hoAo8ywsHkW7ysXGVcnw1tS5JeCWyf0XfggztKrXewgxi7DaEiepAQO2hv9axSVY/uwa8Q4smG0AY6n46Ww9a9qy9JyuDB0MAHieFbhlAR/YMkdwBzdi6YQmU379YW0pE/A5tX/Wv994M7Uq4gpleQb7vNBVhCZy1oZPOp/cBMY6hI7iDhTcxpudUUqioxBnoL50A43Bga++eH++lo3mZdt+9xAChJWXP2nZOYtvx2As8zhorkJtLkAPJNd5tCFdM7tA8x7QOmVtkr88EdldRTeD9wmiFUFCH+jTDhQOa86AFjqCp19U8gSX4NzDKGxixJ9mBO041rXQVaSJKydjA0eALEbxtCRfJbGkMHs5ufNIUqrnfgzcRwEdBQwVcxQuAGCJdDejmTG//MATNXuHAqYP7gdFbF24AtjaEiuISJS97GgXsvNYWq2rzC5qRcBexsDI1NOJmO5q+t9VcNJEkZ4tl/Ku5Owo9Jm44lH0ZsoarRXTiWQDlvyh+BfmK4HOIVTAh/dCBeJXoHP0uMnzaExr+54xxGmo90e6fMWH1rjGuA6cbQGPZofkdnyxvWviqUJGXoYKjwASLfNYSKcDB0FnOaj1vXfUKkyq3rBk4mhq+U8Dv8E+IVhHAFDcNXMHvX+41eZc4fmsGE9E5gmjE0ziPiM7ml5X1euq/sbQsHO4ixC+c2Gr3lpNM2I7/dsjXv/kuSsuHShRNZOnwb8HxjaJx+yC3N7/FgSNV94FP4MJGvF+mrPQxcTYx/IYbLybdcZ+CqP/D9MjF+1BAap+/R3vwB/7JLmdUz8FUIHzGERi2Jb2BO6+/W9EsN1pGkjFi66mgIDv80PjGcQUfT++nwYEhVrr3lG3QPLCOEbwONY11jAn+GcAUhvYKbW25w4J0hXQu3IA6/zxAa3/aOL9HZ8glDKNM2v/8TPLT1XgReawyNSsq+wBoHgJ4BKElZ4Nl/Ko7TaW8+3jMhlCm9g68kxp8BO6zjdw0DfyOEKxiJV0B6Nfm2lcbLqO7BrxDiyYbQBovh23Q2f8gQqgnzbtuSkVU3EdjKGBqFy+loef2afsEBoCRlQc/gcRDPMIQ2/GCI0+hoPsHhnzLprAWNzJjyNmLyZog7AiuB+4CbCPEqGpJrfHBHjVh977878Mb3Gs/2rrPleEOopnQPzibEiwyhUXicW5o3W9OVDw4AJanadfVPIMndBnE7Y2iDD4Yc/knKAu/9p/HwAVeqZT2DP4J4lCG0XkmulTk7F57zny0jSVW/Aj/S4Z/GcTR0Af3NH/RgSFLV67p9Y2J8jyG0YeJ8Rprf5/ZONWvpihOAWw2h9a8OR166xsNKy0hSNR8MxRxEn/ylDdXHlNw7ffiBpEwIK98HbGwIbYA/MKXxEPJhxBSqWUfsvoQQjgTcr9O6xfiSNf1nB4CSVNUHQ4OzgR0NoQ3Qz4pV7Rwwc4UpJFW9s++cROADhtAGuIUVq+a4vVNdaG++ksAPDaH1HER6BqAkZW/dzQlG0Aa4mzQ9gMN2e9QUkjJh+rKjgK0NoTHuKC2iMezv9k51JVn+MeBeQ2gddqVr0eTnfHTsIklVqnfgxcBrDKExeoIkeTP5tn+ZQlImdMUc8CFDaIyWEUI7s5vvMYXqysF7Pgbhg4bQOjSSW/LiZ/9HB4CSVK1i4oZdY7WSmM5hTtONppCUGclgHsJOhtBY9pKIHE5707WmUF3qaO6CcKkhtPa1ZHzOZcAOACWpGvUObAPxEENoTALH0tl2hSEkZWvdFT9oBI3tMxNOobNlniFU11JOBFYZQmtZUT7nQSAOACWpOjfo7wUmGEKjF8+kveX/7CApU7oLryCGlxhCo9/c0cOcpi8YQnUv3zxE5ExDaC0ry12f/V8cAEpStbl04UQI/2sIjV64gXT6iXaQlL3VF667NBYLiROOJoRoCglYuepU4BFDaA1mctaCxqf/BweAklRtlqx6B4GtDKFReoSUOeS3W2YKSZnSO7A9MNsQGqXlkB5CfqfHTSE95bDdHiXyJUNoDRrZfPoz7q/rAFCSqk0IHzCCRiklCYeRb77TFJKytwYLHwAaDKFReg8dbdebQXqWqQ2nAf80hJ4jpq1P/1cHgJJUTeYNvB7YzRAa3UY9zmVO868NISlzuhZNJuFIQ2hUAufQ0fJTQ0hrcMDMFRC+bAg9d90ZWp7+rw4AJamapOE9RtAot+iX0t/iTdAlZXQVtuRtRDY1hEbhDpY1eHWEtM5jiJGf4FmAes62NjoAlKSqNK+wOfBmQ2j9G3MeonHVkcwNqTEkZVKS+hdeGo1hUg7n8JlPmEJah3zbSgLfMISeIeIlwJJUlVLeCUw0hNYvHMfsXe+3g6RM6urfgxheYgit/+A1fpZ8y9WGkEbhiUk/BO42hJ6mibnxP3O/4tx0t6t/a0J4CyE0Ac8j0GhnSWWRch+RXvItf6yBd/NOF6jWK3Ae7c09hpCUWUnyXiNoFK4ltnzRDNIovXuH5XQXvk3ga8bQU6bQOrQ9cOfqw4jxmHdrC+nIV4ED8GxCSRUVjqOj+czMvvzeoX2I6d9cjlqPe0nTXci3PWIKSZl07sKNmDR8DzDVGFqHlSRxL+a03mIKaQzOu2lTJjYuch2r/x4mx7fQ3vorGM/QrrfwAdKRG4G34PBPUsXFU7L98kfe7TLUKD4o73X4JynTJg0f4oGpRuELDv+kDXDYbo9C/Jkh9B/pf58EvGGDu55CO5HvgJf6Sqoa0zL7ys++cxIhvM1FqHWLP6Gj9SI7SMq4I02g9biJh5d8yQzSBkoavgtEQ2i1sMN/Phpj/rM9Q83A2Yz38mFJKqbInzL72jdaPofIpi5ErWPDvYh04ol2kJRp825tAV5mCK1DCuEojt17lSmkDTRn5wKRyw2h1YcRcbt//9+xDQC7+qdB2gNMt6Kk6hK7svvSg2dDaD0b7vQE8js9bghJmZYOe7sLrW+n6Ad0NC+wgzTefcd4hhH01IdhAweASe4MoM2AkqrMKlYOX5LJV947sD3EWS5Crf1YiN/T3nqhISRlWl9fA4TDDaF1eJgkfMoMUjF+mpb+CnjQEIINOQOwd+CDEN9hPEnVt07jt6tveJtBaXg3PkhJazdC5INmkJR5j2y1P7CNIbT2/bnwEea0PGwIqQhWX0b/c0MI2JxLFkxh1AedXYWXE8NX7CapKgW6s7mjGwMB/2JF63Im+ZabzSCpBjbWb7eB1rEvdzUdTf9nCKmYP1fxp0YQAKumPh9GMwCcf/NWJHQDE6wmqRpXZ6xYdXEmX3n3rfsAO7oItZaDoUdJONUQkjLvkgVTiMw2hNax0fsIIfjUUqmY2lv/DtxkCDGSbgfrGwD29TUw3HABsK3FJFWlLF/+m6SHuAC1Vmn8lJdCSaoJy6e8FZhmCK1lX66H9uYrDSGVQIjnGUGEZBRnAD609ZeJ7GstSdW7Msvw5b/Q4QLUWvQz4/4fmEFSbWyrw6FG0FqsJMRPmEEqkaSx1wjiqXvwrn0A2D04m8CJdpJUxbJ7+e+8oVcAL3ARas07a+EkZs0aNoSkzOvq3wzY3xBas/h9OloX2kEqkYNn3g54P2ltCWsbAM4r7PzUDSODnSRV7z5jlp/+G738V2tzDXOaf20GSTUhyR2E9xLXmi0hmfBFM0glFsJFRqh7W8GaBoDn3DiVlHnAxjaSVN0bs0w//fdgF6DW/PlIPmMESbWzTotzjKC17Md9hzkvesAQUqnXwyMXGqHureUMwCkTvw+02UdSlcv603+f7yLUGg6GrqNjZ8/+k1Qbzl24EYH9DKE1eJyR9BtmkMqgvfUG4J+GqGtrOAOwZ/AEiO+wjaSql+XLf3PpbBeg1ihlLiFEQ0iqCZOH3wJMNISeI/At8m2PGEIqx89biMBvDFHXtgJo+M+/9g68jBi/ahdJGdlx7M7sa484ANSaPtPX0d78K0NUqa5Fk8k9+UrS8FpCeD6kMyDMIKzjgWpSvUvZ0TuKaw0bvMcYafy2HaSy/txdAfEYO9StzemKudUDwPk3b8Wq0IM36JWUDatI00sy+cp7BmbibRa0xgPl8DnP/qtCXUMvIUlPhsVvJoZJq4cZkf88J80lJq3jeNMEWoMYv09+p8cNIZVzPzPXRzIcXTPXrRwNt2+e0NfXwKqGXwDb2kRSNnYcuSyzl42E8FYXoNbwwbiBjqaL7VBFLly4Ez2F35Gk1wDtwCSjSNK4rSCJp5lBKrP8zAeBmw1Rz1ZtkvDIVicC/2MMSRmxnJiemtlXH3mzi1Br+GB827P/qkjvwFGMDN8APrxAGsf2TlrTB+MntLfeawepEj9+4fdGqGPDySYJaTjBEpIycjBxP5HZ5NtuyOTrnz84HXilC1LP8jBPTrrADFWie+CjxPAjYJoxpHHwIjM91whp/KYZpApJ6DNCPW+X000aSLiXyPOsIW2wJwkMV+Q7R1KgkvdQWU5gWYnf45PAP4A/sHjSBbx7h+WZ/aQMp/tB8F6revZn/P8y/bmuJd2DXyHEkw0hSSUxn3zbbWaQKmRk5G8kPrusboWwSQMj015NbsnLiOxAiA3jO4gJS4msqNgbyqWPESt0wcFIWAUsrth7T5IlhLCyYt9/+fJHK/a9N1q5ggP3XupPtKpeDG8ygp79qSDEs8xQBboHjnD4J0kllPJdI0gVlG+7j57BRRC3M0YdCnGTBvLbLQP6nvpHklQ6+5tAzxD5DZ2tCw1RYV2DTYR4piEkqWRuJt/yRzNIFd/5vBZwAFify34Tz/+UpHLo6W8DXmAIPVNw6FTxfaEYyMWzgcnGkKSSrWs9+0+qDteaoE6lwQGgJJVH7nU20DOFRcSmX9qhwnoH30bk5YaQpJJ5hElLzzeDVAVi6gCwbg89mO4AUJLKY5YJ9KyN8A/IhxFDVNBZCxohfs4QklRS53q/bqlK5JIbjFCv4hQHgJJUal0xR4j7GkLPkOR+boQK23zaURB2MoQklXJ7l/zECFKVmNPyMIGHDFGPwmQHgJJU8h3foT2JbGoIPc21HDzzdjNUUNeiyRA/ZQhJKqkFzGm60QxSFYkMGaEeOQCUpDKsa9PXGkHP/ExwgREqLLf4vcC2hpCkkm7wPPtPqr6fy0Eb1CMvAZak0kvDa4ygp299IfaYoYLmD04HPmYIqfhrN+lplpE2+vAPqerW1dEBYD0KDgAlqdQb2EDwCaN6+saXv9Le+k9DVNBwPJHIDENIRV+/SU//QFxMfqfH7SBVmSQuMkJdrpO9BFiSSurCQhuwmSH0HzF2G6GC5hU2J3KiISSp1NJf2ECqxh/NcL8R6vEYBAeAklTaDWzyKiPoGZveNPaaoYJG+DCwkSEkqYQCjzKl8TJDSFUol3MAWJ8aHABKUmm9wgR6mqvIt/3LDBUyr7A5gfcbQpJKLfRywMwVdpCq0PAqB4D1KXEAKEklFV9pA/3348ClRqig1Wf/TTeEJJVYOuLlv1K16mx9FFhpiLqTcwAoSaXStXALYEdD6D9CeoURKsSz/ySpXB5mxgN/NINUrfujIQKPGaLueAagJJVuFbtqHyPoaXtbj5G2LrBDhax+8Idn/0lS6Ve485k1a9gOUlV71AR1dyziAFCSSriS3dsG+u/xUOwjH0YMUQFd/ZsR+YAhJKks+z8X2UCqeo+ZoO6ORbwEWJJKt5JlLyPov8dD0ct/KyUJnv0nSeWxmHTa5WaQqv44xTMA6+5YxEuAJamUK1kHgHqanAPASujq3wyCZ/9JUnn8hvx2y8wgVbnEMwDrc7FLkoqvd2AbYFtD6Cl309E0aIYKCMnxwEaGkKQyiOFXRpCy8LMaHzNC3Rl2AChJpZDm9jCCnsbLoSrhnBunkvA+Q0hSWUQm8BszSFn4aQ1eAlx/HABKUkkkI7saQf8R4p+NUAGTJxxHZIYhJKksG7sbmd18jx2kLIiP26DurHIAKEml2QnezQb67z5Wcq0RyuzShROBDxlCksq2sfu1DaSMSDwDsA7X0Z4BKEmlWb/iAFD/tpyHFxfMUGZLR44k8DxDSFLZ9n28/FfKzM9reMwI9SY4AJSkojtrQSPQZAit3tbGmzh271WGKKOumIN4oiEkqWyWENOrzCBlhZcA1yEHgJJUdFtMaQImGEKr96/4uxHKLFc4FHiRISSpbNu6q8i3rTSElBnTTFBnQvQegJJUdCNJixH0340tC4xQzoPQGIjhZENIUjm3deGPRpAytcO0tQ3qbZGHJQ4AJanoO8HsbAT9x0i8zghlNK9wELCLISSprPs+fzCClKkf2i1tUHcWOwCUpKJvT6MDQP3bSmDADGXk2X+SVG5LmZzzbHcpWztMDgDr7hgVzwCUpOJvTz0DUP/Z0N7sPZHKaN7A64GXGUKSyrrf81cOmLnCEFKmdlIdANbdutpLgCWpFBwA6t8GTVBGafiEESSp7EeVPv1Xyp6tTFBvq2qedAAoScV0/tAMYDNDaLVwhw3KpKvwcuB/DCFJ5ZZ4+a+UPVuYoN4OS1LPAJSkoprIDkbQf0UHgGU7/sSz/ySpEiZwrRGkzPEMwHoTvARYkoorRgeAevoHwgFgOfQM7ga82RCSVPYjykXMbr7HDlKGnH3nJGBjQ9TbYUl4tMEKqipd/RNI2JOY2xqYYJA6kvAQy3LXcfjMJ7K9H5y+kBhcnlptJHe7Ecrxcxc/TsQfPEkq+wFlvN4IUsZstGwrj1fq0iMOAFUd5g9OZxXHQ/wQsDkh2qTudiCBScNL6Cm8j46Wn2b2faTJ9n5+9ZTlDOx8rxlK7MKFOzEy3GEISaqIfhNIGROSnYger9SdhIe8BFiV1zPUzKr4N4ifBzY3SF2bCvyIrsKu2X0LcXsXo57yD+aG1Awllo58DPAvNCWpIgeUsWAEKWv7TuxshHoUHnYAqMrq6n8RpH8Bmo2hpzQQwuHZXa/yQhehAIh4+W+p9Q5sQ4zvMIQkVchIGDCClLmd1Jk2qEPDw486AFTldPVPIEkuwrP+9Gwhw38rFXieC1BPfRbuNEKp91/D8cBEQ0hSZdbCLF85aAYpczwDsB4tH/YMQFVQLrwXaDOE1rA/OSWTL/vsOycR2dTlJwBCuN8IJTR/cDqE9xhCkirmPo7YfYkZpMxxAFh/lnPE7kscAKoyzrtpU2L4lCG0ZvGBTL7sqSu2cdnpvx9jHjZCCa1Kj4a4iSEkqWL+aQIpY/r6GoAdDFFvwoMADgBVGRMbTsVLf7X2FVQ2B4AhOgDU0z4P6SNGKOXOazjBEJJU0Q2dA0Apax7eageg0RD1trqOd4EDQFVC7607etmW1uPBbK5YcQCoZ+ximaBEHtrmEMAnbktSJUXPAJQyeLzi5b/1ub6+BxwAqhLSka/jTdu1zg1TzOYAMMatXHh6Gs8ALN064sNGkKQKS1afUSIpU3wCcD1yAKiK6C68gsBBhtB69igzegZgmOGy09N4BmBJtiP9rwP2NIQkVfyA8iEjSJk7zvIhnPUoOABU2XcSYiDwbSAYQ+uWPpDRF+59LfVfS1Z5YFSSHZjkI0aQpGpYH2f0ig2pvo/JX2qEulxhew9Aldm8wuHAPobQeiWNWb0HoANA/dtKjth9iRmKrKuwK/AGQ0hSFRiJ/kWXlKn9qP5pQKsh6vH42jMAVdaVzaLJxPB5Q2hUlpDVewBu5sLTU7z/XynkOAnPIpckt3WSNkCyF5CzQz3yKcAq67pmyYnACwyhUVjB4TOfyOQr9wxA/dcyExRZ19C2RN5mCEmqEo0rnzCClCE5L/+tUymTGv4JDgBVDvNu2xLiyYbQKGX3fjIxbOri01NGTFBkycgJwARDSFKVmDjNv+ySsnWs8hIj1KW7OGDmCnAAqHJIV30O2MgQGqUHMvvKo59z/efDsMoGRXTuwo0gHGMISaqePXze9KKVZpCyxAFgfS527vz3/3UAqNKad2sLcKQhNAbZPQMwMM3Fp6c+DMM2KKJJI8cCGxtCkqrGckKIZpAyondgG4jbGaIu3fHv/+MAUKWVjnwLaDCERi9mcwA4NybAFJefnuIAsFjOWtAI8f2GkKQqElhhBClLx+WJZ//V7bKPngGoMujufx2wvyE0xj3KbF4C3DowBZ9Oqv/yHoDFMmPK2/AhUpJUXWJwn0fKkoSXG6FuF75nAKrUOwUxEJJvGkJj/+xwb0ZfuZf/6uk8A7Bo64TkRCNIUvWtnG0gZer4/LVGqFNh5LZ//19X3CqN7oGdgN0MobFumgjht5l85Y0Tprr49DSeAViUbUnhDRD3MIQkVR2PI6WsuPD6TYAXG6JOpZMGXXGr1B4BlphBY3QGHc03ZfKVj6yc5OLT0/gU4OL4kAkkqSp5HCllRTpxFpAzRF26i/xOj//7X3w4g0oj3/YIvYP7Q3w/kRkEpgITxvx1Igkb+uTHyFSSDfqeOWAjF2JZrYDwOdKmL2d3w0qju8L6j+D9IMeta7CJEL2PrCRVp4mrb/njk4Cl6j9OSfbDH9V6NfD0f3EAqNJpb74SuLKu3vM5N04lF8Y+dAwTc0wMGzZ0jOk00tg49j+Y5MiNbOD3ZBoxGfv3DLGBwPRnbpDiEyT8kfaWezO97HMNjcTUn3v9+2fEM0LHK3A8PlhHkqp2z4dfXjcZWGoKqdr3qdL93aWq12OS4ABQKpkjdl/Chl/6/JABMyxNG92u6mkmm2AcLrx+E0biEYaQpGre95k4HQeAUnWbN7ALadjJEHUqiYVn/KtFJKkoJphAT+MZgOM6qJx0FD5ZW5Kq24pkuhGkat+nCm8xQh0bSZ5xBqADQEkqhiR6RrWeJngG4Ibqijki7zOEJFX9zs/GNpCqfZc0vtkIdSuyakX/M9baNpGkIkiD61M9fXu7iQ02UK7wVmAHQ0hSlUviVkaQqti827Ykhpcbom79k8N2e/QZq22bSFIR5KKP1tLTTefShRPNsCHCCTaQpCxItraBVMXS4XYgZ4i6dd1z1to2kaQiiDgA1DOtGtncCGM0b2AXIq8xhCRlYd8nOgCUqlmIhxihrj8A1z/7vzgAlKSirF+T1Ah6hlXMMMJYDybDieDztCUpIxwAStWqq39rIq8yRD1LHQBKUkmMRAeAeqY4soURxrKjunALIm83hCRlxvYmkKpULunEy3/rW8ABoCSVhJcA6zlb2GQ7I4xlR3XkWGCSISQpMweXPrBJqt5jkyOMUNfL/x7aW+99zuGJZSSpCHJh2Ah6Fs+MGK2zFjQS43sMIUmZsiMxetsGqdr09LcBexuijoXnPgAEHABKUnGMxOVG0DPE+AIjjNLmUzuAbQ0hSZkyle6BrcwgVZvkXTaoe1et8ZNhF0kqgoa4wgh61ibWMwBH73gTSFIG5cLORpCqSF9fA3C4IepcytVrPDqxjCQVwbBnAOrZ4otsMAq9Ay8DXmYIScripi7sZgSpijy09VvxCd31bhWTl1y7pl9wAChJxZCb4ABQz/YCuvqnmWF9kqNsIEmZtasJpCoSwnuNUO+fgXg9B+69dI173daRpCIYwUuA9ZzNL0mu2QzrsPrhHwcbQpIyyzMApWrRM9QM8bWGqHNpctXafskBoCQVw/KlS42g54hpqxHWYfOprwU2N4QkZdYudMWcGaRqkB4H+GTuehfWfP8/cAAoScXxjt2WAiOG0LM2s202WOceSqcNJCnTppEMua2TKu3chRsB7zRE3YuE9M9rPTKxjyQVQQgRwpOG0LO2wXvbYJ19Xm8DScr6qjy+3AhShU0aORbY2BB1r0B7671r+0UHgJJUvD3gx22gZwjsxdzotnZNuhZuAbzAEJKU+W2dA0Cpks5a0Ah8wBACfr+uX/SgRJKK5wkT6Fk2pnVophnWtAeyckcjSFJNeJkJpArabMrbIW5nCBHpW+fut4UkqUiCZwBqjVvafYywxjBb2kCSasLOzB98nhmkCpgbE0I42RACUnL8cd2HJZKkIq1ygwNArUF8tQ3WlCW4DyJJtSGwMt3PDFIF7FroBHwQjwBuYE7Lw+v6De58S1Lxdn8fMoLWYJYJ1iCHD82RpNrZB/KhTlK5zY0JMXzaEALWe/kvOACUpGJ60ARag5l0DW1rhmfvpKS3G0GSakXYjxiDHaQyaivk8ew//VsSf73e32IlSSqSGD0DUGs5Lor/Y4RnaW/9J3CnISSpJmzNvMKeZpDKpK+vgRBONYSe8iSTG/+8vt/kAFCSiiUkngGotWxt4xuMsAaRXxhBkmplnR5mG0Eqk4e3ORpoNoSe2qe+nANmrljvIYmlJKloa14HgFrbRvlNdMWcIZ7dJf0u4MNzJKk2HGQCqQzOuXEqxFMMof9I4q9G9dssJUlFEhwAaq22IAy+1AzPkm+7D8L7gWgMScq83ei9dUczSCU2dcJJwDaG0FMiI7lfj+Y3OgCUpOK51wRah7eYYA06ms+F+GEgNYYkZf0wNG03glRC8wefR+TDhtDT3EC+6e7R/EYHgJJULCPxXhxiaG0C3htpbTpav0XkTcA/jCFJWRYPs4FUQsPxq8B0Q+i/xxjhl6P9rQ4AJalY8m0riXgZsNamlZ7B3cywFp0tv2VKQzOE44BrDCJJmbQ7XYVdzSCVQO/gK4kcagg9Qwi9o/2tDdaSpCJKuIvIVobQGsX4NuAmQ6zF6qeXnQmcSVf/1oTcq0nYlZjuAGFrYDKBSYaq5Z+RsCXE7QyRhWUFBDNoDXLhMOBjhpCKqCvmiIPfc82rZ7mTOU03jvY3OwCUpGJKuZvAXobQGgUOJcZPEoIPvViffNt9QPdT/6geXLpwIkuH/wY4AMzG+kxasxgPp6/vU8yaNWwMqUiSwvEQdjeEnrXC7RnTx8hgklTUI6K7bKB12J6ewZebQVqDJSNfBrxMXsq+bXlomzebQSqS3oHtIXzWEHqONOcAUJIqJsRFRtB6PiNHGUF6lu7CGwjxBENINbOtO84IUpHEcDowzRB6lrvo3PnasfwBB4CSVNwN9O1G0HqOig7h3IUb2UF6ynk3bUoIP8KLSqVa8nouXLiTGaRx6h14B/AWQ2gN5o31tkIOACWpmOLIQiNoPaYyefhtZpCeMqnxLB/8IdWchOFhzwKUxqN34fMhfMcQWqMQusa+YpYkFdNtrH42orR2kWONIAG9A0cR6TSEVIsHpxzDhddvYghpQ/YVYyCu+gGRTY2hNfgHc5quGusfcgAoScWUb1sM3G8IrceL6R14jRlU1y5cuBMxfMsQUs2aTjrxGDNIG6B36HgIbzKE1uKcsV7+Cw4AJan4QrzNCFqvyIlGUN3q62tgZPhcYLoxpFre1oXj6eqfYAhpDHr62yB+yRBaq4TzNuyPSZKKLHgfQI3mc/JWeoaa7aC69NBWpwIvM4RU87YlF95hBmmULlkwBZILgMnG0Fpcw5yWWzfkDzoAlKRiS/EMQI1GgJHjzaC60zv4SkL4uCGkOhHDpz0LUBqllVNPB9oMoXU4d0P/oANASSq2EBwAarQfliNXP+FNqpdd1oUbEePPgJwxpLqxPUnuSDNI69EzeDiRdxtC67CStOGCDf3DDgAlqdhC6gBQozWROPxRM6huTB4+DdjBEFK9iZ/k7Dsn2UFai67CrhDPNITWvSrlYvIzH9zQP+4AUJKKrSHxHoAai6M9C1B1oafwdiJHGEKqS89n+rLjzCCtQVf/ZiTxQmCqMbQePxzPH3YAKEnFNrv5SeBfhtAoTSKu+oQZVNN6b90R8MwGqa4lp3D+0Aw7SE8zNyYk4VwIOxlD63En/c2Xj2stbENJKoV4vQ00euF/6en3hs+qTX19DTByLrCRMaS63jfahAnpqXaQnmaXwa9AeJMhNIrjhR8zN6Tj+QoOACWpJPu44QYjaAwaiMkXzaCa9PBWXyTyckNIAt7DvIFdzCABPYNHAicZQqMwTBr+b7xfxAGgJJVCiDcYQWP7zPBWegf2M4RqSnfhDRA+bAhJT2kghtOJMZhCdb59/B+I3zeERif+inzT3eP9Kg4AJakUAl4CrA3YtidfW325pFQDuvq3Bs5xf1PSM7d17Evv0GGGUB1vH1sJXARMMIZGJUmKch9ld8gkqRTmtPwLeMQQGuNR0R48stX77aDM6+trIEkuILCVMSQ9R4jf8oEgqktdQ9uSJL8CNjaGRmkhNzX9thhfyAGgJJVkxzZE4EZDaMxi+CxdQ9saQpn28NZfBV5jCElr3tYxg4nxS4ZQXTl/aAbJyO+AFxpDY1hhfme8D//4NweAklQ6XgasDTGdkH7bDMqsnsE88CFDSFr3MW08ip6BAwyhunDJgilMSOdDaDGGxuAJljf+rFhfzAGgJJWKDwLRBn926KB3sMMQypyuwSaIPzSEpFFt7Qg/4LybNjWFanvbuGgyy6deArzCGBqjH3P4zCeK9cUcAEpSqYyEG4ygDRbj9+hauIUhlBnzB6eTxIuAjYwhaZS2ZWLj6WZQzerqn0BY3E3gtcbQGKWEXFHXjw4AJalUtrivACwxhDbQliTD3zeDMuHShRNZGS8Cmo0haYwOpafwdjOoJreNSe5CAm82hsYuXEz7zncU8ys6AJSkUpk1axi42hAah3Z6B95hBlW1vr4Glgz/3LMbJI3DWcwr7GwG1YxLF05k6XA3RO9zqQ2Txq8W+0s6AJSk0vqzCTQuMXzPgyJV7+czBh7e+ocEDjaGpHGYTkoPXYsmm0KZd8mCKSwdng8caAxtkMAfybcU/UQSB4CSVNKVd3AAKA+KVLt6Br8GvMsQkopgV5LF3zaDMu3chRuxYtqvgf2NoQ0Wi3/2HzgAlKTSmrD4GmClITT+g6Inv2EGVZXewU8R+LAhJBXRMfQWjjGDMmleYXMmDV8O8dXG0DjcSHvLZaX4wg4AJamUDtx7KYHrDKHxC8fRU3inHVQVegrvJ8bPGUJS0UVOo7vfAYqypXdge9L4Z2AfY2h868DwNUKIpfjSDgAlqdRSLwNW0ZxF78DLzKCK6hk8DviuISSVyARC0kPvwPamUCbMG9qdNFwFocUYGqc7mXHvBaX64g4AJankogNAFctEYriQ3oXPN4UqomfwIxDPAIIxJJXQlsRwCV23b2wKVbXu/teRpn8i8DxjaNxC/AKzZg2X6ss7AJSkUlu56kogNYSKZGvi8DzOuXGqKVTeg5yBT0NpbkotSWuwK7mV8zn7zkmmUJVuF48mJJcCGxlDRfAPRuLPSvkNHABKUqkdttujwC2GUBHtw5TGbvr6Gkyh8hzkFOYSwmcNIamsIvsyfdkv6Io5Y6hqdMUcvYNfJoQfAhMMoqIIfIZ8W0kfHukAUJLKswfbZwMVeS/hTTy8zZnE6KWYKq2ewtcInGoIjdJKAo+aQUXc3s0mGfyO2ztVha7bNyYM/pIYP2oMFdFCNrvv3FJ/EweAklSendfLbKDii0cxb/DzdlBJnLWgkd7CT4CTjKHRr5bCj4DLDaEiex89Q980gyqqa7CJZOVVBN5oDBX3UDF+rpT3/vs3B4CSVA5TGv4ALDaEin+wzSdW35tNKuZBTv80Np8yn8i7jaExWE6S+xKR35lCJThA/iA9hW8YQhXRM3AQSfwb0GoMFdlCNrv/5+X4Rg4AJakcDpi5gsjvDaHSHBSFz9Jb+LghVBTzB59HkvwJwpuMoTH6Pu0z7yLE35pCJXIi3QOfM4PKpq+vgZ7CNyFciA/7UCnE8MlynP0HDgAlqXwSfmUElW7ngS/SXfBSTY1PV/8erIp/A/Y0hsZoCY3DXwGgvfWfEG4wiUoihE/RUzidudFjWZXWhYUX8vDWfwA+ZAyVZn0W/0ZHU0/5DkclSWXScCkQ7aDS7UTwNXoKnzGENsi8wTeuPvOPbY2hsa9/wunM3vX+//6HeKFRVELvY5fCT+nrazCFSqJ74AhGuAl4pTFUum1n8nFCKNvxoQNASSqX9pl3ATcbQiV2Ct2D3/PMCI1ajIGewRNI48XAdINoAyxmJPfMe7OlOABUqY+cD+fhrS/g7Dsn2UJFc95Nm9Jb6CKEn7pNVIn9kjnNZb1FlAcHklTWfVV+aQSV/nMW38uug2fT1T/BGFqnrts3pndoHsRvA40G0Qb6JvmZDz7jv+RbbgZuNY1KbA7Tl/+B+TdvZQqNf5tYeDkTG68j0mkMldgISSz7/bsdAEpSWYVLbaCyiBxBkvye84dmGENrNO/WFpIVV0M8yBgahwdY3rCWJ7PG+eZRGbyUVQ1XM+/WFlNog/T1NdBdmEvCn4EdDKIy7Kj/lDmtt5T7uzoAlKRyGmn6K/CwIVQmr2RCejXzCjubQs/QPXgY6ci1EDxg1jiPYTiFw2c+scZfS4OXAatcdiCOXElPYX9TaEx6+tt4eOurCZwK5AyiMlhMmjulEt/YAaAklVM+jICXAausXkTkSrr7X2cKccmCKfQWziTEc4GpBtH4xAIz7vvxWn+5s/mvwF12Unk+jmwKXEbv4Je9D67W6+w7J9FdmAvJdcDeBlHZBL5IvunuSnxrV4ySVH4/N4HKfFA0g5D8hu7CXA+K6lhP/0tZMfXvRI41hoqzbgknM2vW8NoPckKEeImhVNZD6xg/StvgxZx306bm0Bp1FfZl+vLrnzrrb6JBVEZ38MSkb1VuBSlJKq++vgYe3voeYAtjqAJH7PNJJ76T/E6P26JOXLpwIkuH5wIfwcubVDx/oKNl1np/V+/Aa4jhj+ZSBdxGmhxGvulvphAAXQu3IBn5BsR3GEMV2g8/mI7Wiyr13T0LQJLKbdasYWLoNoQqI8wmWXkTvQOvsUUdmDewC0uHrwY+hsM/FfEIBsJHRvU757T8GbjDZKqAF5GkV9JdmEtXdP1X12usGOgeOILc8IDDP1VwH/yKSg7/wAGgJFVoRyR4GbAq6QXE8Ht6Bz9LX1+DOWpQV/8Eegc/RRquA/Y0iIrs53Q0Lxjd8U6IhHCeyVQhDQROJRn8Pb0D25ujDvUMNTNvsI8QfkpkhkFUIatIR46v9IvwEmBJqoQYA72D/wBeYAxV2DWQHkVHW78pasS8gdeThtOAJmOoBBYTGlponzn6h3v0DMyEMOSxhyr+2YWPc0vzGcwNqTlqXNfCLUiGTwGOBRoNogr7Jh0tH670i/AMQEmqhNU3Rr/AEKoCL4XkenoHv8ylC70RdqYPdoa2pWfwHNLwWxz+qVRi/PyYhn8AHa0LCfzVeKqwacBp7DL4Z+bd2mKOWt0W9k+gZ/AEkpFbgffj8E+VP/BbRJqeWg2vxAGgJFXuKMrLgFUtGonxoywdXkB34RXmyJhLF06kt/BxknTIexupxIaIccOeXpjyU/OpSryCdOTvdA98jksWTDFHjZgbE3oGDydJFkL8NsRNjKLqkB5Pvm1xNbwST8OXpErqKRSAZkOoikSI59GYfJTZzfeYo5qXVAz0DHUQ4ueBnQ2iMqwd9qez5bcb9GfPu2lTJjbeC3imsarJ3cT4CTpafrb66gxlUlfh5SR8HfAvMVVlwqV0NL+5al6NC0SSKqincArwGUOoCi0GvsCTk77Nu3dYbo4q0zv4VmL8LLC7MVQm8+hoaR/XV+gudBPoMKWq0B8Iycm0N11rigzp6m8lSb4MHGgMVeW+dJq2kW/7V7W8IAeAklRJF928HcMNdwI5Y6hK3UXgc2x230+YNWvYHBXWO7Af8AVieIkxVEbLyNHKwS3/GNdX6R56EyG91JyqUhGYR5L7NHN2LpijqreFLyaGTwAH423NVK0CJ9He8o3qekmSpMrqKVyMf3Op6rcQOJVbmi/w6YnlPiSNgQsL+xE5hRheZRCV/4ghfJr25s+P++vMjQm7DA4BLzKqqtgIgXNIGr7AwTNvN0cV6Rp6FcnIJyC8yRiqcn9n8/teWm1/ee4AUJIqrXfgzcTwS0MoI+6A8F3SqT8gv90yc5TQpQsnsmTVIYRwErCrQVQhQzw5aY+i3QqgZ+BDEL5pVmXACNBFknyFOU03mqNCYgxcOLQ/afw48BqDKANWQtiHjuabqu2FOQCUpEpbfUbE7cALjaEMuZcQv83y4R9y2G6PmqOIuoa2JaTvI+F/icwwiCooJU32Jd/0l6J9xQuv34SRSXcBU82rjIhELiWJ32ZOyxU+LKRMzl24EZOH30nkfUCTQZQhp9LR8tlqfGEOACWpGnQXPkHgC4ZQBi0j8AtIvu/N08ehK+ZoKLyWGI4k0g40GkWVF79PR+t7i/5lewpnAcfYVxl0GzH+iNj4E/IzHzRHCcwr7PzUtvBYiJsYRBlzIw8v2Ydj915VjS/OAaAkVcXBf//WJMk/gQnGUGYFriPGs1mZu4BDmx4yyCisvpH54cDbgG0MoipyF8sb2jh85hNF/8o9g7tB9JJKZdkKoJeYnkln25/NMU7n3DiVKRMPhngkMMsgyqhVpOlLyLfdUL276pKk6tAzcAGEvCFUEztA8GtCPI8JSy/hwL2XmuRpem/dkZi+HdLDILQYRNV5lBBm0958cem2eYN/gvhqQ6sGDAI/J+EXzGm51Ryj1BVzJIP7QTwcwsF4WwBlXeQzdLbMrepNu0tJkqrEvMHXksYrDKEaswy4EsIvaaSb2c331F2Bvr4GHnzey8jFt0Dcj8iL3QdTVQt0095S2r+Q6hnMQ7zA2Koxfyfyc2LaRb7tX+Z4lhgD3bfuQ5IeArwdz3xXLf3sp+nLybetrO7NuySpenaKegcHgGZjqEalwLUQLyfGPuJGV9Xsk4R7b92RdOT1hPgmCK8Dprn4lQmBRxlJW8m33VfS73PWgkY2n3ob8AKjqxb36oCrIMwnjb8m33Jz3ZboWjSZsPh1BN4KvAWHfqo9y0hyezFn50L1b+IlSdWje+C9hPA9Q6hOLAf+SuAq0vA3JnBtJs8Q7Lp9YxpWvISYvJQYXwK8FNjSxatMivGddLaeU5bv1VN4P3Ca0VUH7iKEX5PGy4gTriC/0+M1/W67+l9ECP9DSN4M8Q3AFD8CqmEfoKPl9Cy8UAeAklRVO0yLJhMW30lgK2OoTt1N5DoCA4Q4wEgYYPnKQY7YfUnFX9k5N05lUsNMQm4mgZ0hbQb2gtDsPpVqQuRCOlvmlO37XbJgCium3okDc9WXYeAa4GqIV5LGv5b8jNtSm3drC2m6L8TXENmXwPNczKqT7eav6Wg+gBBiFl6uO6uSVG26C58g8AVDSE/bvYo8QAj3EuPdJOFe0ng3CfeQcg+Re8nlHmVk1VKYtGzMZ1Z09U9gYm4Gq5hBwgzSuBWBGURmAFsTedHqgR/Pd1Gohj1A2rAL+ZkPlvW79hY+TuSL5leduwPiVcBfifEmcskAc1oerrpXOTcmtA7NJJfuQQx7ENmDwF7AFi5C1Z3AQxB3o7313uy8ZElSdbnw+k0YmfRPYCNjSBts2VP/PPas/54Q2Pg//xaZDEwylxQPpqP1orJ/267bNyZZ+U942s+lJIjcD/RDGCRwCzHeTkjvJp10V0kvIY4xcPHQNgyzA5EdiOkOJGEHIi3Arvi0Xmm1EOfQ3nphpl6yS02SqlD34FcI8WRDSJLKcERwNu0tR1Zum1f4IoGPuyCkUVsK/Au4F+LdEJYSwqMQlxHDUkJ8HFhMGlYBkMSpwISn/fmJwGZENoO4GSRP/S8zgO2e+nVJa99unkV7y3uy97IlSdVn/s1bsarhTmCyMSRJJXQXK1btxmG7PVqxVzDvti1JV/3DbZ4kKQNuIZ32EvLbLcvaC09cdpJUhWbvej+BcwwhSSqhCBxd0eEfwJwXPQD82MUhSapyS0hy+SwO/8ABoCRVsdxXWf2kOEmSSiB+nY6W31TFS2kMX2L1ZY2SJFWnEI9jzs6FrL58B4CSVK3ad74DQq8hJEklsIA0fqpqXs3s5nuI4XQXiySpOoUf0976syy/AweAklTVa+n088CIISRJRfQEuYa3kW9bWVWvKo58BcJjLh5JUpXpZ+Li4zN/aOlylKQqNqf1FuBcQ0iSiiaG93LwzNur7nXl2x4hxK+6gCRJVeRJ0jTPgXtn/jYVDgAlqdqlySeBZYaQJI1f/AmdzedV7csbmfZt4C6XkySpGjaahHAk+baBWngzDgAlqdrlm+4Gvm8ISdI4LaQx+WB1b/O2WwbhCy4qSVLFBb5Ee3NPrbwdB4CSlAUrky8BjxtCkrSBlpMkncxufrLqX+nm9/4IGHSRSZIqJ1zBSPMptfSOHABKUhYc2vQQhK8ZQpK0Yccx8f3MaboxE6911qxhCKe60CRJFfJPVoa3kQ819TBGB4CSlBXp1G8CdxtCkjQmMZxBe+uPM/Wa25u6gT+58CRJZbaMlPbVJ2DUFgeAkpQV3hdJkjR2f2Vq7sTMveoQIqTvBYZdhJKkMokEjibfcl0tvjkHgJKUJQ8v/hGw0BCSpFG4j8bQzgEzV2Ty1Xe09QNnuhglSWUR4xdobzm/Vt+eA0BJypJj915FEo43hCRpPVYR4iHMbr4n0+9ixapTgAddnJKkkopcSH9LTd9/1gGgJGXNnOZfE7nYEJKkdRzJfIj21uzfQ++w3R4FPunylCSVTriBZSvfwdyQ1vK7dAAoSZk8rks/ACwxhCRpDRuJc+lo/V7NvJ1bmn8MXONylSSVwH00rHorR+xe88dWDgAlKYvybf+C8CVDSJKe5UYmLj22pt7R3JBCegKQunglSUW0DNKDOGjXRfXwZh0ASlJWpSNfAwYNIUl6yiOE3BwO3Htpzb2zjrZrIJ7lIpYkFetoihAPW719qQ8OACUpq/JtKwnxA4aQJAEpSTiM9p3vqNl3uHTVR4A7XNSSpPELJ9LeemE9vWMHgJKUZe2tl0O4wBCSVO/HMfHjzGn+dU2/xyN2X0JMjwGiC1ySNA7foqP5O/X2ph0ASlLWpSMfBB43hCTVqcDZtLd+tS7ea2fbFcBPXeiSpA10CWnzR+rxjTsAlKSsy7fdB+FUQ0hSXbqch5YcW1fvOJ3wQeBuF70kaYyuZeKSt5EPI/X45h0ASlItuKXpNOAPhpCkujJAbnknx+69qq7edX6nxyG+38UvSRq9WGBlckBNPihrlIIfAkmqERcWXsgINwHTjSFJNe8+QnwZ7a3/rNsCPYO/gHiIHwVJ0nrcRYivquttJp4BKEm14+CWfxA4yRCSVPOWEeLB9X4gQ5r7AHCfHwdJ0loFHoLk9XW/zcQBoCTVlvaWH0C41BCSVLNSQjyM9ta/1n2J/MwHibwTnwosSVqzpYzwVjqaBk3hAFCSak8j/ws8YghJqkXhRNpbL7TDUzpbfgt82xCSpGdZCcwh33K1KVZzAChJtWZ28z0EPmAISao5P6Cj+TtmeJYpDR8HrjeEJOkpI8ChdLT8xhT/5QBQkmpRe8v5BLoNIUm1IlzK5ve9zw5rcMDMFaRpHlhsDEmqe5EY30NHS68pnskBoCTVqpGG9+HN0SWpFvydpSvyzJo1bIq1yLfdRuDDhpCkuhYhvJfO1h+Z4rkcAEpSzR4MzXyQyNtZfQq8JCmbxzK3E+JbOGL3JbZYj9UPwrrAEJJUr5tMTqaj+UxDrJkDQEmqZZ0tfyCEuYaQpEweyNxDmrye9tZ7jTFKK1YeB/zDEJJUb9vM+DE6W75uiLVzAChJte7mpi9CvMwQkpQpjxPTN5NvvtMUY3DYbo+SJAcBS40hSXUi8hk6W79iiHVzAChJtW5uSEnj4XhGhCRlxVLS5C3k224wxQaY03QjMR5nCEmqB/ELdLbMtcP6OQCUpHqQb3uEEN8OrDKGJFW1lcAc8k1/McU4dLaeA5xuCEmqYSF8hY7WTxlidBwASlK9aG/9KyGebAhJqlojhHgEHS2/MUURPLzkROBPhpCkGhTjKbQ3f8wQoxdMIEl1prvQTaDDEJJUVVJiOILO5vNMUUTzb96KVQ3XAdsaQ5JqROSTdLZ80RBj4xmAklR3G8wJRwO3GkKSquhQJoajHf6VwOxd7yfEDlZfWi1Jyvr2kvBBh38bxgGgJNWb/E6Pk2s4gMBDxpCkKjiYifH9dDafbYoSaW/9K/B+Q0hSpqVEjqOj+Tum2DAOACWpHh0883YIeXwoiCRVWPwwna1n2KHEOlp+SAxfNYQkZVIK4X/pbDnLFBvOAaAk1av25j5iONYQklQhgU/Q0fotQ5RJf9PHCXQbQpIyZYQQ30VH809MMd7dDklSfesZ+CqEjxhCksomQviQlzFVwNl3TmL68iuAVxhDkqreCkI4nPbmHlOMn2cASlK9u6XlY0QuNIQklcXqG5g7/KuMd++wnJXJbGChMSSpmoXHiOnrHf4VsagJJEl0LZpM7sk/EMNLjCFJJROB4+loOd0UFXbhwp1Ih/9KZIYxJKnq3EuSvIk5TTeaong8A1CSBPntltGQHAzcZQxJKomUwHsc/lWJg2fezggdwEpjSFJVGSTElzv8Kz4HgJKk1WY330OaHgg8bgxJKqphYjiC9pYfmKKK5Fv+CPEQYNgYklQVriVteA3trf80RfE5AJQkPe1gqO0GUt4ELDGGJBXFSiKH0Nl8nimqUEfrRcR4FJAaQ5IqKVxBY3gd+ZkP2qI0HABKkp4p33I1IR4ErDCGJI3LUiIH0tkyzxRVrLP1HOAEQ0hSpcRzeXjxm5jd/KQtSseHgEiS1qx34GBi6AIajCFJY97NfozAW2hvvtIWGdFTOAX4jCEkqWwixC/S3vJpQojmKPGeiQkkSWvVPXAEIfyf2wtJGpN7SdMDyLfdYIqM6Rn4KoSPGEKSSm4FMR7z1FnYKgMP6CRJ69Zb+ACR7xpCkkYjFgi8yRuYZ3XxxUDv4JnAMcaQpBIJPASxnfbWPxmjfLwHoCRp3dpbTiN6SZQkjcI1pI37OvzL8kFpiKTN7wXON4YklcRNEPd2+Fd+DgAlSevX2TKXGL5tCElaq0uYuOS1Pr2wBuTDCGnzEcD/GUOSiijya9IJr/EvyirDS4AlSaPcYMdAz9A3CfGDxpCkZ+xRn8VI8/vIhxFj1Nx273RCfK8xJGncvkvafKLbykrurkiSNBbdhbkETjWEJBGJfJbOlrmmqNUlHAM9g98h8AFjSNIGGSbGE+hsPcMUleUAUJI0dt0DHyWELxtCUh1bTojvor31AlPUuBgDvYVvQTjBGJI0lvUn95CEPO3NVxqj8hwASpI2TM/A+yCc5rZEUh26l5DMpr3pWlPUkd7CF4h8whCSNCp/IsS30d56rymqgw8BkSRtmI7W7xHj+4FoDEl15CbS9GUO/+pQe8sniXzJEJK0ThHi19j8vtc5/KsunrUhSRqf7sHDCPH/gAZjSKpxv2R5w2EcPvMJU9SxnsHjIX4LT6aQpGd7khCOpL25xxTVxwGgJGn8egcOIYafAY3GkFSDIiF8lZubPsHckJpD9BTagXOBScaQJAAGSdN28m0DpqhODgAlScXRO/BmYvgFMM0YkmrIkxCPoKP1IlPoGeYNvpY0XghsZAxJde58lq48hiN2X2KK6uUAUJJUPF2FvUi4BNjGGJKyL95OwkHMab3FFlqj3oEXk4ZLCWxlDEl1aDnEk+ho/Z4pqp8DQElScXUNbUuS/grY3RiSMivyK1auegeH7faoMbTu7d7gDiTx18DOxpBURxvKAmk8lHzbDbbIBm9cK0kqrnzT3eSW/w/QZwxJGTRC5DP0N7/V4Z9Gt91rvpOk8dWAT4aWVA8iMZxBOn0vh3/Z4hmAkqTS6OqfQBJ+DOFwY0jKyJ7xQ6QcRmfLb42hMTv7zklstPwsIkcYQ1KNepAQjqa9+WJTZHE3R5KkUokx0Fv4HIRPGkNSlfsrDcN5Dtp1kSk0Lj2DJ0D8Jl5tJam2XE5jeCezm+8xRTa5UZIklU4IkY7WTxHDkcAqg0iqQhH4Lmm6r8M/FUVH83eIyVsgPGYMSTVgFZHPcEvz/g7/Mn5oZgJJUln0DryGNHT5pERJVeRBiO+io/VSU6jo5t3aQjoyH5hpDEkZNUCaHua9/mqDZwBKksqjvfVPJA17A9cYQ1LFRX5PY9jD4Z9KZs7OBZY37A380hiSMmaYEL7Ck5N80EcN8QxASVJ5nX3nJKYv/z7wLmNIqoBVwCnc0vxV5obUHCq5rpgjN/QFYvyoMSRlwC2E5Ejam3yyeY1xAChJqozewjFETgMmGENSecQCaXgH+ZbrbKGy6ym8EzgDmGIMSVVoFSF8mZGRz5NvW2mO2uMAUJJUOb2DryTGbmAbY0gqoQj8kKUrT+SI3ZeYQxXTM9QMaRewqzEkVZGbSDnSvyCrbQ4AJUmVNX/weayK3cArjCGpBO4jxKNpb/2VKVQVVt8K4yvA8caQVGGrCOGbjIyc4ll/tc8BoCSp8rr6J5CEb0M4zhiSirinex4j6fHk2x4xhqpO9+BhhPh9YLoxJFXANSTxaOa03mKKetktkiSpWvQMHEQIPyQywxiSxuE+Qnwv7a0XmkJVbV5hZ9JwAcQ9jCGpLAKPEsNnSJtOJx9GDFJPi16SpGoy/+atWJU7G8KbjCFpA/Zuuwkcx5yWh42hTLh04USWDn8VLwmWVFoRwrkkDScx50UPmKMed5EkSao2c2NC2+CJBD4PTDSIpFH4F3AMHS2/MYUyqafQDuFHEDcxhqQiu56U95FvudoU9csBoCSpig+G+tsgOR/YzRiS1iIFfkRjOInZzU+aQ5nW1b81STgTwmxjSCqCxyGc6uW+AgeAkqRq99+nJX7A7ZakZ7meNHkP+aa/mUI1pXuwkxDPBDYzhqQN9EtCw3G0z7zLFMIDKUlSZvQU9gfOBrYxhlT3lhDj54gtX/eMBtWsi27ejuGGHwL7G0PSGFxDmpxEvukvptDTOQCUJGVHV//WhOQsAm81hlSXIoELGElOIt90tzlUF7oHO0niWUQ2NYaktQuLCPHz3Nz8I+aG1B56zifEBJKkzOkpHAh8H9jWGFLd7LbeQEhPoL31T7ZQ3ekd2J4YfgTsZwxJz9o+PkZMv8ziyd/h3Tsst4fW+kkxgSQpky68fhNGJn0GeD+QGESq2b3VR4nhM97AXHUvxkDv0LHAl3xSsCRgJcTvk4TPMaflYXNo/btUkiRlWe/gLGI8C5hpDKmmDANnkaankG97xBzSU7r6tybJfRXi4R7PSXXrl6Tph8i33WYKjZYbDElS9p195ySmLf8YgY8DEwwiZd7lJPFDzGm9xRTSWvQOvIYYvgfsYgypbvQR+RSdLVeZQmPlAFCSVDt6BncjpD8khpcYQ8qkBUQ+QmfLH0whjWYU0NfAw9u8D+JngY0MItWsK4npqXS2XWEKbSgHgJKk2tIVc+QKHyCGucDGBpEy4Q5i/CQdLRcQQjSHNEa9A9sQk694WbBUc64CvkxHyyWm0Hi5cZAk1aZ5hc1JOQV4L9BgEKkq3QXh60zJnckBM1eYQxqn3oH9iOE0oNkYUoYFribEU5nT+jtjqHgfK0mSalnPUDPEb0A8wBhS1eyBPkQav06c/l3y2y0ziFREZy1oZMbUdxOZC2xjEClTbiSGL9DZ3G0KFX/3S5KketBTOBD4OrCzMaSKeZjAN1iy8rscsfsSc0gl1NU/jVzyYSInAdMMIlW1y4l8jc6W35pCpeIAUJJUP/59VgR8gcgMg0hl8yCRM4gTvkV+p8fNIZXR+UMzmBhPIsYPAhMNIlWNFLgU0s/T0XaNOVRqDgAlSfWnq38zcrmTifFDwASDSCXzADF+k0lLT+PAvZeaQ6qg3oHticnnfFCIVHErIHSRxM8zp+VWc6hcXPFLkupX12ATufhpIm8DcgaRiiXeDsk3mJL7iQ/3kKpt2zf0EkL6JQKvNYZUVg8Q4+nkwhnMaXnYHCo3B4CSJPXeuiNx5KPAUTgIlMazZ3kdafwuM+4/n1mzhg0iVbGuoVcR0k8SeKMxpJIagHAa6dSf+uArVXY3TZIkrTbv1hbS9OMQD8VBoDRaq+9hFOJ3aG+93BxS1rZ9Q7uTxg+77ZOKagS4jBC/w5yWKwghmkSV5gBQkqRn6+pvJcmdArETSAwirdHjEP8P+B4drQvNIWVcT38b5D4K8e1Ag0GkDXIfIfyUkZEzyLf9yxyqJg4AJUlam9WDwI95VoT0DLcS409oWHEWB+/5mDmkWtv2De5AEj8IHANMMog0Cv++BcYjS3/OsXuvMoiq82MqSZLWrWeoGUZOgPAOYKpBVIeGgYtJwvc4uKnPS5mkOtDV/wJyufcS49HA5gaRnuMRIucR0zPJtw2YQ9XOAaAkSaN17sKNmDTybognAi8wiOpgV3ERgfO9lEmqY5cunMiSVYcQkg9B3MMgqnMjQB8x/oxJS3s4cO+lJlFm9upMIEnSGM2NCbsMvhk4HtjPIKoxKwhcDPEH3rhc0jN0FfYiCSdAfBvQaBDVj1gg8lNi/Cn5tvvsoSxyAChJ0nj0DryMmHwQYjveNF3ZdhWEc0lHLiDf9og5JK1j27cNaTiWwHuBLQyi2hQeg9hFmvyMfNNf7KHMf6JNIElSEVx083YM546F8E7g+QZRNsTbieFcYnou+bbb7CFpTM6+cxIbLZ9D5J2sPiM+MYoybgnEXxH4BSPxV+TbVppEtcIBoCRJxdQVcySD+xF4F5GD8AmKqj73Ar2E8AvmNF3lJb6SimL+4PNYRSfEI4HdDKIMWQZcQYzdxDiPfNtik6gWOQCUJKlUum7fmNzKQ4gcAbzSIKrgHt9DxHAZxG42v+8yZs0aNoqk0m3/CnuRcARwGD5BWNXJoZ/qcHdQkiSVXk9/GzF5N4HDgK0NojK4gxguJoZeBna+irkhNYmksupaNJlk8UFEjiDwOnxwiCrrCQKXktJNnHYZ+e2WmUT1xAGgJEnl1NfXwCNb7Q+hnchb8cwIFU8KXEtgPiFewpzWW0wiqWpceP0mDE9+PYEDIc4BphpFZXAHcDnwS9L0N97TT/XMAaAkSZXS19fAQ1vuS0gOBg4CtjWKxrgr9xjEK4jx18T4S/Jt99lEUtVbfWbgfhA6Ic4GNjKKimQYuIYYLyHGS8i3DZhEemqv0QSSJFWJ1ZcJdxI4BGg2iNZghMANEC6H9HIeWvpHjt17lVkkZVbXoskkT+4PtEM4ANjMKBqjeyFcSoyXMiH8jtnNT5pEei4HgJIkVeUBUWFXEg4m8EYi+wANRqlLEbgF6CPyR1au6uOw3R41i6SaNDcmtA7uSYj7EcJ+wL5430A915OsPsvvcmK4nM7mv/tEe2n9HABKklTtzl24EZOG94X4OgivA3YxSs1KgX4ifwD+wKrkTxza9JBZJNWlrv5p5MLLiOFAYDawvVHq0hLg6v8M/Aaar/fBVtLYOQCUJClr5t22JSPD+xLifsAbgBcaJbOeBG4ihL8Q45Wk6ZXk2x4xiyStQc9QM8T9gf+B+ApgS6PUoMCjxHA1If4FYh+b3b+AWbOGDSON90dLkiRl/IBoYCaRfUmSlxLjPkAbXjJcjZYCNwB/J3AdIXcNB88c9LIlSdpA8wefx0peSYivIvBKIi/2GDeT7oBwJXAdafyLZ/hJpeHKUZKkWnPJgimsnLYnMX0JhH2AfYAXGaasHgZugngTkb8T4nWkrYPkw4hpJKlEzh+awcT4CmL6KgivBPYEJhumigQeJca/QvgrSbyapY3XcPjMJwwjlePHT5Ik1b6u/s1oyL2EkXQfkrArkSagCZhonHHtSj0GcYgQboa0H7iFkXgL+bb7bCNJld72xRy5hdsTR9qI7EVgLyL7ENjKOCX3BIGFxDBATPsJYYCQ6+fmmf/w7D6pQnutJpAkqY4PjBpveyHDwy2E0AI0QWwh0EJkUwM97SAG/gEsBBYSw60k3MpI7lbyMx80jyRlzEU3b8dwwx7AnkT2INAG7IBPHB7rNOEhIncSuJ003kYSbidNbycJt9Heeq+BpGr7kZUkSXq2ebdtSVzZTExeQEy3hbAtIWwHcVvg+cBWQFID73Qx8C/gLoh3EcMikriIkNxNOrKIxty/mN38pB8ISapxfX0NPLLtC2B4Rwir/4mxDWhl9cO2krrqEXgUuIPIvcA9RO4l4R6IdxDjvW4fpSz+WEuSJI3VWQsa2Wri1qxq2I4Qnk9Inwfh/9u7f5ZIYjCO498n46grt87oXCHqiY0n2Pk27Cx8kxaC+DbsvcbKFTcrO6h4t8ru5LEYQbSw8g+evw+EpAskRZIn/wqSlQQvSJRAgVHCs/ReC6gxxi3ODTDEGWJWQ6qBGhiCtWWzGgs19veC3e0rdaaIiLzq6HiOUec3wdYhrEFabTfGfA23VWAZmP4Cy/8r8D7YJeZ9nIj7gGARrI83kTw7434z6s1akf+PAoAiIiLycQ7/dPFxSTPzdM2qSTn4jxczlC7B25+Mm+wO0ghSQ5a3D4Vbc81onFjo/GNn414NKyIin8bdODhZwsMKzgrmv4BFoMKocF9scyqwn0DxhrWPgQicPwb3erhHCD1CGkA2gHBBh0uNlyLfmwKAIiIiIiIiIh9l3zOmTitIFZNmjikrSJ7jNk9Is2AdoIuTY1biPk17wnAA1sNSxLIek0lkbyti5mpUEREREREREREREZFv7AH7Gnq8jeyeJwAAACV0RVh0ZGF0ZTpjcmVhdGUAMjAxOS0xMi0wN1QxOTowMDo0MyswMDowMJcAJzQAAAAldEVYdGRhdGU6bW9kaWZ5ADIwMTktMTItMDdUMTk6MDA6NDMrMDA6MDDmXZ+IAAAAAElFTkSuQmCC;" parent="kxiGyfCiiZGAV-LbY0Gb-2" vertex="1">
          <mxGeometry x="8.110000000000014" y="20" width="103.78" height="39" as="geometry" />
        </mxCell>
        <mxCell id="kxiGyfCiiZGAV-LbY0Gb-7" value="" style="rounded=0;whiteSpace=wrap;html=1;fillColor=none;container=1;collapsible=0;recursiveResize=0;" parent="fDyteKxTsw1w2ha29Ws7-11" vertex="1">
          <mxGeometry x="200" y="40" width="120" height="120" as="geometry" />
        </mxCell>
        <mxCell id="kxiGyfCiiZGAV-LbY0Gb-8" value="SQLite Database" style="rounded=0;whiteSpace=wrap;html=1;container=0;collapsible=0;recursiveResize=1;" parent="kxiGyfCiiZGAV-LbY0Gb-7" vertex="1">
          <mxGeometry y="79" width="120" height="40" as="geometry" />
        </mxCell>
        <mxCell id="kxiGyfCiiZGAV-LbY0Gb-10" value="" style="shape=image;verticalLabelPosition=bottom;labelBackgroundColor=default;verticalAlign=top;aspect=fixed;imageAspect=0;image=https://upload.wikimedia.org/wikipedia/commons/thumb/3/38/SQLite370.svg/1200px-SQLite370.svg.png;" parent="kxiGyfCiiZGAV-LbY0Gb-7" vertex="1">
          <mxGeometry x="8.639999999999999" y="14" width="102.73" height="48.72" as="geometry" />
        </mxCell>
        <mxCell id="fDyteKxTsw1w2ha29Ws7-27" style="edgeStyle=orthogonalEdgeStyle;rounded=0;orthogonalLoop=1;jettySize=auto;html=1;exitX=1;exitY=0.5;exitDx=0;exitDy=0;entryX=0;entryY=0.5;entryDx=0;entryDy=0;" parent="fDyteKxTsw1w2ha29Ws7-11" source="kxiGyfCiiZGAV-LbY0Gb-2" target="kxiGyfCiiZGAV-LbY0Gb-7" edge="1">
          <mxGeometry relative="1" as="geometry">
            <mxPoint x="160" y="90" as="sourcePoint" />
          </mxGeometry>
        </mxCell>
        <mxCell id="fDyteKxTsw1w2ha29Ws7-39" value="" style="rounded=0;whiteSpace=wrap;html=1;container=1;collapsible=0;recursiveResize=0;" parent="fDyteKxTsw1w2ha29Ws7-11" vertex="1">
          <mxGeometry y="200" width="360" height="40" as="geometry" />
        </mxCell>
        <mxCell id="fDyteKxTsw1w2ha29Ws7-37" value="" style="image;sketch=0;aspect=fixed;html=1;points=[];align=center;fontSize=12;image=img/lib/mscae/Docker.svg;" parent="fDyteKxTsw1w2ha29Ws7-39" vertex="1">
          <mxGeometry x="12" y="6.799999999999909" width="32.2" height="26.4" as="geometry" />
        </mxCell>
        <mxCell id="fDyteKxTsw1w2ha29Ws7-36" value="&lt;b&gt;Docker Container&lt;/b&gt;" style="text;html=1;strokeColor=none;fillColor=none;align=center;verticalAlign=middle;whiteSpace=wrap;rounded=0;" parent="fDyteKxTsw1w2ha29Ws7-39" vertex="1">
          <mxGeometry x="115" y="5.000000000000023" width="130" height="30" as="geometry" />
        </mxCell>
        <mxCell id="G9LvsAXl9u4YjFtAsRXR-1" value="" style="rounded=0;whiteSpace=wrap;html=1;fillColor=none;container=1;collapsible=0;recursiveResize=0;" parent="1" vertex="1">
          <mxGeometry x="-120" y="320" width="400" height="400" as="geometry" />
        </mxCell>
        <mxCell id="G9LvsAXl9u4YjFtAsRXR-5" value="&lt;b&gt;Device (Smart Bin)&lt;/b&gt;" style="rounded=0;whiteSpace=wrap;html=1;" parent="G9LvsAXl9u4YjFtAsRXR-1" vertex="1">
          <mxGeometry y="360" width="400" height="40" as="geometry" />
        </mxCell>
        <mxCell id="G9LvsAXl9u4YjFtAsRXR-24" value="" style="rounded=0;whiteSpace=wrap;html=1;fillColor=none;container=1;collapsible=0;recursiveResize=0;" parent="G9LvsAXl9u4YjFtAsRXR-1" vertex="1">
          <mxGeometry x="160" y="200" width="80" height="120" as="geometry" />
        </mxCell>
        <mxCell id="G9LvsAXl9u4YjFtAsRXR-25" value="Ultrasonic Sensor" style="rounded=0;whiteSpace=wrap;html=1;container=0;collapsible=0;recursiveResize=1;" parent="G9LvsAXl9u4YjFtAsRXR-24" vertex="1">
          <mxGeometry y="80" width="80" height="40" as="geometry" />
        </mxCell>
        <mxCell id="G9LvsAXl9u4YjFtAsRXR-26" value="" style="image;aspect=fixed;perimeter=ellipsePerimeter;html=1;align=center;shadow=0;dashed=0;fontColor=#4277BB;labelBackgroundColor=default;fontSize=12;spacingTop=3;image=img/lib/ibm/users/sensor.svg;" parent="G9LvsAXl9u4YjFtAsRXR-24" vertex="1">
          <mxGeometry x="10" y="9.99999999999999" width="60" height="60" as="geometry" />
        </mxCell>
        <mxCell id="G9LvsAXl9u4YjFtAsRXR-76" value="" style="rounded=0;whiteSpace=wrap;html=1;fillColor=none;container=1;collapsible=0;recursiveResize=0;" parent="G9LvsAXl9u4YjFtAsRXR-1" vertex="1">
          <mxGeometry x="240" y="40" width="120" height="120" as="geometry" />
        </mxCell>
        <mxCell id="G9LvsAXl9u4YjFtAsRXR-77" value="ESP32" style="rounded=0;whiteSpace=wrap;html=1;container=0;collapsible=0;recursiveResize=1;" parent="G9LvsAXl9u4YjFtAsRXR-76" vertex="1">
          <mxGeometry y="80" width="120" height="40" as="geometry" />
        </mxCell>
        <mxCell id="fDyteKxTsw1w2ha29Ws7-2" value="" style="outlineConnect=0;dashed=0;verticalLabelPosition=bottom;verticalAlign=top;align=center;html=1;shape=mxgraph.aws3.hardware_board;fillColor=#5294CF;gradientColor=none;noLabel=0;labelPadding=-2;portConstraintRotation=0;" parent="G9LvsAXl9u4YjFtAsRXR-76" vertex="1">
          <mxGeometry x="33.12" y="10" width="53.75" height="64.3" as="geometry" />
        </mxCell>
        <mxCell id="G9LvsAXl9u4YjFtAsRXR-32" style="rounded=0;orthogonalLoop=1;jettySize=auto;html=1;entryX=0.5;entryY=0;entryDx=0;entryDy=0;startArrow=classic;startFill=1;endArrow=none;endFill=0;exitX=0.75;exitY=1;exitDx=0;exitDy=0;edgeStyle=orthogonalEdgeStyle;" parent="G9LvsAXl9u4YjFtAsRXR-1" source="G9LvsAXl9u4YjFtAsRXR-77" target="G9LvsAXl9u4YjFtAsRXR-6" edge="1">
          <mxGeometry relative="1" as="geometry" />
        </mxCell>
        <mxCell id="G9LvsAXl9u4YjFtAsRXR-33" style="rounded=0;orthogonalLoop=1;jettySize=auto;html=1;entryX=0.5;entryY=0;entryDx=0;entryDy=0;startArrow=classic;startFill=1;endArrow=none;endFill=0;exitX=0.75;exitY=1;exitDx=0;exitDy=0;edgeStyle=orthogonalEdgeStyle;" parent="G9LvsAXl9u4YjFtAsRXR-1" source="G9LvsAXl9u4YjFtAsRXR-77" target="G9LvsAXl9u4YjFtAsRXR-24" edge="1">
          <mxGeometry relative="1" as="geometry" />
        </mxCell>
        <mxCell id="G9LvsAXl9u4YjFtAsRXR-6" value="" style="rounded=0;whiteSpace=wrap;html=1;fillColor=none;container=1;collapsible=0;recursiveResize=0;" parent="G9LvsAXl9u4YjFtAsRXR-1" vertex="1">
          <mxGeometry x="280" y="200" width="80" height="120" as="geometry" />
        </mxCell>
        <mxCell id="G9LvsAXl9u4YjFtAsRXR-12" value="Weight&amp;nbsp; Sensor" style="rounded=0;whiteSpace=wrap;html=1;container=0;collapsible=0;recursiveResize=1;" parent="G9LvsAXl9u4YjFtAsRXR-6" vertex="1">
          <mxGeometry y="80" width="80" height="40" as="geometry" />
        </mxCell>
        <mxCell id="G9LvsAXl9u4YjFtAsRXR-15" value="" style="image;aspect=fixed;perimeter=ellipsePerimeter;html=1;align=center;shadow=0;dashed=0;fontColor=#4277BB;labelBackgroundColor=default;fontSize=12;spacingTop=3;image=img/lib/ibm/users/sensor.svg;" parent="G9LvsAXl9u4YjFtAsRXR-6" vertex="1">
          <mxGeometry x="10" y="9.99999999999999" width="60" height="60" as="geometry" />
        </mxCell>
        <mxCell id="kxiGyfCiiZGAV-LbY0Gb-14" style="edgeStyle=orthogonalEdgeStyle;rounded=0;orthogonalLoop=1;jettySize=auto;html=1;entryX=0.75;entryY=1;entryDx=0;entryDy=0;exitX=0.5;exitY=0;exitDx=0;exitDy=0;" parent="G9LvsAXl9u4YjFtAsRXR-1" source="vr2XqwOMbLJMpUFcfifB-1" target="G9LvsAXl9u4YjFtAsRXR-76" edge="1">
          <mxGeometry relative="1" as="geometry" />
        </mxCell>
        <mxCell id="vr2XqwOMbLJMpUFcfifB-1" value="" style="rounded=0;whiteSpace=wrap;html=1;fillColor=none;container=1;collapsible=0;recursiveResize=0;" parent="G9LvsAXl9u4YjFtAsRXR-1" vertex="1">
          <mxGeometry x="50" y="200" width="80" height="120" as="geometry" />
        </mxCell>
        <mxCell id="vr2XqwOMbLJMpUFcfifB-2" value="Motor" style="rounded=0;whiteSpace=wrap;html=1;container=0;collapsible=0;recursiveResize=1;" parent="vr2XqwOMbLJMpUFcfifB-1" vertex="1">
          <mxGeometry y="80" width="80" height="40" as="geometry" />
        </mxCell>
        <mxCell id="vr2XqwOMbLJMpUFcfifB-5" value="" style="sketch=0;outlineConnect=0;fontColor=#232F3E;gradientColor=none;fillColor=#232F3D;strokeColor=none;dashed=0;verticalLabelPosition=bottom;verticalAlign=top;align=center;html=1;fontSize=12;fontStyle=0;aspect=fixed;pointerEvents=1;shape=mxgraph.aws4.gear;" parent="vr2XqwOMbLJMpUFcfifB-1" vertex="1">
          <mxGeometry x="9" y="10" width="62" height="62" as="geometry" />
        </mxCell>
        <mxCell id="kxiGyfCiiZGAV-LbY0Gb-15" style="edgeStyle=orthogonalEdgeStyle;rounded=0;orthogonalLoop=1;jettySize=auto;html=1;entryX=0;entryY=0.5;entryDx=0;entryDy=0;" parent="G9LvsAXl9u4YjFtAsRXR-1" source="vr2XqwOMbLJMpUFcfifB-6" target="G9LvsAXl9u4YjFtAsRXR-76" edge="1">
          <mxGeometry relative="1" as="geometry" />
        </mxCell>
        <mxCell id="vr2XqwOMbLJMpUFcfifB-6" value="" style="rounded=0;whiteSpace=wrap;html=1;fillColor=none;container=1;collapsible=0;recursiveResize=0;" parent="G9LvsAXl9u4YjFtAsRXR-1" vertex="1">
          <mxGeometry x="50" y="40" width="80" height="120" as="geometry" />
        </mxCell>
        <mxCell id="vr2XqwOMbLJMpUFcfifB-7" value="LCD" style="rounded=0;whiteSpace=wrap;html=1;container=0;collapsible=0;recursiveResize=1;" parent="vr2XqwOMbLJMpUFcfifB-6" vertex="1">
          <mxGeometry y="80" width="80" height="40" as="geometry" />
        </mxCell>
        <mxCell id="vr2XqwOMbLJMpUFcfifB-8" value="" style="sketch=0;outlineConnect=0;fontColor=#232F3E;gradientColor=none;fillColor=#232F3D;strokeColor=none;dashed=0;verticalLabelPosition=bottom;verticalAlign=top;align=center;html=1;fontSize=12;fontStyle=0;aspect=fixed;pointerEvents=1;shape=mxgraph.aws4.gear;" parent="vr2XqwOMbLJMpUFcfifB-6" vertex="1">
          <mxGeometry x="9" y="10" width="62" height="62" as="geometry" />
        </mxCell>
        <mxCell id="G9LvsAXl9u4YjFtAsRXR-42" value="" style="rounded=0;whiteSpace=wrap;html=1;fillColor=none;container=1;collapsible=0;recursiveResize=0;" parent="1" vertex="1">
          <mxGeometry x="800" y="320" width="200" height="400" as="geometry" />
        </mxCell>
        <mxCell id="G9LvsAXl9u4YjFtAsRXR-46" value="&lt;b&gt;Client&lt;/b&gt;" style="rounded=0;whiteSpace=wrap;html=1;" parent="G9LvsAXl9u4YjFtAsRXR-42" vertex="1">
          <mxGeometry y="360" width="200" height="40" as="geometry" />
        </mxCell>
        <mxCell id="G9LvsAXl9u4YjFtAsRXR-60" value="" style="rounded=0;whiteSpace=wrap;html=1;fillColor=none;container=1;collapsible=0;recursiveResize=0;" parent="G9LvsAXl9u4YjFtAsRXR-42" vertex="1">
          <mxGeometry x="40" y="80" width="120" height="200" as="geometry" />
        </mxCell>
        <mxCell id="G9LvsAXl9u4YjFtAsRXR-61" value="Flutter Mobile Application" style="rounded=0;whiteSpace=wrap;html=1;container=0;collapsible=0;recursiveResize=1;" parent="G9LvsAXl9u4YjFtAsRXR-60" vertex="1">
          <mxGeometry y="160" width="120" height="40" as="geometry" />
        </mxCell>
        <mxCell id="fDyteKxTsw1w2ha29Ws7-3" value="" style="verticalLabelPosition=bottom;verticalAlign=top;html=1;shadow=0;dashed=0;strokeWidth=1;shape=mxgraph.android.phone2;" parent="G9LvsAXl9u4YjFtAsRXR-60" vertex="1">
          <mxGeometry x="24.62" y="9.999999999999998" width="70.77" height="137.99" as="geometry" />
        </mxCell>
        <mxCell id="vr2XqwOMbLJMpUFcfifB-10" value="" style="shape=image;verticalLabelPosition=bottom;labelBackgroundColor=default;verticalAlign=top;aspect=fixed;imageAspect=0;image=data:image/png,iVBORw0KGgoAAAANSUhEUgAAAzoAAAQACAYAAAAp9yzxAAAABGdBTUEAALGPC/xhBQAAACBjSFJNAAB6JgAAgIQAAPoAAACA6AAAdTAAAOpgAAA6mAAAF3CculE8AAAAB3RJTUUH5QUEEwcKfCtaRgAAAAZiS0dEAAAAAAAA+UO7fwAAZglJREFUeNrs3XecnWWdv/EzaYiNEroFAZXeO9LJTGhWQNeGbXXX3XXdpruuP11RBAvYcFVQQOwiYoGEJHTIJIAC0ixIVddeUElmztTf/cw8ByaTmclMck7mnPv7vl6v63+XzJy5P/vcz3UqFQAAkD3tnX1zOzp7Pz2/s3eQJDO2t2Npz03zlvfu5JMfAID8R86WaeSc7QBEMnN70mfdde3Leg888vbBGT79AQDIe+Rsk/7wfzgdAFY6BJHM+klOMXI6ew9NI2emT38AAPIeOVunP/xnpQPAIw5BJHO2Y2nP8vJJjpEDAEDmI2fTNHI+mA4Af3UIIpn5yLl/3vLenV1XAwAg/5FThAc+lQ4AAw5BJDMPD9xcjhwf/gAAZD5yhAdICg8AAICsRo7wAEnhAQAAkNXIER4gGSk8cJCRAwBA/iOnFh74i0MQycxHzn3zlvfu4roaAAD5j5zN0sj5X+EBkgHCA7cIDwAAEGPkbCE8QDJQeOAAT3IAAMh/5NTCA10OQSSFBwAAQA4jZ+ty5AgPkMzZAeEBAADijBzhAZJRwgM/nbe8d1fX1QAAyH/kFOGBT6YDQL9DEMkA4YFdhAcAAMh/5AgPkIwSHrheeAAAgBgjpwgPfEh4gKTwAAAAyGXkCA+QjBIeWNa+rPdgIwcAgPxHzlzhAZKBwgO7ua4GAECMkXNOOgD0OQSRzNi+NHK+JzwAAECMkVOEBz7iAERSeAAAAOQycoQHSAoPAACArEaO8ABJ4QEAAJDVyKmFB/7sEEQy8/DAve3Le3d3XQ0AgBgjR3iAZITwwPfnLe/dVXgAAID8R87mwgMkY4QHeorwwP6e5AAAkP/IqYUHuh2CSAoPAACAHEaO8ADJSOGBQ4wcAADyHznCAySjhAd+0r68dw/X1QAAiDFyPlFc5XAIIpl5eODWMjzQ5tMfAIC8R47wAMko4YEbyvCAkQMAQOYjZ5vyuprwAMkI4YHDvJMDAED+I0d4gGSM8ECn8AAAAFFGjvAAySjhgR8LDwAAEGfkfLy4r+4QRDLz8MBtwgMAAMQYOZulkfNRByCSwgMAACCXkbN1eV2t6hBEUngAAADkMnKEB0hGCA90ti/rfZ6RAwBA/iNnM+EBkkHCAz9KI2dP4QEAAPIfOUV44GPCAyQDhAdun7e8dzfv5AAAEONJjvAAyQjhgRvbl/XuZ+QAAJD/yBEeIBlk5AgPAAAQaeQID5DM3X7hAQAA4oycWnjAyCGZe3jgh2nk7CU8AABA/iNnbvlOjutqJHMPD/xAeAAAgDhPcj7mAERSeAAAAOQycmrhAQlpksIDAAAgm5HzIe/kkBQeAAAAuYwc4QGSUcID96SRs7fwAAAA+Y+cIjzwkXQA6HYIIpn1k5ylPXe0Cw8AABBm5AgPkBQeAAAA2Yyc4p2cDwgPkAwUHnBdDQCAACOnCA/82SGIZIDwwKHCAwAA5D9yhAdICg8AAICsRk7xTs7ZwgMkA4QH7mxf3ru7d3IAAIgxcoQHSEYIDyxtX9a7r5EDAED+I0d4gGSk8MChrqsBABBj5AgPkIwQHlgqPAAAQIyRs7nwAMkg4YG708jZx5McAADyHzm18ECXQxDJzMMDdwkPAAAQY+RsmkbOxx2ASAoPAACAXEZOLTzQ6xBEUngAAADkMnKEB0jGCA909h4mPAAAQP4jR3iAZJTwwF3ldTVPcgAAyHzkFO/knCU8QDJAeOBu4QEAAOKMHOEBkhHCA51lQtrIAQAg85GzVRo5Z6YDQJ9DEMnswwPLhAcAAIgwcoQHSAoPAACArEZOLTzwJ4cgkpmHB+5sX9a7n5EDAED+I6d4J+fD6QCw0iGIZObhgXuEBwAAiDNyPuEARFJ4AAAA5DJyhAdIRgkPXC88AABAjJGzdflOjvAASeEBAACQxcgRHiApPAAAALIaOZuWCWnhAZK5hwd+1L68dw/v5AAAkP/I2UR4gGQAezs6e5a1L+vd28gBACD/kVMLD/Q7BJEUHgAAADmMHOEBkhHsEx4AACDOyNkijZwPCA+QDBAeuKN9We/+Rg4AAPmPnE3KJzkrHIJIZuxAGjk/Fh4AACDOyBEeICk8AAAAshk5RXjgDOEBksIDAAAgl5FTCw/8xSGIZIDwwOHeyQEAIP+RIzxAMkp44Afty3oPMHIAAMh/5AgPkIwSHviJ8AAAADFGzsZp5JzjAEQyQHhgefuy3r2MHAAA8h85W5bhgQGHIJLCAwAAIIeRIzxAMkp44EbhAQAAYowc4QGSwgMAACCrkbNJOXIedQgimXl44N4yPOC6GgAAmY8c4QGSwgMAACCrkVOEB94vPEBSeAAAAOQycoQHSAYJD/QKDwAAEGTkCA+QjBIeuL19We+BRg4AAPmPnOKdnDOFB0gGCA/8VHgAAIAYI2ejNHI+6QBEMvvwwNKem9LI2VN4AACA/EdOLTzgEEQy9/DADcIDAADEGDlbl+/kCA+QFB4AAABZjBzhAZJRwgO3tS/rPcjIAQAg74FTCw+ckQ4Af3UIIpl5eOA+4QEAAGIMnY2FB0gKDwAAgJxGjvAAyUjhged5kgMAQP4jpxYecF2NZITwwBHeyQEAIP+RUwsP/NEhiKTwAAAAaPWBIzxAMtLIuV94AACAGEOnGDnnOACRDBAeuLkcOcIDAABkPnK2KJ/kOASRFB4AAABZjBzhAZLCAwAAIKuRs6XwAMkg7+Tc2r6s92AjBwCAvAdO4Ubl9+R4kkMy95HzoPAAAAAxho7wAMlI4YHd08jx4Q8AQOYjR3iApPAAAADIauQID5AUHgAAAFmNHOEBksIDAAAgq5FTCw/8xSGIpPAAAADIYeQID5CMEh64RXgAAIAYI0d4gGSU8MCNwgMAAMQYOUV44Mx0AHjUIYik8AAAAMhh5AgPkIzyTs7325f1HmLkAACQ/8jZWHiApPAAAADIbeR8Ih0ABhyCSGYeHvheMXKOuk14AACA3EfO5sIDJIUHAABATiNHeICk8AAAAMhq5AgPkIzyTs73hAcAAIgxcmrhgT87BJHMfOQ8JDwAAECckfPxdADodwgimfV1tSIhPRQeGPDhDwBA5iNn8/KdHIcgkhHCA4d4kgMAQP4jR3iAZIyEtPAAAABhRs6W5cgRHiAZITzwPCMHAID8R47wAEnhAQAAkN3I+VjxUq5DEMnMwwO3ppGz51G3DfrwBwAg85EjPEBSeAAAAGQ1cmrhgRUOQSQDhAeO9E4OAAD5jxzhAZJR3sm5RXgAAIAYI0d4gKTwAAAAyG7kfFR4gGSA8MBtaeTslUaOD38AADIfOcIDJKOEB5YKDwAAEGPkFOGBM4QHSAoPAACAXEaO8ADJSOGBQ40cAADyHzmblOGBRxyCSGY+ch4svgzUdTUAAPIfOUV44CPFVQ6HIJKZhwduL8MDbT79AQDIe+RslkbOBxyASAYJDxzsSQ4AAPmPnK2EB0gKDwAAgJxGjvAASeEBAACQ1cgRHiAZZeQ8IDwAAECMkVOEB84u7qs7BJEMEB7YW3gAAID8R47wAEnhAQAAkNXIqYUHVjoEkRQeAAAAOYwc4QGSUd7Jubl9We9hRg4AAPmPHOEBklFGzv1p5OzluhoAAPmPnCI8cJbwAMkA4YEfCA8AABBj5AgPkIwSHugUHgAAIMbI2aq8riY8QFJ4AAAAZDNyhAdI5u5AR6fwAAAAUUbOpuWTnD85BJHMPDxwXxo5e7uuBgBA/iOnFh6oOgSRzDw8cIfwAAAAMUbO3DRyPugARDJzV6bPuival/ft60kOAAD5j5xaeKDLIYhkxhafcV/vWNqzq09+AABijJwzvZNDMnP708C5JLmzT34AAPIfOcIDJKOEB65KPtMnPwAA+Y+cIjzwYeEBktl/GejSnsuNHAAAYowc4QGSIcIDyW+kkfNsn/wAAOQ/coQHSEYJD1wsPAAAQJyRc4Z3ckgKDwAAgFxGjvAAySjhgSuT2/rkBwAg/5FThAc+lA4A3Q5BJDMPDywQHgAAIM6THOEBklHCAzv45AcAIP+RUwsPeJJDUngAAABkM3KEB0hGCQ/s4pMfAID8R47wAMlI4YFn+eQHACD/kbNx+U6O78khmbO9aeAsVFcDACDOk5wPOQCRFB4AAAC5jJzinZzThQdICg8AAICcRo7wAMnc7RMeAAAgzsiZW4YH/ugQRDLz8MAS4QEAAGKMnCI88AHhAZIBwgNXCA8AABBj5AgPkBQeAAAAWY2cLcvwQNUhiKTwAAAAyGHkCA+QFB4AAABZjZy55ZMc4QGSuYcHFie388kPAED+I2ejNHLOLO+rOwiRzDk8sEh4AACAGCNnkzRyPuwARDJAeKC4rra9T34AAPIfOcIDJIUHAABAViNHeIBkiPBA+STHyAEAIMDIER4gGSk84LoaAAABRo7wAMkoCenFwgMAAMQYOcIDJKO8kyM8AABAkJFThAfel/749zgEkcy8riY8AABAkJEjPEBSeAAAAGQ1coQHSEYJDyxyXQ0AgBgjZ6PySc4KhyCSmYcHliSf5ZMfAID8R87GwgMkA4UHtvPJDwBA/iNHeICk8AAAAMhq5BThgfcLD5DM3F7hAQAA4oyczYQHSAYKD+zgkx8AgPxHzkblkxzhAZI5258GzpXCAwAAxBg5RXjgLAcgkrmHB9LA+abwAAAAMUZOLTzQ6xBEMvPwwDe8kwMAQIyRUwsPPOIQRFJ4AAAA5DByauGBPzgEkcw8PHBF8tk++QEAyH/kPLUcOY86BJHMPDxwlfAAAAAxRo7wAMlI4QEjBwCAACNnizRy3is8QDJIeGAXn/wAAOQ/coQHSEYKD+zmkx8AgPxHjvAAySjhgYXCAwAAxBg5Ty2/J+evDkEkMw8PXO2dHAAAYoycjdLIOdsBiKTwAAAAyGXk1MIDfQ5BJIUHAABADiNHeICk8AAAAMhq5AgPkIwUHniOT34AAPIfOcIDJCM4kAbONd7JAQAgxsgRHiAZJTxwaXJbn/wAAOQ/coQHSAoPAACArEaO8ADJCPYIDwAAEGfkCA+QjBIeWCA8AABAjJHzlPK6mvAAydzDA9cKDwAAEGPkFHW1jzgAkczcbuEBAADijJwiPHBaOgD0OwSRFB4AAAA5jJytyndy/uwQRFJ4AAAA5DByNhceIBkoPPBcn/wAAOQ/cp5SXlf7i0MQycxHznXCAwAAxBg5wgMkI4UHnumTHwCA/EfO5uWTnAGHIJLCAwAAIIeRIzxAMlJ4YHef/AAAxHiSIzxAMsI7OZcLDwAAEGPkFOGB9wgPkAwwcq4XHgAAIM7IER4gGSE88C3hAQAAYoyczcsnOcIDJHMPD1wiPAAAQIyRIzxAUngAAABk9yRHeIBklPDAjj75AQDIf+TUwgOe5JAUHgAAANmMnI94J4dklPBA0oc/AACZj5xaeMAhiGSE8MDOPvkBAMh/5AgPkIxgVXgAAIBYT3KEB0hGeCfnMuEBAABijBzhAZJRRs4NwgMAAMQZOcIDJCOEB76d3FZ4AACA/EfOZsIDJIUHAABATiNnyzRy3pf++P/FIYik8AAAAMhh5AgPkIwUHtjJJz8AAPmPnKeW19UecQgiKTwAAAByGDlFeODsdADodwgimfN1tTRwviM8AABAjJEjPEBSeAAAAGQ1coQHSAoPAACArEbO5uXIER4gmfs7Od8VHgAAIMbIER4gKTwAAACyGjlFeOCsdADocwgimXl4oHiS8yzhAQAA8h85RXjgNAcgkgHCA98UHgAAIMbIER4gGSU88E3hAQAAYowc4QGSkcIDnuQAABBg5AgPkBQeAAAAWY2cIjzw4XQA6HUIIpl5eOAy4QEAAGKMHOEBksIDAAAgq5FTCw/81SGIpPAAAADIYeRsITxAMsg7Od/xJAcAgBgjZ6MyPPAnhyCSwgMAACCHkVOEBz4kPEAySHhgO+EBAADyHzlzhQdIBgoP7OSTHwCA/EdOER54r/AASeEBAACQy8gRHiAZKTywi09+AADyHznCAySFBwAAQFYjpwgPfDAdAHocgkhmbE8aOJcLDwAAEGPkzC3fyXEIIik8AAAAshg5wgMkI9hdjpw9fPIDAJD/yBEeICk8AAAAsho5wgMkhQcAAEBWI6cID3yg/A4JByGSOYcHFiS3Fx4AACD/kSM8QDKCXcIDAADEGTm18MCjDkEkhQcAAEAOI0d4gGSUd3K+ndzVJz8AAPmPnI3L8MAfHYJICg8AAIAcRk4RHjhTeIBkgPDAQuEBAABijJxNhQdIBgkPXJoGzo4++QEAyH/kFOGB04QHSAoPAACAXEaO8ABJ4QEAAJDVyBEeICk8AAAAsho5RXjgjPIqh4MQyVztTQPniuQOPvkBAMh/5GxaXldzCCIpPAAAAFqf+Z09z0kj54Ppj/8KhyCSwgMAACCLkZP+8F+krkZSeAAAAOQycp6W/KInOSQDjJzrhQcAAIgxcjZLfqv4NnCHIJKZhwcWCQ8AABBj5DwjeYkDEEnhAQAAkMvIeU55Xa3qEERSeAAAAGQycoQHSGbvQBke2M0nPwAA+Y+cWnjAyCEZITywnU9+AADyHzlFeOBS4QGSAcIDi4UHAACIMXKenvymAxDJAOGBb6WR81yf/AAA5D9yhAdICg8AAIDcRo7wAMn8wwNJ4QEAAIKMnKcLD5AMEh64Lrm9T34AAPIfOZuV7+QID5DMPTywJPlsn/wAAMR4kiM8QFJ4AAAAZDNyauEBT3JI5h4euFR4AACAMCNHeICk8AAAAMhn5AgPkIwSHrjWl4ECABBj5BThgUt8Tw7JzO1LA+dK4QEAAGKMnKclL3UAIik8AAAAchk5zxYeICk8AAAAcho5wgMkI9hfhgd298kPAED+I+cZyS8YOSSFBwAAQC4jpwgPfEN4gGSA8MBVwgMAAMQYOdsID5AMFB54jk9+AADyHznCAySjjBzhAQAAgowc4QGSwgMAACCrkSM8QDJKeOAa7+QAABBj5MxNXiw8QDJAeOBqIwcAgBgjpwgPfMsBiGSAd3K+LTwAAECMkSM8QFJ4AAAAZDVyivDA572TQ1J4AAAA5DJyhAdIRgkPXO26GgAAMUZOER74ejoAdDsEkcz5SU5ZVzNyAAAIMHK2Tn7bAYhkkPCAuhoAAAFGzg5leKDXIYhkgPCAd3IAAAgwcmrhgRUOQSRz/p6c8kmOuhoAAAFGzjOTFwkPkBQeAAAAuYycIjzwNeEBkgHCA9caOQAAxBg5WwkPkAxgt/AAAABxRo7wAEnhAQAAkNXIER4gKTwAAACyGjm18MBfHYJIZh4euCr5XJ/8AADkP3KK8MBXhQdIZu5AGjjXCQ8AABBj5BThge84AJEMEB74jvAAAAAxRo7wAEnhAQAAkNXIER4gKTwAAACyGjnbCg+QFB4AAAA5jZxNk18pr3I4CJHMOTxwvfAAAAAxRs6Wye86AJEMEh7YwSc/AAD5j5zty/BAn0MQyczDA98SHgAAIMbIER4gKTwAAACyGjnCAySjhAeuTO7okx8AgPxHjvAAySjhgRuEBwAAiDFytkhe5gBEUngAAADkMnKEB0gKDwAAgKxGjvAAyQj2luGBPX3yAwCQ/8gpwgOfFx4gGSA8sCS5k09+AADyHzmbJL8sPEAywMi5UXgAAIAYI0d4gGSU8MB308jZ3ic/AAD5jxzhAZLCAwAAIKuRIzxAUngAAABkNXKEB0gKDwAAgKxGThEe+FI6AKx0CCKZ+chZKjwAAECMkbN58nIHIJKZW62FB5I+/AEAyHzkbFeGB/odgkgKDwAAgBxGjvAASeEBAACQ1ch5lvAAySDv5CxO7uyTHwCA/EfOpsIDJIUHAABATiNns+Rl6QAw4BBEMvPwwGXCAwAAxBg5wgMkhQcAAEBWI+c55Ts5wgMkhQcAAEAWI0d4gGQUhQcAAAgycuaW19WEB0gKDwAAgGxGjvAAyQjhgcvTyNlBeAAAgPxHzrPKJzlGDsncwwPFOzm7+eQHACD/kVOEBy50XY1k5vYIDwAAEOtJzoXCAyQDuCiNnF188gMAkP/IER4gKTwAAACyGjmbluEBXwZKUngAAABkMXKEB0gKDwAAgKxGjvAAyUjhgb188gMAkP/I2U54gKTwAAAAyGnkbJb8Qvrjv8IBiKTwAAAAyGHkCA+QjBIeWJBGzrOFBwAAyH/kbCs8QFJ4AAAA5DRyni08QFJ4AAAA5DRyhAdIRvGKNHJ29ckPAED+I0d4gKTwAAAAyGrkbJL8bjoA9DkEkcz8utpC4QEAAGKMnFp4wCGIpPAAAADIYuQID5AUHgAAAFmNHOEBksIDAAAgq5GzufAASeEBAACQ08jZWHiAZJDrasWTnOcIDwAAkP/IeabwAMlA4QHX1QAACDByhAdICg8AAICsRo7wAMkoLpSQBgAgxsjZInmR8ABJ4QEAAJDLyCnCA98RHiAZ4LraIuEBAABijJwiPPAlByCSAcID3xEeAAAgxsiphQe6HIJICg8AAIAcRs526Q//BcIDJIUHAABALiOnFh541AGIpPAAAADIYeQU4YFvpQNAr0MQyQDhgecKDwAAkP/IeYbwAEnhAQAAkNPIER4gGcFqOXKEBwAACDBythceIBkoPLC7T34AAPIfOVsKD5AUHgAAADmNnCI8cKnwAMnMLT7jFgsPAAAQY+QU4YEvOwCRFB4AAAC5jBzhAZLCAwAAIKuRIzxAMooLhAcAAIgxcorwwOeFB0gGCA90Cg8AABBj5BThgW+W3wbuIEQy5/DAkjRydhQeAAAg/5HzdOEBkoHCA7v45AcAIP+Rs4PwAEnhAQAAkNPIER4gGSk8sIdPfgAA8h85WwkPkAyi8AAAAEFGThEeuER4gGSA8MCVwgMAAMQYOUV44CsOQCQDhAe+KzwAAECMkSM8QFJ4AAAAZDVyhAdIRvFy4QEAAGKMHOEBkpHCA8/2yQ8AQP4jpwgPfEN4gGTm9iWvSiNnJ+EBAADyHzlPS37VAYhk5nYLDwAAEGfk1MID3Q5BJIUHAABADiOnCA+cLzxAUngAAADkMnK2Lp/kGDkkhQcAAEAWI6cID1xcXuVwCCKZc3jgauEBAABijJxthAdIBgoP7OyTHwCA/EeO8ABJ4QEAAJDVyBEeIBkpPLCnT34AAPIfOcIDJIUHAABAViNno+TXhQdIBggPXOOdHAAAYoycIjzwNQcgksIDAAAgl5GzvfAASeEBAACQ2cgRHiApPAAAAPIZOdsID5AM4tI0cp7jkx8AgPxHzkblOzmuq5HMPTxwrXdyAACIMXK2Fh4gGSQ8cJmRAwBAjJFTCw9ISJMUHgAAANmMHOEBkrk7IDwAAECckSM8QDJSeOC5PvkBAMh/5BThga8KD5DM3P7kdd7JAQAgxsgpwgNfdwAiGSQ8sJNPfgAA8h85wgMko4wc4QEAAAKNHOEBklHCA0YOAAABRk4RHrjAyCEZwBuFBwAAiDFyivDAV4QHSAYID1wvPAAAQIyRs1XyYgcgksIDAAAgl5EjPEAyysj5rndyAACIMXJ2EB4gKTwAAAByGjlPEx4gGcQb0sjZ0Sc/AAD5j5wiPPDl9Me/ywGIZObhgWLk7OKTHwCA/EfOlsIDJIO8k3O5JzkAAMQYOdsJD5AUHgAAADmNHOEBklGuqwkPAAAQZOQID5CMFB7wPTkAAAQYOU9Nfkl4gGSAhPSNwgMAAMQYOUV44BsOQCSFBwAAQC4jpxYe6HEIIik8AAAAchg5RXjgc97JIRkkPLC3T34AAPIfOU8v62p/cQgimbnXCw8AABBj5BThgS8KD5AMEB5YKjwAAECMkbNF8hIHIJKZWxUeAAAgzsgRHiApPAAAALIaObXwwKMOQSSFBwAAQA4jR3iAZKTwwM4++QEAyH/kFOGBL6Q//isdgEhmbqfwAAAAMUbO5sIDJAOFB57rkx8AgPxHzrOEB0gKDwAAgJxGjvAASeEBAACQ1cgRHiAZxeuEBwAAiDFynpK8SHiAZACXCQ8AABBj5GyW/KbDD8kA4YEFwgMAAMQYObXwQK9DEEnhAQAAkMPIER4gGcE+4QEAAOKMnGcID5AM4rXeyQEAIMbIearwAEnhAQAAkNPIER4gGSo8kPThDwBA5iNnW+EBkkHCA5cJDwAAEGPkCA+QjBQe2McnPwAA+Y+cZ5QjR3iAZITwwK4++QEAyH/kbJT8fPrjv8IBiKTwAAAAyGHkzC3DAwMOQCQzDw8sTCNnR+EBAADyHznCAySFBwAAQFYjZ3vhAZLCAwAAIKeRIzxAMorXCA8AABBj5AgPkBQeAAAAWY2cTZOXCA+QDBAeuEJ4APWmvbNvdsfS3i3mL+19OkmGsbN3m/ab+uY088iphQf6HIJIBggP7OlYjjqPnA06OvtOKOp96Q//XSQZxDvS596Faeg8q1lHjvAASeEBYO1Hzsw0co5PP1/f93tGMpD9HcU18M6+o9s7B2c148gRHiAZKTywm2M5GjB0jkg/X3f5HSMZbOTckkbOMWnkzGnGkbOx8ABJ4QFgnUbOQenn606/YyQjmUbOjzs6+w9NI2d2M46cTcrwQL9/LJIZ25NclEbOTsIDqHt4oLOvI/183eP3jGQgB9LI+Wl758COaeS0NePIeabwAEnhAWCdwgPFOzm3+T0jGey62vfbO/sPFh4gyemzV3gAwgMkGSc88EzhAZJBvFp4AA0MD3gnh6TwQJOFBy4UHiApPAAID5DkFMIDPxIeIEnhAeQfHhjwu0YyWHhgp2YPDxg5JIUHAOEBkpzsdbVb2zv7D2r28IDraiSFBwDhAZLMJjzwWeEBkkHCA7s7lqMBQ+dI7+SQFB5ovndyiutqEtIkhQcA4QGSnEp44LBmDQ8UdbVvzPdloCTzDw8sTiNn52SbYznqHB5oTz9fdwsPkAwYHti5WcMDzxAeIBkkPHC58AAaGB643e8ZSeGB5goPfFZ4gKTwALBO4YHv+T0jGS880C88QJLT7FXCA2hgeOAOv2Mkg42cm5s5PLBp8gLhAZLCA4DwAElOITzww2YOD2wkPEAySHhgifAAGhQemCc8QDJoeGDXNHJmCA+QpPAAhAdIMofrare1d/YfKDxAktMfHtjXsRwNCA8cJzxAMuDIWS48QJLNER7Yw7EcDRg6RwkPkAwaHpgnPECSwgMQHiDJXMID93R09h/erOGBp5bhgV7/WCQzv652ZTFyhAdQ54EzK3lM+vm6S3iAZLDwwH3tnQO7NWt44OlleMAHM8kI4QHX1SA8QJL1ua52e3tn/wHCAyQpPIAMn+QID5AUHmi+kbOt8ADJIF7pSQ4aGB74gd8xksIDzTNy5goPkAzicuEBCA+QZIzwwFOEB0gGua52lfAAGhQeOFp4gGTQ8MDuwgMkKTyAPMMDxwkPkBQeEB4gSeEBCA+QpPCA8ABJ1iE8sKdjORowdI4WHiApPNB84YHz0//Qv/rHIik8AAgPkOQkwwN3d3T2H9Gs4YEnJy9O/0N7/GORDBAe2FV4AA0KD9zp/VaSAcMDezRreOBpZXjAPxZJ4QFAeIAkJ3td7Qftnf37N3t4YKV/LJIZ2yM8AOEBkqx7eOCo9s7Bmc0aHjhPeIBkAJcID6CB4QFPckgKDzTRyNlMeICk8AAgPECSU3wnp3nDA8NDp/djyap/LJKZhweuFh5Ag8IDRwkPkAwaHtizKcMDj39I9x+e/ofeVTx68o9GMtPwwALhATQwPOB7ckhGDA/s1wIf1IOz0wf1sel/8PeNHZLCA4DwAElOMHJuatrwwDhjp/j/Sh2f/offZuyQzCw8sJdjOYQHSLJu4YH2pgwPrGHszEnrbF76P+Be/5AkhQcA4QGSHPFOzl1pKxzZtOGBSYydme2dA/um/0N+6aVKki1qX/KaNHJ2Ex5AnQdO+hvZd2T6+brD30iSAcMDe7XMdbU1BAoOK3JxrrGRbNHwwO6O5ajzyJkjPEAy6HW1O1oiPCBQQFJ4ABAeIMkswwMCBSSFB4ApDZ1j5g//LfR7RlJ4IKOxI1BAUngAkUfOgfOHv2vO7xnJiOGBOZl/yA8FCvYTKCDZpOGBa4UH0KDwwBHCAySDhgf2zu662hoCBYem/8PvcY2NpPAAhAdIMsvranemM/++AT/4B4uXMeen/wC3GjskmyA8sEB4AA0YObOFB0gKD4T8AyBQQLIpXCw8gEbQITxAMuzIyTg8MIWxUwQK2tN/kJ/4wSApPICMnuYID5CM+E7OneWTnDn+ElQeCxTsL1BAcj2HB64r3skRHkCdB04RHji8fCfH3zSSkUbO/elMv0/Y62oT/3EQKCApPICWHjlFeOBY4QGSAa+r3VWMHH8Jxn+yI1BAUngArTpyhAdIRh05N4cOD0xh7AgUkGx0eGBvn7aoN+lv17z5w/+POr9nJIUHMO7YESgg2ajwwM4+ZdGApznCAySFBzDpsTOzvbP/QIECknUKD1xfhgd8wKKeA6cIDxwmPEAyZnigfz/X1dbpj0j/89J/yB+6xkZyHcIDC9PA2c0nKuo8cmrhgTv8npEMGB5wDbwOT3YECkgKD6DZRo7wAEnhAdRl7BSBghMECkhO0UXCA2gEwgMkhQdQz7FTBAo60n/gH/tBIyk8gGl8miM8QDLiOzl3pLP40UZOA6+xtXf2HyRQQHKi/49T8gbhATRg4MxIHio8QDJoeGB/19XWyx+b/kPSf/AfucZGcpRV4QE0aOQID5CMel3tbuGB9fxkR6CApPAA1tPIqYUHbvF7RjJgeOBIT3LW/9gRKCA5Ojywj09H1BvhAZLCA5iOsSNQQLLwJuEBNOhpjvAASeEBTN81tvbO/oPLQIEfTjJeeODGNHL2EB5AnQdOLTxwu/AAyUiW4YEDXFdrqj9KAgWk8ABQl5EjPEAy6nW1e9o7B/byl6AJn+yUgQLv7JAxRo7wABoxcoQHSEYdObeU4YEZ/ho059gRKCCFB4C1pnjxNv18fd/vGMmg4YHZ/hI0/9iZX15j88NLCg8Ak32aIzxAMmp44BjhgRa6xla+s/MrP8BkVuGBpcIDaMDAKcIDzxMeIBkwPPBAOjMfWJyd/TVouT9eQzW2H7vGRmYTHtjVJxvqPHKK8MD89PN1p98zksGuq/2wvXNgT38JWvjJTkdnv0ABKTwAjDVyZpd1NeEBksIDaMmxM0eggGxprxAeQCMQHiApPIAcxs7IQIH716TwADzNER4gGTE88APhgUyvsbV39j9PoIBsjQ/jZGcaOXsKD6DOA6ctecj84af8ftdIRgsPHCQ8kPUfuf6D0j/0T1xjI5v6nZwrhAfQgJEjPEAycnhgD38JAjzZ6ejs7/DODik8gFAjR3iAZNSR8z3hgVhjR6CAbN7wgJGDupM+8zvSz9f3/I6RFB5AhLFTBAqOLR7lCRSQwgPI+mnOAenn626/YyTjhQf6hAciX2Nr7+w/VKCAnPbwwLIiPOBTCXUeOEV44GDhAZJBwwMHCw+gCBQcmH4g7nWNjRQeQDYjpxYekJAmGe262o/aOwd295cAtSc7M8tAwe3GDik8gJYfOcIDJCOHB44QHsDosSNQQAoPIAOEB0gGDg90CA9gvLEjUECuH5enkbOLTx004GmO8ADJiOGB29MZdp7wANY0dopAwWECBWTDwgPLhQfQgIFThAcOSj9ft/o9IxksPPBgOrseIjyAKfzRFCggGxQe8CQH9R45c8rrasIDJKNdV/ux8ADW5smOQAFZ35Gz0Ds5aMDIqYUHvJNDUngAmMLYESgg63NdTXgADUF4gKTwALD2Y6cIFBwnUECutct8Tw4a9DRHeICk8ACwjmNndntn/+HpB+vXfsHIKXmT8AAaMHAKDxQeIBk0PPA84QE04I/rwAHpB+ynnuyQk3onZ5HwABowcoQHSEa9rvaTdBbdzV8CNOrJjkABKTyA6R05wgMkI46c7wsPYH2MHYECcs3hgf18WqDe19WEB0gKDwCNHzu1QME9rrGRwgNYL0PnQNfVSAoPAOtn7BSBgiMECshVwgN7+XRAA0bOAcIDJIUHgPU7dopAwf7pB/E+T3YoPNCzS9IHA+o5cGaX19UkpElGu652bzpj7lqcNYHpHDu1QMEPvLND4QGgbiNHeIBk9PBAm78GaIaxI1BA4QGgfiOnrXySc4vfM5LBRs7NwgNoxrEjUMBodqaRo+ePRgwd4QGSEcMDt6WzZLvwAJp17BSBgiPTD+qv/MJSeABYq5EjPEAyanjgUE9y0OxjpwgUHJB+YO/3ZIcZ2pNcLDyABgycIjzQ7kkOyYBPcn4qPIBWGjtFoKBdoIDCA8CkRo7wAMmo7+Tcms6MhwsPoNXGTvGH+0SBAubyYSw8gAaNHOEBksIDQAuOnSJQcLxAATNwqfAAGjR0Dko/X3f6HSMpPAC03tiZ3TEcKPilX2wKDwCrjBzhAZIRwwMPpLPhYZ7kIJex01YGCh7wZIctGB7YVXgAdR44RXhgnic5JAM+ybkvnQl3804Ochs7tUDBHd7ZofAAAo+c4v3F+cIDJIUHgLzGjkABhQcQeeQID5AUHgAyHju1QMHdrrGxicMDu/ttRQOGzsHzh59q+z0jKTwAZDp2ikDBUekH//98AFB4AEFGjvAAyYjhgfuFBxBx7NQCBQ96ssMmCQ8sER5AAwbOyPCAzzqSkZ7k3C88gMhjZ4ZAAYUHkCvbXt2z4YE39L64Q3iAZLx3cm4THoCxI1BA4QFkyDZLumdsvrj79VtdWb33oBt6iusbft9ICg8AAcdOESg4QaCA0+CNaeTs4bcQ9WbrJd2vmL2w+2czFnQPzl1SHTw4jR2/bySDhAc6hAeAVcdOESg4WqCAwgPI4GnO36SRc38ljZzCtuQmi7sHD1/q945k1uGB+8rrap7kAGOMnbb2zv4D0y/KQ57ssMHhgSvTyNkt6e4w6jlwnlBcVyue5NRGzkifvMjYIZntk5wHhAeANY+dIlAwr2O4UOSdHTYiPFC8k7OP3zbUeeRsODeNnDkLux8ca+TULJ7sHOKdHZL5hQcOM3KAyY0dgQI2Mjywv98y1HnkzNxscfcb0sh5YKKRU7vGVryzI1BAUngAiDt2BAooPICWYKsyPLCmkVNToIBkJtfVbhUeANbpyc5QoOAXPlBYh/DAnn6r0ICnOauEByZrLVBw2I1+P0m2bHjgCE9ygHUbO7VAwcOe7HAtwwNXCQ+gAQNng80Xd78ujZyHpzpyBApItviTnAeFB4D6jR2BAgoPoJlGzqTCA5N1KFBwo3d2SLbEOzm3l+EBfwyAOo4dgQJOxb7kIuEBNGDkFOGBYuTcX4+RI1BAUngAwMhAwV2usXEN3uCdHDSCMjzwcL1GzshAwWYCBSSb9Bp4Onstbl/Wd6jwANDwJzv9x6RfuJ/74KHwANbz05y1Cg8IFJBs6fDA0p7r25f37njk7YMz/CUAGj92ZpSBgp95ssMxwgO7Cw+gzgOnCA+8tnySM9CooSNQQLLJ7E1/T5cdc0v/5mnk+GMArM+xUwYK7vLODoUH0MCR88R6hgcECki2iN0dnT1XzFve+2wjB5iesSNQQOEBNHLkzJxb5/CAQAHJFhk5321f1run62rA9I6dDcqxI1AgPADUla2WdL+yEeEBgQKSzR0e6FmQRs5eRg7QNE92hq6x/cwHVDhvNnLQoKc5L5s9DU9yxnqys6lAAcn1Fx64rn15705GDtBcY6cWKPi5JzsxXpBMXi08gAYMnA22WNz9mjRyHlof4YGpBAqOECgg2djwwPIyPODvKtCMY0egQHgAWIeRU4QHXre+wwMCBSSb4J2cRcIDQPOPHYEC4QFgbUbOrOkKDwgUkGyS8IAnOUALjB2Bgny9Po2cvfyUo94U4YE50xgeECggOY3hgb29kwO03JOdoWtsD/sgEx4A1vA0pynCAwIFJKchPLCzkQO05tgpAgUHpbHzC092Wj48cE36QN5DeAB1HjhzmjE8MNmx8xSBApJreQ08/T296Zhb+rdwXQ1o8bHT0dl/TBo7d3tnR3gAGDFymjo8IFBAslF/V8vwwA7+EgB5jB2BAuEBYOTIafrwgEAByQaFBy4THgDyGzu1QMGdrrEJDyA2Wy4eCg881OojR6CApPAAgBFPdvrbBQqEBxD6aU4RHnggl5EzcuwIFJCcIDxwbRo5wgNA5mOnFij4P092mjY8cK3wABowcIrwwKmzh9/JGcht6NSusW2wsHvwoOt7XWMjuWp44Oa+LV1XA2KMnTaBgqYNDywSHkADRk4W4YHJuuEV3YP7Xdcz2O4zhRQeWNqzeN7yvu39JQBijR2BguYMDxzgpxN1HjmzypFzf4SRU/MpV1QH9zF2SOEB4QEg7NgRKGger0sjZ28/lag3Wy7uflVO4YGpXGN76qLhseMaGyk8ACDsk52hQMFDPhiFB5Dd05wswwNT8UlXdA/uf73PGTKQA2V4YBcjB0AxdmaWgYJferIzLeGBPYUHUOeBU4QHXp1zeGAqzhEoIKOFB7ZyXQ3AyLFTBAqOTgeBe7yzs17DA66rod4jJ1R4YNKBgoUCBaTwAIDIY2d2+c7O7cZOw5/kCA+gESNndsTwgEABKTxQhgf28CQHwERjpwgUPF+gQHgArUfU8IBAASk8IDwAYLJjpwgUdKSDwIM+QIUH0DJPc8KHBybrkwUKyJzCA9cIDwCY6tipBQp+5clO3b4n5zrhATRg4Mzecjg88IDwwOTdQKCAzCU8sLXragDWZuwIFAgPoLlHzobCAwIFZNDwwJJ5N/Vt5y8BgHUZO0Wg4ASBAuEBNN+THOEBgQJSeAAA1m3sCBSsvcX35Ozjpwj1RnhAoIAUHgCA+oydIlAwX6BAeABN8TRHeECggIwaHtjVyAHQiLFTBAoOTmPn157srDE8cH36QN5LeAB1HjhFeOBVwgMNDBTcIFBANqH9ZXhgG9fVADRy7NQCBT/0zo7wANbryKmFB1xXa3Sg4Hrv7JBNFh64ct5Nfc/ylwDA+hg7AgXCA1jPT3KEBwQKyKDhgcuFBwCs77EjUCA8gPVE8T05EtICBWTQ8MA+3skBME1jZyhQ8IAPZOEBNOxpjvDAtAUKqgIF5PSGB3YzcgBM59ipBQp+E/TJThEeuEF4AA0YOEV44JWzh6+rCQ8IFJCRwgM3z7up72muqwFohrFTBAqOSgeBHwV7Z0d4AI0aOcIDTRco6PXODik8ACDo2IkWKBAeQKNGzpw0cl4rPCBQQAoPAEDzjJ1aoOCOANfYrkkjZ1//6qg3WwgPCBSQwgMA0Kxjp//YdBC4X3gAmPLTHOGBJh87AgVkQ8IDVwsPAGiVsVMLFPw2syc7RXjgxuKdHOEB1HngzNpycfcrhAdawycIFJD1Dg883XU1AK00dpJZBQqK8MDioq7mXxd1HjnCAy06dgQKyHUOD1yVRs62/hIAaMWxk0ugQHgAjRo5wgMCBaTwAAC06NgpAgUvaPFAgfAAGoLwQD6BAmOHnMKTHOEBAHmNnZYNFAgPoFFPc14qPCBQQAZ8J6cID+xu5ADIaezMKgMFv2uRJzvFVbulwgNowMCZtdUS4YFcAwUOsuQawwPPcF0NQI5jpwgUHJnGzo+b/J0d4QE0auQID2Q+dvYXKCAnCg88018CADmPnVqg4AdNOnaEB9CokSM8IFBARg4P7O5JDoAIY6eZAwXCA2gIZXjAOzkCBWS08MDlwgMAAo6d/uPS2LlPeAABnuYU4QF1NYECMto7OVcJDwCIOnaKQMEhaez8vgnCA53pA3kf4QHUeeDM3GpJ98vTyLlPeECggAwYHnim62oAgg+eaQ0UCA+gUSNnw82G38kRHhAocI2N0cIDVxd1NX8JABg60xcoEB5Ao0aO8AAf88kCBYwVHlggPAAAq46d6QgUXJ1Gzn7+66PebLG4+1ThAQoUUHgAADBy7KyvQMEtwgNo0NMc4QGOOXaeUgYKOhyImW94YA8jBwDGHztFoOB5DQwUFFfjlgkPoAEDpwgP/I3wAAUKGMyB9Pf0lnk39W3ruhoATGrw9B+Rxs5P6vzOTi084EkO6j1yhAc45UCBJzvMwJ70N/Ua4QEAmNqTnXoHCnqEB9CgkbNBGR64zyGeAgUUHgAATGbs1DNQIDyAhiA8QIECCg8AANZ27Byfxs5P1zE8sIf/mmjA0xzhAa5zoGA/19goPAAAYcdOESg4dC0CBQNleGBf4QHUeeDM2HpJ98vSyPmp8ADX1Q0FCth64YFnua4GAHUdPP2Hp7Fz7yTf2SnCA0uEB9CAkVMLDzzskE6BAgYMDzzdXwIAqP+TnckGCnrKuprwAOo9corwwGuEB9ioQMG+3tlhc4cHdvMkBwAaN3YmEyi4Ko2c/f3XQr3ZXHiAAgUUHgAANHjsjBcoEB5Ao57mnCI8QIECBg0P7GnkAMD6GztFoOCwEYGC4unOcuEBNGDgCA9wWgIFBwsUsDnCA9u5rgYA0zJ4hgIF95RfBio8gHqPnKHwwGzhAU6DGwgUcHrDA9fOu7nvaf4SAMA0Ptnp6OzfJ30o7+2/Buo8coQH2BSBgr2u6xk8ZqnDN9dreGCh8AAAAJlShgfud9jmtF9ju6J7cJdrewbnGTtcP+GBBcIDAADk+zRHeIDN9T07aezsmsaOa2xscHjgSuEBAADyHDhtWy/pfqnwAJvR9HM5uMd1PQ7kbFR44Hvzlvdt77oaAAD5jRzhATa9M9PY2c01NtY/PHDdMTf3beMvAQAA+Y0c4QG2To2tvMYmUEDhAQAAMCHCAxQooPAAAADI7WlOER54yOGZAgUMZF8ZHtjLyAEAIL+B01aOnHsdmtnKgYI9BQo4RcvwwA6uqwEAkN/IeYLwAAUKGDg8sLW/BAAA5DdyhAcoUMCo4YEr2pf17upJDgAAGbL58MgRHmCWgYJdPdnhxOGBfb2TAwBAnk9zhAcYIlDQ7mBP4QEAAEIMnMKThQcoUMCY4YHeZxs5AADkN3Jq4YGfOQRToIDBwgPXCw8AAJDpyBEeoECBQ7/wAAAAyArhAQoUCBQIDwAAgNye5pwsPEA+PnYECoKEBzp7lggPAACQ98gRHiBL5wgURAoPPMfIAQAgv4HzhM2HwwMPO9ySAgXBwgM3FOGBNHL8MQAAILeRM3dx96nCA6RAgfAAAADIBuEBUqAgZnigV3gAAICMn+ac7LoaKVAQNDywt5EDAEC+I0d4gFyLQMEeAgWtHB64Zd7y3ucaOQAAZMbcxb0bbiY8QNYlUNDuGlsr2ZtGzo3CAwAAZMhTFvU88cmLev5x9sLqzx1WSYGCYOGBRe3LencRHgAAIEOedEXPv81aWP2tQypZ33d2jB3hAQAAMH1Pc948c2H37x1OSYEC4QEAAJDRyKn+n0Mp2cBAwbUCBU0YHrhZeAAAgAzZdFG1eCfn3z3JIddPoGB3gYJmCg8sFR4AACBDNltcfdJGi6r/NWdh9yMOoaRAQbjwwHLhAQAAsmSTRdV3p5HzF4dPUqBAeAAAAOTyNOdtsxd2P+rQSQoUBAwP7GPkAACQ58h5+2zv5JACBfHCAzfNW967o5EDAEB+A+eJmyyq/r/ZrquRAgXxwgOdwgMAAOQ5cp608aLqO7yTQwoUxHsnp2dx+/LenYUHAADIb+QU4YF3GTmkQEHQ8IB3cgAAyHToCA+QAgXxrqsJDwAAkPXIER4gBQqihgd2MnIAAMhv4NTCA392eCRbNFBgsKxteGDZMTf3bSM8AABAfiOnFh74q0MjKVAgPAAAAHIYOW3CA6RAgfAAAADIbei8bY7wAClQEC88sNjIAQAg35EjPEAKFEQMDyxvFx4AACDLgbPhJouq7xQeIPMOFOzhyc5Y4YHlwgMAAOQ5cp4sPEAGCRQs9M7OqPDAkvJJjj8GAABkNnJmFAlp4QFSoEB4AAAA5DR0hAdIgYKo4YF9jRwAAPIcOcIDZPDv2dk9YKCg+DLQ8ntyjBwAADIbOLXwwCMOe6RAQaBAQV8aOTeV4QFfBgoAQGYjR3iA5Grp6QDv7AyFB+YJDwAAkOXIER4gGTFQUIQHFgoPAACQKXOFB0iuYezsdE3P4LylwgMAAKB1nuYID5Cc1DW27a+u5hQe6Gxf3ruLkQMAQH4DZ8NNF1f/W3iA5GSdsWB47LT4k50iPHCz8AAAAHmOHOEBkmvlrPLJzlFLWzo8sKPwAAAA+Y2cmWnkvFN4gOTaOrs1x47wAAAAOSM8QLKe7+y0SI1NeAAAgMyf5rx9jvAAyTpfY2uJ8MCy3l2NHAAA8hs4T9h0cfUdsxd2/8nhjGS9AwU7NG+goAgP3HLMzX1PEx4AACC/kSM8QDJioKAID1wpPAAAQJ4jZyg8sIHwAMlYgQLhAQAAcmbu8Ds5nuSQjBQoEB4AACDzpznCAyTDBQo6lvYsFR4AACDPgSM8QDJioKAID3xfeAAAgDxHjvAAyYiBgiI8cNW85b3PFR4AACC/kTMrjZz/Fh4g2UyBgh0aP3aEBwAAyBnhAZIBAwW18MB+Rg4AAHk+zXmb8ADJZr7Gtt1V1UaEB25MI2c3IwcAgPwGzgabLq7+1+yF3X90mCIZKFBQhAduFR4AACDPkSM8QLIlAwVHLxUeAAAAY48c4QGSEQMFwgMAAOSM8ADJgIEC4QEAADJ/mlOEB/7gsESy1Z/sTCVQUIYHdjdyAADIb+AMhQfmCA+QzCxQ0D7xk53+NHJuEx4AACBDZi2sbvjkK6r/6roayWCBgmoaOVfPW977HOEBAAByY0F1ZtuC6mvbFnQ/7FBEMlCgoAgPXCE8AABArlzetUs6CDzoMEQyUKCgp6OzZ5HwAAAAeQ+dzdMh4IsOQiSjBAo6lvbcIDwAAEDuLOgqfGY6BJyf7HEYIpmzT/jWn6tPfOt3P7rBG762oT8AAADEGDxPT4eAzyQfdRgimZttC7oHZn/lN9W2N126ovLSC/5aOeX8M5JzffgDABBj7GybDgTnJv/iYEQyp5Ez64u/rM74p8tWVl524UAaOoPJ36eh877kFj78AQCIMXaKa2zvSnY7IJHMY+T8qjrjLZd3pZHTX46cmr9NQ+f05EY+/AEACDF2ejZKB4T3GjskWz5A8PXfV9v+4Tsrxxg5Nf+Yhs4Hkj77AQAIMHSK79fZJB0S3p30JaIkWzMpfemfq21vuLh4J2dgnJFTsysNnf9JbuAPAAAAMQbPU9Nh4Z3J3zk0kWyt8MBvq21v+uaKNQyckQoUAAAQbOxsXL6z8ycHKJItGh6YrAIFAAAEGzsblU92vLNDslXDA5P1t+XY2diHPwAAccaOQAHJ5g4P/ON3V67DyBkZKDgz2ebDHwCA/IdOESjYNB0m/keggGRzhge+MZnwwGRdWQYK5vgDAABAjMEjUECyucIDX51yeGCqgYJNffgDABBj7NQCBX900CLZouGBqQYKNvfhDwBAjLEjUEBy+sMD/7xO4QGBAgAAMO7YESgguf7DA1/7Xb3CA5P1D2WgYIYPfwAA8h86tUDBe5KPOnyRXG/hgb+ta3hAoAAAAIw5eGqBgt87hJFseHjgjQ0JD0zWRwUKAACINXYECki2enhAoAAAAIw5dgQKSLZ6eECgAAAAjDl2imts7zN2SLZweGCqgYKZPvwBAMh/6AgUkKxfeOBbRXjgkhVNcF1tPFekofPu5Gx/AAAAiPNkR6CA5DqEB35XbXvjJSuadOCMFSjYxIc/AAAxxo5AAcm1fyenOcIDAgUAAGDMsVMECv7bOzskWzg8MNVAgSc7AAAEGTsCBSQnHR6Y0ZzhgakECs4QKAAAIMbQqQUKTkuucJgjOW544I1NHR6YaqBglj8AAADEebIjUEBy9fDA11omPDCVQMF7k0/04Q8AQIyxUwQK3i1QQPLxd3J+WV5Xu2Ago6FT+FDy9WnsPMWHPwAAMcaOQAHJx0fOWy7rSoOgP7ORU/O+cux4sgMAQJCxI1BABnfWV39bnfEP31lZeen5/WkIDGY6dAofTv/3vSY5w4c/AAD5D51KZWF3cY3trclfO/SRwepqlz5SbXvDxSsqp3xuIJnzyKn5xzR0XmzsAAAQhWsHZ1UWVE9NB58HkgMOgGSA62pf/W217fVfW1E5+bODlZOLkXN+hKFTGzuvcY0NAIA4Y2d2GjuvT4egBx0EyZxHTtfArC/8X7XtzZeuTCNnYGjoxHias+o1NoECAADCjZ1Xp8PQ7xwIyXxHzox//HZX5eTz+pPDT3NOOT/a0BEoAAAgHNcMFGPnjelQ9FsHQzKz8MBXfl1t+/viSU4aOScVI+ezkYfOcHp6+BrbTB/+AADk/1SnUlnc+8Q0dv42HYx+43BIZhIe+OYj1bbXf2VF5aTPDFROOndw+GlOeW0t7tAp/EMZKGjzBwAAgBiDR6CAzCU88JXfVNte++VHKy/59GDlJZ8ZHH6ac170pzkj/VP673Cqa2wAAMQZOwIFZCuPnMu7BmZd9Itq2999Y2UaOQNDQ6d4muPa2njfsyNQAABAsLEjUEC26MiZ8eZvFiOn//GnOaOurRk4YwUKnuTDHwCACFwzNHbeJFBAtlB44Mu/qrb93cVp5Hyqv/LiTw2uPnQ8zREoAADAU51aoOCNAgVkK4QH/lRte+0XV1Re/L8DyXLk1K6tnStCsGZ/L1AAAECswSNQQDb79+QUCelTL3q08qJPDlZelEbO6Kc5J7m2NsVAwYY+/AEAiDF2BArIpn0n5+fVtjd+bWUaOQNDQ2foac6nRj3NcW1NoAAAAEw0dgQKyGYaOZ//WXXG31/cVXnROf2PjZzHrq2NESEwdAQKAADAmGNnlkAB2SThgS/9str2pq+VI+ecwceHjmtrdfJBgQIAACIxHCgwdshpDQ/8sdr2motWVF74iYHk4JhDx3fn1MPfpf9uL0r67AcAINCTnVeX7+wIFJDrMTwwuwgPvPKCFZUXfGyw8sKPjzNyxnqaY+ispY8IFAAAEGvs1AIFDziAkuvvnZy2N3x5ZRo5A5UXpJGzxqc5IgR18mcCBQAAxBs7r3aNjWz8yJl54cPVGW/6alcaOf2PPc0ZPXRWezfnPBECgQIAALCWY0eggGx0eOCLv6i2/e2X08j5aBo5Hx0cfppTGzrjRAhO9n5OAwMFs3z4AwAQgccDBdLTZL3DA5f8odp26oUrKi/4yEDl+R8ZHHqaU7u29sLxamtGTgP97VCgAAAAhHiqI1BANuC62uwv/6ra9vJzV1ROPGtweOR8dHC1a2u+O2c6/HP67/pqgQIAAOIMHoECsm7hgYerba+7aGUaOQOV5589YuhM9tra53x3TuMDBa8TKAAAINbYOdU7O+Q6hAcueKg642+/1JUGTn/lxHLkPP+jq15bG7e2dq5rawIFAACgQWNHoIBc2/DAF35ebXvDF7oqJ57VP3xlbdTQmVRtzXfnrEcfECgAACASAgXk1MMD3/h9te1Vn1tROfHDA8nB4ac5Z6/+NKd2bW1o6HxqnKFj5KznQMGLffADABDjqU6lcs1A7Rrbfcl+B1lyovDAL6ttf/PpFZXjPzhYOeFDg0NPc06czNOc0dfWfHfONPlI+m/+KoECAADiDJ40drpfnLxVjY0cJzxw4UPVttdesLJywgcHhkbOCR8eXOXa2mMRgtFPcya6tmZ8TGOg4Mk+/AEAiMLlXcekQ909Drbk6PDAg9UZb7ioK42c/see5pww0bW1c9b8JaGe5ggUAACA9Tp2jk+Hu7sdcMkyPHDRz6ptr/t8V+X4D4wYOaOurb1ggmtrq9TWzhuRlTZ0BAoAAMD6HDqzkiekA94PHXIZPjxw8e+qba88d2Xl+DMH0tAZXPVpzljX1tbw3Tm1a2snq601ib9JQ+clPvgBAIgzdtrKa2zfT/Y58DJmeOAX1baXnrOycuwZg5Xjzhwce+hM9rtzRl9b835OkwUKXpl8gg9/AADiDJ6OdOj7nkABY42clQOzLnig2nbqZ7sqx75/oHJcbehM9tpabeSMFSFwba1J/blAAQAA8cbOMd7ZYajwwPn3V2e87oKuynHv709DZ3jkHDfG05wTx6qtnbOGofNZWWmBAgAA0ERjR6CAAewanPX5IiF9/oiRM8a1taGRc9aqtbWJvjtnaOic59paawUKZvvgBwAgxtARKGD+4YGv/6ba9opPrawce/pAcuyRM+bTnFFDZ00RAk9zmt1fCxQAABBr7BSBgnkCBcw2PHDKx1ZW5r9vsDI/jZziac6krq1N9btzDJ0WChS8QqAAAIBYg0eggJmFB+6vtr3q012V+e8dGBo6x54+YuSUEYIpX1v79KjvzvE0p0UDBa8VKAAAINbYmeedHeYwcmZ+7r7qjNd8thg5/cnyac6Ia2sTPc15/hi1taGh49qaQAEAAGjlsSNQwNYOD1z4YLXt1PPSyDmtv9JRjJwR19ZGJqUfe5oz3peETua7cz4nQtC63i9QAABArKEjUMDWDQ987VfVtpefs7LS8Z6BSsdpg8NPc0ZeWztjnC8IPXuStbUxnua81NOcFg8UnOSDHwCAOGOnFii4VaCALRMe+NLPq20nnb2y0v4/g5X29ww+PnROX/X9nOMnc23tE6OurY333Tnnu7bW+v4p/Ru+XKAAAIBYg2e+QAFbIzxwX7XtFZ/sSiNnYGjodBRDZxLX1oaGzsiRs6Zra+eOurZm5AgUAACAVh07AgVs8vDAT6szTv1MGjnv7l/9ac4krq2Nfpoz7tBxbS1AoOB1AgUAAMQaO0Wg4B4HazaVlxfhgfurba/+9PDImffuwbGvrb1/4mtrq0UIRtTWhkbO/47/3TnGgUABAABo6aEjUMDmCw989ZfVtpd9bGVl3rsGkuXIqV1bO231pzm1oTM0ckZ9d84LJogQrFJbO8+1tfz9Vfq3PdkHPwAAccbOjGS7QAGbJjzw4g91VY75f4OVY9LIGf00p+O94wydtb225ktCAwYK/ia5gQ9/AADiDB6BAk5veOD8+6ptL/t4MXIGhobO0NOcd5cjZ22urY0aOS88x7U1Fv5CoAAAgHhjpwgU3OXgzfUeHvjsT6ozXvWp7sox73x85Iy+tjb/vZO8tjby3Zw1PM15iWtrAgUAACDK2BEo4PoNDxQJ6Vd+shg5/cnBx4fOWBGC96363TkTXVtbLUJwzoinOWNcWzvF0AkXKHjpBcdVTrlwpg9+AABiDJ0iUHCiQAHXS3jgy7+otp1ydlfl6HcMVI7+78Exh87Id3Pmj/E0pzZ0ThxdWxsnQvCST7m2xmFPueCeNHT29cEPAECcsVMECjrSQfS2ZL8DORvwJGdg9pd+Vm174RldlaP+azANncHxn+a8ZxJDZ5wIwQvHej9n9NARIQjsQBo7D6axc4AnOwAAxBo8AgVsTHjgc/cOP8k56r8GhofOeE9zRkcIpnpt7ROPf3fO0NAZNXJcW+Pw2LkzeUwaO3N88AMAEGfstAsUsK7hgfN+XJ3xik90Pz5y3rH60HksQnDa40Pn2MleW5vEd+fUIgQnubbGIfvT0Lk52WHsAAAQb+wsclDnOocHzr83jZyPp5Hzn/3JwVWHzmQjBCO+O+exoTPBtbWx3s957GmO2hpXGTu3JI92jQ0AgCgs6JqR3C8dVpc4sHPtwwM/r7ad8uGuylFvH6gcWY6c2rW1o8d7P2fUuznHnrGG784ZkZUe9wtCx4oQGDp8bOzcLVAAAECssdOW3C0dWBckex3cOZUnOUPhgRec3lU58m2DlSPfPrj605x3TuK7c06fYOicPfaXhL5oggjBSZ7mcMJAwf6e7AAAEGvw7JIOr5cl+xziOenwwMkf6qoc8R+D4w+dia6tnb7qtbVVRs6arq19csS1tTEiBIYOxx87d5XX2LyzAwBAsLGz2EGeaw4P/Kg64+Uf604jZ2B46KSRM/ra2oS1tal+d86ILwmd6NqaCAEFCgAAwDhjZ29jhxOGBz53bxo5Hy1GTv/QyDnibasOnXFra6O+O2fC2tpZq9fWJrq2JkLAtRs7AgUAAAQaOgIFHD888MWHq20nfbCrcsS/Dzw+ct5Wjpz/HBEhKK+tDQ2dUdfWHhs67x/x3TkfWMN354yqrQ2NnFHX1k723Tmc8ti5Kw2d/XzwAwAQa+zsng62CwUK+Hh4II2cE0/rqhz+b4NDrvI05+0TPM0Z40tCJ3qaM+6XhI54P2es786pPc3xRIdTe2fngaGx48kOAAChBo9AAcvwwE+qbS85s7ty2L8Oj5zD/31w3AhBbeRM6draOCNnStfWRAgoUAAAAKY2dnypaOTwwLk/7JnxsrO6K4f/68CqQ2fktbXJfHfOyC8JHXFtbVLfnTOFa2sO7hQoAAAAkxw7ewkUBA0PfPbH1aGRc9i/9CcHx7y2dtQEEYJVamvvHZGVnkyE4COrPs0Z99rauSIEFCgAAABrNXQECiKGB77wULXtxWekkfPWgaGRM5lraxN9d07t2tr8Ma6tDQ2dca6tPTZyRlxbe8nIa2vnihCwnmPnzqEvFQUAAKHGzh4CBUHCA1/8WbXt+Hd1VQ7958HKoW8dHHvojPzunHdM4rtzRryfM5nvznn+GNfWhobOp8b+klDX1ljfQMG+nuwAABBr8BTv7FwuUJDpOzmXrRworqu1veh93ZXnvWVwlaEzqWtrtZFTixBM9dra2at+d84LJ4gQuLbGxo6duwUKAACIOXYECjIcOTM/c0/PjJd+sLty6FsGhofOW8uhM+ppzmpDZ0SEYLXa2mlTr61NGCEYo7bm2hoFCgAAQJ3GjkBBVnW1roFZ5/2oZ8YpQyOnf7WnObWhMzRy/mPV2tpEEYJVamunjxg6k6mtjRUh+F/X1ihQAAAAGjp0BAqyCg88WF5X+6eB5KiR8y9reJozYuhMJkJw7HhfEjqV784ZnZX2NIcCBQAAoL5jpwgUXOGdnRYOD3zp4Z62497ZVTnkHwcqh6SRUzzNmdS1tTV9d87/rB4hqF1bm+p356wydD6z+peEvtTQ4XoJFOzjyQ4AALEGj0BBi34Z6FB44Pnv6aoc/A+DaegMDj3NWddra6tECE5bdeSs8draR1e9tjZRhMC1NU5PoOAo7+wAABBv7AgUtFR44O6eGSef0V055B8GkoPDT3Nq19b+eeKnOUeOUVsbGjqT/e6csb4k9CMT19ZW++4ctTVOyzW2WwQKAACIN3b28s5Oi4QHzv1hz4yTzkwj5839jz3NOWSipznjfUnoFL47p/Y0Z0q1tTVECAwdTs/YuSl5TBo7s3zwAwAQY+gIFLRCeODzD1TbXvCe7srBfz9QOfjNg8NPc0ZeWxsnQjA0cmrX1v5zgmtr7xnx3TlreJqz2tAZESF44Zq+O0dWmtM6du5IQ+cAH/wAAMQaO3uW19i8s9OM4YH5/9lVOSiNnIP+fvDxofNPYwydfy2f6Ez22tpUvztn5LW1s9fw3TmfHjF0znNtjc0UKNhboAAAgFiDR6Cgyd7JKb4np+2Ed3VVDnzTYOWgv0sjpxg6k7i2NjR0Ro6cqVxbm8rTnFqEYPS1NU9z2MSecsE9AgUAAMQcOwIFzRAe+PRdPTNe8r5q5aA3DQyNnFWe5oyqrU303Tm1pzlHjfcloeNcWzv2jEl8Seiavjvn3NWHjoM2BQoAAMA0jZ09vbMzzQnpz9yTRs7pwyOn9jRntWtrb1n92tpq7+eM9SWhtZEz6traRBGCoaEz8mnO2WuorYkQUKAAAAA039ARKJjO8MCF91Xbnv/u7sqBb0wj5/+3d6dNclWHGYBvj4TZxA52THCICQZjkDBLjDGFWcUmFmlGGBJsYWEIm4olbDEYsUsswQQkdpixA1/yJYkBQRIbg51KpSpxzOKCJJWKXVQlcSqJjTFOmG5Bd8693T260+ru6REIpHOep+r9C615dc59zzmtktO+tnZ+77dzPt/l7Zwj+ryd0/Pa2s19rq3dueba2kTRuWfNtbWi6Hg7RzaqsvNiKDoH+eEHgKTKTnXXylPj3wh/fI8rIO/T8MBjr9Uqcy8fzz5zdrPkdJ7m9Hwk9NJ1vLZ23RRv59xWejun89raXdN8O0fRkQ16oGDfkCE//gCQTOGp7RTKziPhD/G3lJH1PTzwaq1ywtWh5HylEYpOY81pznml05zpXFtrl5zWCMGR10zv2lq/b3Ome22tKDmurckGP1BweCg7m/jhB4C0ys5Y+IN8tVKyPkrO/9Zn3PdyrTL/hmooOfWi6BSnOeVraz1GCLpeWyt/mzPF2trcLmtrxw36dk7HtbW+a2uP+j5HNpaBgrkGCgAgqbJT/fXWNTZl5z0fHvhRbWhBqeS0T3O6jhB0PBI6UXS6XFvr9n3OpNOc6yavrU35dk7HCMGUa2vezhEDBQDAhn+qUwllZzcnO+/18MC/VCsnfm08++2z6iGNrkWn/G1Ov7dzDutcW+sxQjB36RTX1pZN8+2czqLTZW3NtTXZ+AYKPuuHHwDSKjsfM1DwHg0PPP5arXLU74eSsziUnMWtkvOVLqc5gzwS2mOEoF10jux3bW26b+eUvs/peprzgLdzJIaBgn8NZWeOgQIASKvwGCh4l9/kzHzolVrluKvGswPPbGQHfrnR+zSnc4RgutfWrl7zdk5RdMolZ7rX1jpKjmtrEv9AwasGCgAgzbLjGts6DQ+8VKucfG01FJx6s+QsXrvolEcI2kXnkEGvrbVGCPq9ndM+zTmm2yOhfa6t9Xw7p8/amqIjBgoAgI2r7BgomPbwwP0v14ZOWRpKzpn1Nac5paIz0AhBt6LT59raxGlO6fucidOcG7u8nXNrj7dzOkYITlkxwNqaa2tioAAA2PhOdQwUTGd44NF/rlbmfXU8O3BRPTugVXLa19aKotNtba3j25xDyiXnki5v51w59aT0MX1GCNpFp+cIwRTX1oqiUxohcJoj8ZSdFwwUAEB6ZcdAwSDDA0dcNJ4d8KVQchY1up/mdF5bO6/jNGdJR9EpPxJ6xeRra4O8nTNxbe2Wwa6tTTrNaRWdouTc2/s0R9GR+AYKZhsoAIC0Co+Bgl7DAw++UqvMvWw82/+LjVB0Gr2LTq9ra0smX1ubVHKmc22tS8npe23tD9e+ttbtNGe427W1R1xbk5gHCg4zUAAA6ZWdUdfYSsMDK1+sVU68uhpKTj3bv1VyOq+t9V1bm+7bOaWi0+/aWr+1taLo9BohuHvtEYJJa2sPurYmBgoAgBjLTjFQ8M3Uy07lyf+rz7z3pdrQSde0Ss4XG2sVnZ5rax1v50w5QlBeW/uDAb7PKY8Q3Nz9NKfr2zlTfZvTsbbmkVCJu+z8rYECAEjrVKc5ULBq/Bshb6dadGY+/E+1yvFXhpJzRig5ZzTWXFs7szHp7ZxJRafj2trBF5RGCKbzdk7p2lpRctrX1q7rPUJwQre1tTunvrbW9e2ch53mSEoDBQf74QeAhMpOZVX1N4aeGn8slJ1acsMDj71Wqxx+YTXb73frIY3JpzmL+pzmdHkktN9pzsBFp2OEoH2ac2yva2u3T/PtnHLRcWVNkhwo2MdAAQCkVXh2CmVntJLIGlsxPPDAj2qVoy6uZp/+nUZRcvYrn+YsmnyaU5Scdbi21q3kTOvaWmmE4Lh3cW2tKDgPNE9xDA9I2gMF/xjyeQMFAJBW2flwKDvRX2NrDg+8UKvMuyovOfXuRWfQt3PKj4SWrq11O805vNdpzjUd19YGeDunPUIwr8u1tZNLIwT5ylp7dMDpjYiBAgBIVWVVdedK8xrb2/EOD7xYGzrxq6HknB5KzumtkpNfWztjzbW1A/uMEExaW7ugNCs9yAjBlZNPcwa5tlZ+O+eEfm/ntE5zioJzv9MbEQMFAEDpVCf/Zme3fI0txrIz8+FXa5XjLg8l57RmyZny2tri/qc57WtrPYvOZVO8nVO6tja3Y1a612nOvC5v5+TjA8XpzUMe/xQZvOz80EABAKRXdnaNaqAgHx54/LVa5fPnVbN9v1DP9j2t0b3olN/OWTz5+5yub+eUvs8Z5O2cnkVnafdHQvu+nfP15ulNfjXNRLTIug8UDI/tkM0f89sPAAkVnigGCiaGB45cUs3mnNoIRacxUXQGvbZ2UHmEYLrX1q4ovZ1zVffTnEGurRWnOHc2v78pyo1iI/IeDRQ8my0c3SOUHWtsAJBQ2dmoBwqK4YEVP6xVjr+8mu17aj2b0yo5RdHpOM3Zv8vaWvva2lpra+dPf22t7whBl7W14oHQ5c3rafnIwIL7m6MC/jAVea9TC2XniVB29lV2ACCtsrNRDhQUwwMrX6gNzbuyVXI6TnPaRWf/Lmtr/UYIJq2tLSkVnX5ra1cN8Eho+zTn5ubpTVFu7m2OCriWJrK+Mx7Kzp+HsjM7lJ2KH34ASKPobJQDBTMfeqVWOfbSajZnYSg5CztKzuml05yprq0NMEJwSK9HQjvfzul1be365ulNXm4mFtOUG5EPoOysykZGd/PDDwBplZ18oODxDX6gIB8eeOy1WuXQc6rZ7JF6NjuUnPw0pzjRmeraWufbOZ1F59y1Rwja19aKknPJ9N7Oya+o5d/d5OXmVG/diGwAWR3Kzl9nw2PbGygAgLQKTz5Q8GAoO29usMMD979cqxx2XjXbZ7gRik6jOM2ZVHLW4drapBGC8yeXnEGvreUFpyg3NzZX0/Jy449KEQMFAMAG4rnGpps8/dZtQ6vG39rwhgf+oXldbfZwPWRN0SmureXpnJQuXVvrWXSm+3ZO+ZHQK5unN0W5ub2RzV9hUEBk4xkoeDKUnTnKDgAkZMa3V8/60NPjd814ery6wQwPhJIzlK+rzV5QnzjNaV9bm3KEoGNtbdC3c9qnOZ1ra/kJTr6glj/u2Z6D9oejyMb4zc6fGSgAgLROdbIP/eXqnTZ9prpBlJ3inZy5F9WyffKSs6Ax6TSnfW1t0ghBq+gUJad9be3MPtfWziu9ndPjNCcvOfnpTf6gZ35yM/KAb25E4ig7T4Wy81u+2QGAlMrOX63ePpSdFUNPf1CPiubDAz+pVQ45q5rtPT+UnPmNtYtOx2lOcaLTMUIw5fc5Pd7OyQtOfnqTP+o5f2VrLe0RfxyKxDdQ8P1seGw7ZQcA0io8m27+TPXOUHZ+9f4PD7xUqxx6djX71MmNbO9TmiVn4traSO9ra/t1fpsz4LW1vODk3+Hk5SZfTMtPbvwRKJLKQMF3s4Wjn/DNDgAkVnY2e6Z6Vyg7tfdteOCeHzSvq+19cr0oOXt3O81pFZ1+b+e0T3MO7PVI6PnNK2r5PHQ+KnDyXa1HPP3hJ2KgAACI3szvvLPlps9U71nf3+wUJzkrflAbOvaSZslpn+asVXROXfvaWvntnAOmeCQ0Hx3IV9PycnPSneagRcRAAQAkeqrzvgwUzHzg5Vrl6CW17FMnhZJzUqvk5NfW5jfWfjunVHT267K21llyDjq7eTWtOLn5o1Bu7vPNjYgYKAAAZacYKNghlJ2V62OgYJM//kmt8rkvV7O9Tqxne4WS0/M0p7PodJzmlK+t5QUnP705emkoN3e31tKUGxGZcqDgewYKACC9wvOeDhRMDA98bnE1++S8Rig6jTWnOfMba9bWSiMEk2alS0UnLzj5Nzj5elo+B52f3PijTUTWbaDguWzh6O6+2QGAxMrOZs9Uv/5uBwoqT/yqPuOev69VjrqwFkpOPdsrLzonNSZfW+t3mnN687pa/u3NoReHcnN1I5t3u0EBETFQAACsmxnNgYIV6/rNTnGSE0rO0DEX1ULBqU+c5gx0be205vc3+YOe+bW0vNyMPOgPMxFZnwMFyg4AJHKq864GCorrakeeX8s+eUIoOSc0mqc5rWtrvd7Oya+p5e/ezL2+uZa2IB8UeNQfYyKyvsvOkwYKACC1srNmoKA6+PDAj2uVzy6qZnseH0rO8Y3mac687qc5+SnOZ85qZEd9rbWWdr9BARH5IK6xPW+gAADSKzwDDRQU19XuezGUnC9Vsz2ObWR7HtcoTnMmRghObp7g5Cc3+Xc3+UOeC1b6I0tEDBQAAB9c2dniL6orZqwaf7vX8MDMu/+uVjni3FooOfWi5Ox5fLPo5NfV8u9uDvq95kOe8+5oZAsf9keViGyoAwW+2QGAlOzy/Xe22+KZ6mhn2clPcmaEkjN09IXNkpOf5uRX1vLvbg46J5SbqxrZ8csa2fAD/pASEQMFAMCG5eN/08h2fHb1LqHsPFQuO8V1teIk55h6cUUtf+/myHwK+rZGNn+lb25EZGMdKNjdNzsAkE7Zqez07OqdQ9kZy8vOJt/8ca1y8KJq9unT69lhVzTX0obvU25EJIZrbM8ZKACA9ArPVlv/yU/vqMxf/p/ZKSv8USQisQ4UPN+anq745QeAVMwf2zT7wqNLwx8Dv/QHkYgYKAAA4jE8unkoO8vCHwO/8AeRiEQ+UDBH2QGAdE51svCP/w6h7Nyo7IhI5GXnCQMFAJBe2dk+lJ3lrrGJSOTX2L6bDY9tq+wAQFqFJ/9m59rwx8DP/EEkIhEPFHwvWzi6m4ECAEiv7BgoEJGYs9pAAQCkaMGYgQIRMVAAAER3qmOgQERSyFutgYJP+GYHANIrO/lAwZv+IBKRiAcKns2Gx7bzww8AKZUdAwUikspAwYiBAgBIrfAYKBCRFAYKnsoWju7jmx0ASMmCsc1a19h8syMiBgoAgGhOddrf7Nyk7IhI5AMF3zJQAABplZ1KaaDANTYRiXmg4DvZ8Nj2fvgBIKWTneY1tqUGCkQkgYGCjxsoAIC0Ck97oMD0tIgYKAAAImKgQETSGCj4UwMFAJDWqY6BAhFJaaBgDwMFAJBO2TFQICIppBrKzrez4bEd/PADQEonOwvGNg9l5zoDBSISceqh7DyfjYz+poECAEir8OQDBdcaKBARAwUAQIxl51bf7IiIgQIAIC4GCkQkrYEC19gAIJFTnXygYMdQdpYZKBARAwUAQExlJ8uGR7cwUCAiiQwU7OpkBwDSKjz5NztLneyISOQDBd/KTn10dz/6AJBe2Vnumx0RiThvht+5+0PZ+ZgffQBIiYECEYk/r4eisyLkw370ASCdUx0DBSKSxsnOqcXJzqZ++AEgnbLTHii43kCBiEScd0LReThkGz/8AJBW4TFQICIJPCr66L0hO/vRB4D0yo6BAhGJOW+EonOPgQIASM3C0e0NFIhIIgMFH/GjDwDpnOoYKBCRlAYKNvPDDwDplJ18oGDLUHZuCH8M/NwfRCISad5uDRRs7YcfANIqPAYKRMRAAQAQbdkxUCAiBgoAgMg0BwpuVnZExEABABDTqY6BAhFJaaBgcz/8AJBO2ckHCmYZKBCRyLPaQAEApFl48m92rivutPuDSEQMFAAAkZUdAwUiYqAAAIiMgQIRSWOg4B4DBQCQ1qlOZqBARBLIL0PRuc9AAQCkVnZGioGCGw0UiEjkAwUPhWzlhx8A0io8BgpEJPZUWwMFH/WjDwDplZ3lyo6IGCgAAOJioEBE0hko+DU/+gCQzqlOXnZ2MlAgIokMFGzhhx8AUio7I6NbhbJzk4ECEYk4tdZAwSw//ACQVuExUCAiBgoAgGjLjoECETFQAABEZuHodgYKRMRAAQAQ26mOgQIRSWmgYEs//ACQUtlZM1Dwuj+IRCTygQJlBwASKzz5NzvX+2ZHRBIYKHCNDQASLDsGCkQk9mtsBgoAIDnNgYJbDBSIiIECACCmU53yQIGTHRGJ+WTnXt/sAEBqZWdkdOvW9LSBAhGJ+ZudB5UdAEiv8LQHClxjE5GY19gMFABAomXHNTYRMVAAAETGQIGIpDFQcHfIR/3oA0A6pzoGCkQkhbzRusY2yw8/AKRUdkZGt2md7BgoEJHYBwq28MMPAGkVHgMFImKgAACItuy4xiYiBgoAgMgsHN3WQIGIGCgAAGI71TFQICKpDBSsNFAAAKmVHQMFIpLOQMHmfvgBIK3CY6BARGLP6tZAwUf86ANAemXHNTYRiX2gIP9mZxc/+gCQkuZAwTInOyJioAAAiOlUx0CBiKQ0ULCVH34ASKnsjDjZEZHoM94aKNjMDz8ApFV4DBSIiIECACDasuMam4gYKAAAIuMam4gYKAAAIjzVMVAgIqkMFFzmmx0ASK/s5Cc7y53siEjEeTMUnQtDZvrhB4C0Ck/+zc4Nyo6IRJxqKDpLTE8DQJplxzU2EYk5/xVySSg72/nRB4CUjIxuY6BARCLPv4VcGsrONn70ASCdUx0DBSKSQn4ais5FIZv74QeAtMrOdq2BAmVHRGJ+Z8dAAQAkWHgMFIhI7KkZKACAdMvOsuJ/Pv1BJCJx5r8NFABAipoDBd7ZEZEUBgq29aMPAOmc6hgoEJEU8h8GCgAgzbKTDxTcquyISMR5ozVQMMMPPwCkVXjaAwWv+4NIRCIeKLjQQAEApFl2DBSIiIECACAyBgpExEABABDhqY6BAhExUAAARFl2KqHsbB/Kzm3KjohEPlBwgYECAEiv8BgoEJHYs7o1UDDLjz4ApFV2Ngtl5xYDBSIS+UDBxQYKACA1I6Nbt97ZMVAgIjEPFFxioAAA0jrVMVAgIgYKAIAoy055oMA1NhGJNb9oDRQM+eEHgLQKj4ECEYk9b7fKjoECAEis7BgoEJHY8z8GCgAgRQYKRMRAAQAQ4amOgQIRSSH/HpIPFGzhhx8A0ik7+UDBDqHs3O4am4hEnNcNFABAmoXHQIGIxJ53DBQAQJplx0CBiKQyUOCbHQBIysjoVgYKRMRAAQAQ26mOgQIRMVAAAERZdsoDBW/6g0hEIh4oOD+k4ocfANIqPAYKRCSVgYIt/egDQFplx0CBiMSen7WusflmBwCS0hwouM1AgYgYKAAAYjrVMVAgIgYKAIAoy057oOAOAwUiEnF+bqAAANIsPAYKRCT21Ftlx0ABACRWdtoDBU52RMRAAQAQkZHRWQYKRMRAAQAQ26lOe6BguYECEUlgoMA1NgBIqOzkAwU7hrJzbsi9IiKR5qbwW7fr/wODZRsVF6S07QAAACV0RVh0ZGF0ZTpjcmVhdGUAMjAyMS0wNS0wNFQxOTowNzoxMCswMDowMMXjM3YAAAAldEVYdGRhdGU6bW9kaWZ5ADIwMjEtMDUtMDRUMTk6MDc6MTArMDA6MDC0vovKAAAAAElFTkSuQmCC;" parent="G9LvsAXl9u4YjFtAsRXR-60" vertex="1">
          <mxGeometry x="34.190000000000005" y="47" width="51.63" height="64" as="geometry" />
        </mxCell>
        <mxCell id="G9LvsAXl9u4YjFtAsRXR-72" value="Network" style="edgeStyle=orthogonalEdgeStyle;rounded=0;orthogonalLoop=1;jettySize=auto;html=1;entryX=0.25;entryY=0;entryDx=0;entryDy=0;exitX=0.5;exitY=0;exitDx=0;exitDy=0;strokeColor=default;startArrow=classic;startFill=1;" parent="1" source="G9LvsAXl9u4YjFtAsRXR-76" target="fDyteKxTsw1w2ha29Ws7-22" edge="1">
          <mxGeometry relative="1" as="geometry" />
        </mxCell>
        <mxCell id="kxiGyfCiiZGAV-LbY0Gb-13" value="Network" style="edgeStyle=orthogonalEdgeStyle;rounded=0;orthogonalLoop=1;jettySize=auto;html=1;entryX=0.5;entryY=0;entryDx=0;entryDy=0;exitX=0.75;exitY=0;exitDx=0;exitDy=0;startArrow=classic;startFill=1;" parent="1" source="fDyteKxTsw1w2ha29Ws7-22" target="G9LvsAXl9u4YjFtAsRXR-60" edge="1">
          <mxGeometry relative="1" as="geometry">
            <mxPoint x="90" y="330" as="sourcePoint" />
            <mxPoint x="520" y="330" as="targetPoint" />
          </mxGeometry>
        </mxCell>
      </root>
    </mxGraphModel>
  </diagram>
  <diagram id="UTzrnPm3NhsC9rfkatF2" name="API">
    <mxGraphModel dx="2072" dy="1246" grid="1" gridSize="10" guides="1" tooltips="1" connect="1" arrows="1" fold="1" page="1" pageScale="1" pageWidth="827" pageHeight="1169" math="0" shadow="0">
      <root>
        <mxCell id="0" />
        <mxCell id="1" parent="0" />
        <mxCell id="o3-ofl6IqIPCoJUJXQbq-12" style="edgeStyle=orthogonalEdgeStyle;rounded=0;orthogonalLoop=1;jettySize=auto;html=1;entryX=0;entryY=0.5;entryDx=0;entryDy=0;startArrow=classic;startFill=1;fontSize=16;" parent="1" source="9WE45KvhuRAsZ2tROxa1-1" target="9WE45KvhuRAsZ2tROxa1-2" edge="1">
          <mxGeometry relative="1" as="geometry" />
        </mxCell>
        <mxCell id="B0jW660StVdUHDAFxHMl-34" style="edgeStyle=orthogonalEdgeStyle;rounded=0;orthogonalLoop=1;jettySize=auto;html=1;entryX=0;entryY=0;entryDx=0;entryDy=0;exitX=1;exitY=0.75;exitDx=0;exitDy=0;startArrow=classic;startFill=1;fontSize=16;" parent="1" source="9WE45KvhuRAsZ2tROxa1-1" target="B0jW660StVdUHDAFxHMl-32" edge="1">
          <mxGeometry relative="1" as="geometry" />
        </mxCell>
        <mxCell id="9WE45KvhuRAsZ2tROxa1-1" value="Auth Handler" style="rounded=0;whiteSpace=wrap;html=1;fontSize=16;" parent="1" vertex="1">
          <mxGeometry x="440" y="200" width="120" height="40" as="geometry" />
        </mxCell>
        <mxCell id="9WE45KvhuRAsZ2tROxa1-2" value="JWT Token Generator" style="rounded=0;whiteSpace=wrap;html=1;fontSize=16;" parent="1" vertex="1">
          <mxGeometry x="680" y="200" width="160" height="40" as="geometry" />
        </mxCell>
        <mxCell id="o3-ofl6IqIPCoJUJXQbq-11" style="edgeStyle=orthogonalEdgeStyle;rounded=0;orthogonalLoop=1;jettySize=auto;html=1;entryX=0;entryY=0.5;entryDx=0;entryDy=0;startArrow=classic;startFill=1;fontSize=16;" parent="1" source="9WE45KvhuRAsZ2tROxa1-6" target="9WE45KvhuRAsZ2tROxa1-1" edge="1">
          <mxGeometry relative="1" as="geometry" />
        </mxCell>
        <mxCell id="9WE45KvhuRAsZ2tROxa1-6" value="/device-login" style="rounded=0;whiteSpace=wrap;html=1;fontSize=16;" parent="1" vertex="1">
          <mxGeometry x="240" y="200" width="120" height="40" as="geometry" />
        </mxCell>
        <mxCell id="B0jW660StVdUHDAFxHMl-33" style="edgeStyle=orthogonalEdgeStyle;rounded=0;orthogonalLoop=1;jettySize=auto;html=1;entryX=0;entryY=0.25;entryDx=0;entryDy=0;startArrow=classic;startFill=1;fontSize=16;" parent="1" source="9WE45KvhuRAsZ2tROxa1-7" target="B0jW660StVdUHDAFxHMl-32" edge="1">
          <mxGeometry relative="1" as="geometry" />
        </mxCell>
        <mxCell id="9WE45KvhuRAsZ2tROxa1-7" value="Log Handler" style="rounded=0;whiteSpace=wrap;html=1;fontSize=16;" parent="1" vertex="1">
          <mxGeometry x="439" y="280" width="120" height="40" as="geometry" />
        </mxCell>
        <mxCell id="o3-ofl6IqIPCoJUJXQbq-9" style="edgeStyle=orthogonalEdgeStyle;rounded=0;orthogonalLoop=1;jettySize=auto;html=1;entryX=0;entryY=0.5;entryDx=0;entryDy=0;fontSize=16;" parent="1" source="o3-ofl6IqIPCoJUJXQbq-1" target="9WE45KvhuRAsZ2tROxa1-7" edge="1">
          <mxGeometry relative="1" as="geometry" />
        </mxCell>
        <mxCell id="o3-ofl6IqIPCoJUJXQbq-13" value="" style="edgeStyle=orthogonalEdgeStyle;rounded=0;orthogonalLoop=1;jettySize=auto;html=1;startArrow=classic;startFill=1;fontSize=16;" parent="1" source="o3-ofl6IqIPCoJUJXQbq-1" target="9WE45KvhuRAsZ2tROxa1-7" edge="1">
          <mxGeometry relative="1" as="geometry" />
        </mxCell>
        <mxCell id="o3-ofl6IqIPCoJUJXQbq-1" value="/log" style="rounded=0;whiteSpace=wrap;html=1;fontSize=16;" parent="1" vertex="1">
          <mxGeometry x="239" y="280" width="120" height="40" as="geometry" />
        </mxCell>
        <mxCell id="o3-ofl6IqIPCoJUJXQbq-10" style="edgeStyle=orthogonalEdgeStyle;rounded=0;orthogonalLoop=1;jettySize=auto;html=1;entryX=0;entryY=0.5;entryDx=0;entryDy=0;startArrow=classic;startFill=1;fontSize=16;" parent="1" source="o3-ofl6IqIPCoJUJXQbq-4" target="9WE45KvhuRAsZ2tROxa1-6" edge="1">
          <mxGeometry relative="1" as="geometry">
            <Array as="points">
              <mxPoint x="210" y="220" />
              <mxPoint x="210" y="220" />
            </Array>
          </mxGeometry>
        </mxCell>
        <mxCell id="o3-ofl6IqIPCoJUJXQbq-4" value="POST" style="rounded=0;whiteSpace=wrap;html=1;fillColor=#f8cecc;strokeColor=#b85450;fontSize=16;" parent="1" vertex="1">
          <mxGeometry x="40" y="200" width="120" height="40" as="geometry" />
        </mxCell>
        <mxCell id="o3-ofl6IqIPCoJUJXQbq-7" style="edgeStyle=orthogonalEdgeStyle;rounded=0;orthogonalLoop=1;jettySize=auto;html=1;entryX=0;entryY=0.5;entryDx=0;entryDy=0;startArrow=classic;startFill=1;fontSize=16;" parent="1" source="o3-ofl6IqIPCoJUJXQbq-5" target="o3-ofl6IqIPCoJUJXQbq-1" edge="1">
          <mxGeometry relative="1" as="geometry" />
        </mxCell>
        <mxCell id="o3-ofl6IqIPCoJUJXQbq-5" value="GET" style="rounded=0;whiteSpace=wrap;html=1;fillColor=#d5e8d4;strokeColor=#82b366;fontSize=16;" parent="1" vertex="1">
          <mxGeometry x="39" y="280" width="120" height="40" as="geometry" />
        </mxCell>
        <mxCell id="o3-ofl6IqIPCoJUJXQbq-8" style="edgeStyle=orthogonalEdgeStyle;rounded=0;orthogonalLoop=1;jettySize=auto;html=1;entryX=0;entryY=0.75;entryDx=0;entryDy=0;fontSize=16;" parent="1" source="o3-ofl6IqIPCoJUJXQbq-6" target="o3-ofl6IqIPCoJUJXQbq-1" edge="1">
          <mxGeometry relative="1" as="geometry" />
        </mxCell>
        <mxCell id="o3-ofl6IqIPCoJUJXQbq-6" value="POST" style="rounded=0;whiteSpace=wrap;html=1;fillColor=#f8cecc;strokeColor=#b85450;fontSize=16;" parent="1" vertex="1">
          <mxGeometry x="39" y="360" width="120" height="40" as="geometry" />
        </mxCell>
        <mxCell id="o3-ofl6IqIPCoJUJXQbq-19" value="" style="html=1;verticalLabelPosition=bottom;align=center;labelBackgroundColor=#ffffff;verticalAlign=top;strokeWidth=2;strokeColor=#001DBC;shadow=0;dashed=0;shape=mxgraph.ios7.icons.locked;fillColor=#0050ef;fontColor=#ffffff;fontSize=16;" parent="1" vertex="1">
          <mxGeometry x="29" y="350" width="24" height="30" as="geometry" />
        </mxCell>
        <mxCell id="o3-ofl6IqIPCoJUJXQbq-24" style="edgeStyle=orthogonalEdgeStyle;rounded=0;orthogonalLoop=1;jettySize=auto;html=1;entryX=0;entryY=0.25;entryDx=0;entryDy=0;startArrow=classic;startFill=1;fontSize=16;" parent="1" source="o3-ofl6IqIPCoJUJXQbq-21" target="9WE45KvhuRAsZ2tROxa1-1" edge="1">
          <mxGeometry relative="1" as="geometry" />
        </mxCell>
        <mxCell id="o3-ofl6IqIPCoJUJXQbq-21" value="/user-login" style="rounded=0;whiteSpace=wrap;html=1;fontSize=16;" parent="1" vertex="1">
          <mxGeometry x="240" y="120" width="120" height="40" as="geometry" />
        </mxCell>
        <mxCell id="o3-ofl6IqIPCoJUJXQbq-23" style="edgeStyle=orthogonalEdgeStyle;rounded=0;orthogonalLoop=1;jettySize=auto;html=1;entryX=0;entryY=0.5;entryDx=0;entryDy=0;startArrow=classic;startFill=1;fontSize=16;" parent="1" source="o3-ofl6IqIPCoJUJXQbq-22" target="o3-ofl6IqIPCoJUJXQbq-21" edge="1">
          <mxGeometry relative="1" as="geometry" />
        </mxCell>
        <mxCell id="o3-ofl6IqIPCoJUJXQbq-22" value="POST" style="rounded=0;whiteSpace=wrap;html=1;fillColor=#f8cecc;strokeColor=#b85450;fontSize=16;" parent="1" vertex="1">
          <mxGeometry x="40" y="120" width="120" height="40" as="geometry" />
        </mxCell>
        <mxCell id="B0jW660StVdUHDAFxHMl-15" style="edgeStyle=orthogonalEdgeStyle;rounded=0;orthogonalLoop=1;jettySize=auto;html=1;entryX=0;entryY=0.5;entryDx=0;entryDy=0;startArrow=classic;startFill=1;fontSize=16;" parent="1" source="o3-ofl6IqIPCoJUJXQbq-25" target="B0jW660StVdUHDAFxHMl-14" edge="1">
          <mxGeometry relative="1" as="geometry" />
        </mxCell>
        <mxCell id="o3-ofl6IqIPCoJUJXQbq-25" value="/user" style="rounded=0;whiteSpace=wrap;html=1;fontSize=16;" parent="1" vertex="1">
          <mxGeometry x="239" y="520" width="120" height="40" as="geometry" />
        </mxCell>
        <mxCell id="B0jW660StVdUHDAFxHMl-17" style="edgeStyle=orthogonalEdgeStyle;rounded=0;orthogonalLoop=1;jettySize=auto;html=1;entryX=0;entryY=0.5;entryDx=0;entryDy=0;startArrow=classic;startFill=1;fontSize=16;" parent="1" source="B0jW660StVdUHDAFxHMl-1" target="B0jW660StVdUHDAFxHMl-16" edge="1">
          <mxGeometry relative="1" as="geometry" />
        </mxCell>
        <mxCell id="B0jW660StVdUHDAFxHMl-1" value="/device" style="rounded=0;whiteSpace=wrap;html=1;fontSize=16;" parent="1" vertex="1">
          <mxGeometry x="239" y="880" width="120" height="40" as="geometry" />
        </mxCell>
        <mxCell id="B0jW660StVdUHDAFxHMl-6" style="edgeStyle=orthogonalEdgeStyle;rounded=0;orthogonalLoop=1;jettySize=auto;html=1;entryX=0;entryY=0.25;entryDx=0;entryDy=0;startArrow=classic;startFill=1;fontSize=16;" parent="1" source="B0jW660StVdUHDAFxHMl-3" target="o3-ofl6IqIPCoJUJXQbq-25" edge="1">
          <mxGeometry relative="1" as="geometry" />
        </mxCell>
        <mxCell id="B0jW660StVdUHDAFxHMl-3" value="GET" style="rounded=0;whiteSpace=wrap;html=1;fillColor=#d5e8d4;strokeColor=#82b366;fontSize=16;" parent="1" vertex="1">
          <mxGeometry x="39" y="440" width="120" height="40" as="geometry" />
        </mxCell>
        <mxCell id="B0jW660StVdUHDAFxHMl-8" style="edgeStyle=orthogonalEdgeStyle;rounded=0;orthogonalLoop=1;jettySize=auto;html=1;entryX=0;entryY=0.75;entryDx=0;entryDy=0;startArrow=none;startFill=0;fontSize=16;" parent="1" source="B0jW660StVdUHDAFxHMl-4" target="o3-ofl6IqIPCoJUJXQbq-25" edge="1">
          <mxGeometry relative="1" as="geometry" />
        </mxCell>
        <mxCell id="B0jW660StVdUHDAFxHMl-4" value="PUT" style="rounded=0;whiteSpace=wrap;html=1;fillColor=#fff2cc;strokeColor=#d6b656;fontSize=16;" parent="1" vertex="1">
          <mxGeometry x="39" y="600" width="120" height="40" as="geometry" />
        </mxCell>
        <mxCell id="B0jW660StVdUHDAFxHMl-7" style="edgeStyle=orthogonalEdgeStyle;rounded=0;orthogonalLoop=1;jettySize=auto;html=1;entryX=0;entryY=0.5;entryDx=0;entryDy=0;startArrow=classic;startFill=1;fontSize=16;" parent="1" source="B0jW660StVdUHDAFxHMl-5" target="o3-ofl6IqIPCoJUJXQbq-25" edge="1">
          <mxGeometry relative="1" as="geometry" />
        </mxCell>
        <mxCell id="B0jW660StVdUHDAFxHMl-5" value="POST" style="rounded=0;whiteSpace=wrap;html=1;fillColor=#f8cecc;strokeColor=#b85450;fontSize=16;" parent="1" vertex="1">
          <mxGeometry x="39" y="520" width="120" height="40" as="geometry" />
        </mxCell>
        <mxCell id="B0jW660StVdUHDAFxHMl-10" style="edgeStyle=orthogonalEdgeStyle;rounded=0;orthogonalLoop=1;jettySize=auto;html=1;entryX=0;entryY=1;entryDx=0;entryDy=0;fontSize=16;" parent="1" source="B0jW660StVdUHDAFxHMl-9" target="o3-ofl6IqIPCoJUJXQbq-25" edge="1">
          <mxGeometry relative="1" as="geometry" />
        </mxCell>
        <mxCell id="B0jW660StVdUHDAFxHMl-9" value="Delete" style="rounded=0;whiteSpace=wrap;html=1;fillColor=#f5f5f5;strokeColor=#666666;fontColor=#333333;fontSize=16;" parent="1" vertex="1">
          <mxGeometry x="39" y="680" width="120" height="40" as="geometry" />
        </mxCell>
        <mxCell id="B0jW660StVdUHDAFxHMl-2" value="" style="html=1;verticalLabelPosition=bottom;align=center;labelBackgroundColor=#ffffff;verticalAlign=top;strokeWidth=2;strokeColor=#B20000;shadow=0;dashed=0;shape=mxgraph.ios7.icons.locked;fillColor=#e51400;fontColor=#ffffff;fontSize=16;" parent="1" vertex="1">
          <mxGeometry x="29" y="430" width="24" height="30" as="geometry" />
        </mxCell>
        <mxCell id="B0jW660StVdUHDAFxHMl-11" value="" style="html=1;verticalLabelPosition=bottom;align=center;labelBackgroundColor=#ffffff;verticalAlign=top;strokeWidth=2;strokeColor=#B20000;shadow=0;dashed=0;shape=mxgraph.ios7.icons.locked;fillColor=#e51400;fontColor=#ffffff;fontSize=16;" parent="1" vertex="1">
          <mxGeometry x="29" y="510" width="24" height="30" as="geometry" />
        </mxCell>
        <mxCell id="B0jW660StVdUHDAFxHMl-12" value="" style="html=1;verticalLabelPosition=bottom;align=center;labelBackgroundColor=#ffffff;verticalAlign=top;strokeWidth=2;strokeColor=#B20000;shadow=0;dashed=0;shape=mxgraph.ios7.icons.locked;fillColor=#e51400;fontColor=#ffffff;fontSize=16;" parent="1" vertex="1">
          <mxGeometry x="29" y="590" width="24" height="30" as="geometry" />
        </mxCell>
        <mxCell id="B0jW660StVdUHDAFxHMl-13" value="" style="html=1;verticalLabelPosition=bottom;align=center;labelBackgroundColor=#ffffff;verticalAlign=top;strokeWidth=2;strokeColor=#B20000;shadow=0;dashed=0;shape=mxgraph.ios7.icons.locked;fillColor=#e51400;fontColor=#ffffff;fontSize=16;" parent="1" vertex="1">
          <mxGeometry x="29" y="670" width="24" height="30" as="geometry" />
        </mxCell>
        <mxCell id="B0jW660StVdUHDAFxHMl-35" style="edgeStyle=orthogonalEdgeStyle;rounded=0;orthogonalLoop=1;jettySize=auto;html=1;entryX=0;entryY=0.5;entryDx=0;entryDy=0;startArrow=classic;startFill=1;fontSize=16;" parent="1" source="B0jW660StVdUHDAFxHMl-14" target="B0jW660StVdUHDAFxHMl-32" edge="1">
          <mxGeometry relative="1" as="geometry" />
        </mxCell>
        <mxCell id="B0jW660StVdUHDAFxHMl-14" value="User Handler" style="rounded=0;whiteSpace=wrap;html=1;fontSize=16;" parent="1" vertex="1">
          <mxGeometry x="439" y="520" width="120" height="40" as="geometry" />
        </mxCell>
        <mxCell id="B0jW660StVdUHDAFxHMl-36" style="edgeStyle=orthogonalEdgeStyle;rounded=0;orthogonalLoop=1;jettySize=auto;html=1;entryX=0;entryY=0.75;entryDx=0;entryDy=0;startArrow=classic;startFill=1;fontSize=16;exitX=1;exitY=0.25;exitDx=0;exitDy=0;" parent="1" source="B0jW660StVdUHDAFxHMl-16" target="B0jW660StVdUHDAFxHMl-32" edge="1">
          <mxGeometry relative="1" as="geometry" />
        </mxCell>
        <mxCell id="qBTXIy8dJWh1tRuGlc3V-2" style="edgeStyle=orthogonalEdgeStyle;rounded=0;orthogonalLoop=1;jettySize=auto;html=1;startArrow=classic;startFill=1;entryX=0;entryY=0.5;entryDx=0;entryDy=0;" parent="1" source="B0jW660StVdUHDAFxHMl-16" target="qBTXIy8dJWh1tRuGlc3V-1" edge="1">
          <mxGeometry relative="1" as="geometry">
            <mxPoint x="629" y="900" as="targetPoint" />
          </mxGeometry>
        </mxCell>
        <mxCell id="B0jW660StVdUHDAFxHMl-16" value="Device Handler" style="rounded=0;whiteSpace=wrap;html=1;fontSize=16;" parent="1" vertex="1">
          <mxGeometry x="439" y="880" width="120" height="40" as="geometry" />
        </mxCell>
        <mxCell id="B0jW660StVdUHDAFxHMl-18" value="" style="html=1;verticalLabelPosition=bottom;align=center;labelBackgroundColor=#ffffff;verticalAlign=top;strokeWidth=2;strokeColor=#B09500;shadow=0;dashed=0;shape=mxgraph.ios7.icons.locked;fillColor=#e3c800;fontColor=#000000;fontSize=16;" parent="1" vertex="1">
          <mxGeometry x="29" y="270" width="24" height="30" as="geometry" />
        </mxCell>
        <mxCell id="B0jW660StVdUHDAFxHMl-25" style="edgeStyle=orthogonalEdgeStyle;rounded=0;orthogonalLoop=1;jettySize=auto;html=1;entryX=0;entryY=0.25;entryDx=0;entryDy=0;startArrow=classic;startFill=1;fontSize=16;" parent="1" source="B0jW660StVdUHDAFxHMl-19" target="B0jW660StVdUHDAFxHMl-1" edge="1">
          <mxGeometry relative="1" as="geometry" />
        </mxCell>
        <mxCell id="B0jW660StVdUHDAFxHMl-19" value="GET" style="rounded=0;whiteSpace=wrap;html=1;fillColor=#d5e8d4;strokeColor=#82b366;fontSize=16;" parent="1" vertex="1">
          <mxGeometry x="39" y="800" width="120" height="40" as="geometry" />
        </mxCell>
        <mxCell id="B0jW660StVdUHDAFxHMl-27" value="" style="edgeStyle=orthogonalEdgeStyle;rounded=0;orthogonalLoop=1;jettySize=auto;html=1;entryX=0;entryY=0.5;entryDx=0;entryDy=0;fontSize=16;" parent="1" source="B0jW660StVdUHDAFxHMl-20" target="B0jW660StVdUHDAFxHMl-1" edge="1">
          <mxGeometry relative="1" as="geometry" />
        </mxCell>
        <mxCell id="B0jW660StVdUHDAFxHMl-20" value="POST" style="rounded=0;whiteSpace=wrap;html=1;fillColor=#f8cecc;strokeColor=#b85450;fontSize=16;" parent="1" vertex="1">
          <mxGeometry x="39" y="880" width="120" height="40" as="geometry" />
        </mxCell>
        <mxCell id="B0jW660StVdUHDAFxHMl-29" style="edgeStyle=orthogonalEdgeStyle;rounded=0;orthogonalLoop=1;jettySize=auto;html=1;entryX=0;entryY=1;entryDx=0;entryDy=0;fontSize=16;" parent="1" source="B0jW660StVdUHDAFxHMl-21" target="B0jW660StVdUHDAFxHMl-1" edge="1">
          <mxGeometry relative="1" as="geometry" />
        </mxCell>
        <mxCell id="B0jW660StVdUHDAFxHMl-21" value="Delete" style="rounded=0;whiteSpace=wrap;html=1;fillColor=#f5f5f5;strokeColor=#666666;fontColor=#333333;fontSize=16;" parent="1" vertex="1">
          <mxGeometry x="39" y="1040" width="120" height="40" as="geometry" />
        </mxCell>
        <mxCell id="B0jW660StVdUHDAFxHMl-22" value="" style="html=1;verticalLabelPosition=bottom;align=center;labelBackgroundColor=#ffffff;verticalAlign=top;strokeWidth=2;strokeColor=#B20000;shadow=0;dashed=0;shape=mxgraph.ios7.icons.locked;fillColor=#e51400;fontColor=#ffffff;fontSize=16;" parent="1" vertex="1">
          <mxGeometry x="29" y="790" width="24" height="30" as="geometry" />
        </mxCell>
        <mxCell id="B0jW660StVdUHDAFxHMl-23" value="" style="html=1;verticalLabelPosition=bottom;align=center;labelBackgroundColor=#ffffff;verticalAlign=top;strokeWidth=2;strokeColor=#B20000;shadow=0;dashed=0;shape=mxgraph.ios7.icons.locked;fillColor=#e51400;fontColor=#ffffff;fontSize=16;" parent="1" vertex="1">
          <mxGeometry x="29" y="870" width="24" height="30" as="geometry" />
        </mxCell>
        <mxCell id="B0jW660StVdUHDAFxHMl-24" value="" style="html=1;verticalLabelPosition=bottom;align=center;labelBackgroundColor=#ffffff;verticalAlign=top;strokeWidth=2;strokeColor=#B20000;shadow=0;dashed=0;shape=mxgraph.ios7.icons.locked;fillColor=#e51400;fontColor=#ffffff;fontSize=16;" parent="1" vertex="1">
          <mxGeometry x="29" y="1030" width="24" height="30" as="geometry" />
        </mxCell>
        <mxCell id="B0jW660StVdUHDAFxHMl-26" value="" style="html=1;verticalLabelPosition=bottom;align=center;labelBackgroundColor=#ffffff;verticalAlign=top;strokeWidth=2;strokeColor=#B20000;shadow=0;dashed=0;shape=mxgraph.ios7.icons.locked;fillColor=#e51400;fontColor=#ffffff;fontSize=16;" parent="1" vertex="1">
          <mxGeometry x="39" y="280" width="24" height="30" as="geometry" />
        </mxCell>
        <mxCell id="B0jW660StVdUHDAFxHMl-32" value="PostgreSQL DBMS" style="rounded=0;whiteSpace=wrap;html=1;fontSize=16;" parent="1" vertex="1">
          <mxGeometry x="639" y="520" width="160" height="40" as="geometry" />
        </mxCell>
        <mxCell id="W4NphOOPZZmKCxaiUZ5H-1" value="&lt;font color=&quot;#000000&quot; style=&quot;font-size: 16px;&quot;&gt;Device Access&lt;/font&gt;" style="html=1;verticalLabelPosition=bottom;align=center;labelBackgroundColor=#ffffff;verticalAlign=top;strokeWidth=2;strokeColor=#001DBC;shadow=0;dashed=0;shape=mxgraph.ios7.icons.locked;fillColor=#0050ef;fontColor=#ffffff;fontSize=16;" parent="1" vertex="1">
          <mxGeometry x="80" y="40" width="24" height="30" as="geometry" />
        </mxCell>
        <mxCell id="W4NphOOPZZmKCxaiUZ5H-2" value="User Access" style="html=1;verticalLabelPosition=bottom;align=center;labelBackgroundColor=#ffffff;verticalAlign=top;strokeWidth=2;strokeColor=#B09500;shadow=0;dashed=0;shape=mxgraph.ios7.icons.locked;fillColor=#e3c800;fontColor=#000000;fontSize=16;" parent="1" vertex="1">
          <mxGeometry x="200" y="40" width="24" height="30" as="geometry" />
        </mxCell>
        <mxCell id="W4NphOOPZZmKCxaiUZ5H-3" value="&lt;font color=&quot;#171717&quot; style=&quot;font-size: 16px;&quot;&gt;Admin Access&lt;/font&gt;" style="html=1;verticalLabelPosition=bottom;align=center;labelBackgroundColor=#ffffff;verticalAlign=top;strokeWidth=2;strokeColor=#B20000;shadow=0;dashed=0;shape=mxgraph.ios7.icons.locked;fillColor=#e51400;fontColor=#ffffff;fontSize=16;" parent="1" vertex="1">
          <mxGeometry x="320" y="40" width="24" height="30" as="geometry" />
        </mxCell>
        <mxCell id="qBTXIy8dJWh1tRuGlc3V-1" value="Key Generator" style="rounded=0;whiteSpace=wrap;html=1;fontSize=16;" parent="1" vertex="1">
          <mxGeometry x="639" y="880" width="160" height="40" as="geometry" />
        </mxCell>
        <mxCell id="RKTR1uw1hIryQcowcS6b-3" style="edgeStyle=orthogonalEdgeStyle;rounded=0;orthogonalLoop=1;jettySize=auto;html=1;entryX=0;entryY=0.75;entryDx=0;entryDy=0;" parent="1" source="RKTR1uw1hIryQcowcS6b-1" target="B0jW660StVdUHDAFxHMl-1" edge="1">
          <mxGeometry relative="1" as="geometry" />
        </mxCell>
        <mxCell id="RKTR1uw1hIryQcowcS6b-1" value="PUT" style="rounded=0;whiteSpace=wrap;html=1;fillColor=#fff2cc;strokeColor=#d6b656;fontSize=16;" parent="1" vertex="1">
          <mxGeometry x="39" y="960" width="120" height="40" as="geometry" />
        </mxCell>
        <mxCell id="RKTR1uw1hIryQcowcS6b-2" value="" style="html=1;verticalLabelPosition=bottom;align=center;labelBackgroundColor=#ffffff;verticalAlign=top;strokeWidth=2;strokeColor=#B20000;shadow=0;dashed=0;shape=mxgraph.ios7.icons.locked;fillColor=#e51400;fontColor=#ffffff;fontSize=16;" parent="1" vertex="1">
          <mxGeometry x="29" y="950" width="24" height="30" as="geometry" />
        </mxCell>
      </root>
    </mxGraphModel>
  </diagram>
</mxfile>
